<!-- Generated by readme-aura https://github.com/collectioneur/readme-aura -->
<svg width="900" height="260" viewBox="0 0 900 260" xmlns="http://www.w3.org/2000/svg"><mask id="satori_om-id"><rect x="0" y="0" width="900" height="260" fill="#fff"/></mask><defs><pattern id="satori_pattern_id-0_0" x="0" y="0" width="1" height="1" patternUnits="objectBoundingBox"><linearGradient id="satori_biid-0_0" x1="-0.09480401093892427" y1="0.32816773017320006" x2="1.0948040109389243" y2="0.6718322698267999" spreadMethod="pad"><stop offset="0%" stop-color="#0b1220"/><stop offset="100%" stop-color="#111827"/></linearGradient><rect x="0" y="0" width="900" height="260" fill="url(#satori_biid-0_0)"/></pattern></defs><clipPath id="satori_cp-id-0"><path x="0" y="0" width="900" height="260" d="M24,0 h852 a24,24 0 0 1 24,24 v212 a24,24 0 0 1 -24,24 h-852 a24,24 0 0 1 -24,-24 v-212 a24,24 0 0 1 24,-24"/></clipPath><mask id="satori_om-id-0"><rect x="0" y="0" width="900" height="260" fill="#fff"/></mask><path x="0" y="0" width="900" height="260" fill="url(#satori_pattern_id-0_0)" d="M24,0 h852 a24,24 0 0 1 24,24 v212 a24,24 0 0 1 -24,24 h-852 a24,24 0 0 1 -24,-24 v-212 a24,24 0 0 1 24,-24"/><clipPath id="satori_cp-id-0-0" clip-path="url(#satori_cp-id-0)"><rect x="0" y="0" width="900" height="260"/></clipPath><mask id="satori_om-id-0-0"><rect x="0" y="0" width="900" height="260" fill="#fff" mask="url(#satori_om-id-0)"/></mask><svg x="0" y="0" width="900" height="260" preserveAspectRatio="none" clip-path="url(#satori_cp-id-0-0)" mask="url(#satori_om-id-0-0)"><defs><radialGradient id="orb" cx="50%" cy="50%" r="50%"><stop offset="0%" stop-color="#60a5fa" stop-opacity="0.7"></stop><stop offset="100%" stop-color="#1f2937" stop-opacity="0"></stop></radialGradient><linearGradient id="scan" x1="0" y1="0" x2="1" y2="0"><stop offset="0%" stop-color="#22d3ee" stop-opacity="0"></stop><stop offset="50%" stop-color="#22d3ee" stop-opacity="0.35"></stop><stop offset="100%" stop-color="#22d3ee" stop-opacity="0"></stop></linearGradient></defs><circle id="orb-1" cx="140" cy="90" r="120" fill="url(#orb)"></circle><circle id="orb-2" cx="760" cy="190" r="130" fill="url(#orb)"></circle><rect id="sweep" x="340" y="20" width="220" height="220" rx="24" fill="url(#scan)"></rect><style>

    @keyframes floatUp {
      0% { transform: translateY(0px); opacity: 0.85; }
      50% { transform: translateY(-10px); opacity: 1; }
      100% { transform: translateY(0px); opacity: 0.85; }
    }
    @keyframes sweep {
      0% { transform: translateX(-220px); opacity: 0; }
      20% { opacity: 0.35; }
      50% { opacity: 0.5; }
      80% { opacity: 0.2; }
      100% { transform: translateX(220px); opacity: 0; }
    }
    #orb-1 { animation: floatUp 7s ease-in-out infinite; }
    #orb-2 { animation: floatUp 9s ease-in-out infinite reverse; }
    #sweep { animation: sweep 6s linear infinite; }
  
</style>
</svg><mask id="satori_om-id-0-0-0"><rect x="0" y="0" width="0" height="260" fill="#fff" mask="url(#satori_om-id-0)"/></mask><mask id="satori_om-id-0-0-0-0"><rect x="0" y="0" width="0" height="260" fill="#fff" mask="url(#satori_om-id-0)"/></mask><mask id="satori_om-id-0-0-0-0-0"><rect x="0" y="0" width="0" height="260" fill="#fff" mask="url(#satori_om-id-0)"/></mask><mask id="satori_om-id-0-0-0-0-1"><rect x="0" y="0" width="0" height="260" fill="#fff" mask="url(#satori_om-id-0)"/></mask><mask id="satori_om-id-0-0-0-1"><rect x="0" y="0" width="0" height="260" fill="#fff" mask="url(#satori_om-id-0)"/></mask><mask id="satori_om-id-0-0-0-1-0"><rect x="0" y="0" width="0" height="260" fill="#fff" mask="url(#satori_om-id-0)"/></mask><mask id="satori_om-id-0-0-0-1-1"><rect x="0" y="0" width="0" height="260" fill="#fff" mask="url(#satori_om-id-0)"/></mask><mask id="satori_om-id-0-0-0-1-2"><rect x="0" y="0" width="0" height="260" fill="#fff" mask="url(#satori_om-id-0)"/></mask><mask id="satori_om-id-0-0-1"><rect x="0" y="0" width="0" height="260" fill="#fff" mask="url(#satori_om-id-0)"/></mask><mask id="satori_om-id-0-0-2"><rect x="0" y="0" width="0" height="260" fill="#fff" mask="url(#satori_om-id-0)"/></mask><mask id="satori_om-id-0-0-3"><rect x="0" y="0" width="0" height="260" fill="#fff" mask="url(#satori_om-id-0)"/></mask><mask id="satori_om-id-0-1"><rect x="70" y="78" width="301" height="103" fill="#fff" mask="url(#satori_om-id-0)"/></mask><mask id="satori_om-id-0-1-0"><rect x="70" y="78" width="301" height="44" fill="#fff" mask="url(#satori_om-id-0)"/></mask><g mask="url(#satori_om-id-0)" clip-path="url(#satori_cp-id-0)"><path fill="#f8fafc" d="M92.1 115L72.6 115L72.6 85.9L92.1 85.9L92.1 90.8L78.6 90.8L78.6 97.9L91.1 97.9L91.1 102.7L78.6 102.7L78.6 110.1L92.1 110.1L92.1 115ZM105.5 115.4L105.5 115.4Q102.8 115.4 100.8 114.7Q98.8 113.9 97.5 112.5Q96.2 111.1 95.8 109.0L95.8 109.0L101.3 108.1Q101.7 109.6 102.8 110.4Q103.8 111.1 105.6 111.1L105.6 111.1Q107.3 111.1 108.3 110.5Q109.3 109.9 109.3 108.9L109.3 108.9Q109.3 108.0 108.6 107.5Q107.9 106.9 106.4 106.6L106.4 106.6L102.7 105.9Q99.5 105.2 97.9 103.7Q96.4 102.1 96.4 99.7L96.4 99.7Q96.4 97.6 97.5 96.0Q98.7 94.5 100.7 93.7Q102.8 92.9 105.6 92.9L105.6 92.9Q108.1 92.9 110.0 93.6Q111.9 94.3 113.1 95.6Q114.3 96.9 114.7 98.7L114.7 98.7L109.5 99.6Q109.1 98.5 108.2 97.8Q107.2 97.1 105.6 97.1L105.6 97.1Q104.2 97.1 103.2 97.7Q102.2 98.3 102.2 99.3L102.2 99.3Q102.2 100.1 102.9 100.7Q103.5 101.3 105.1 101.6L105.1 101.6L109.0 102.4Q112.1 103.0 113.7 104.5Q115.2 105.9 115.2 108.3L115.2 108.3Q115.2 110.4 114.0 112.0Q112.7 113.6 110.5 114.5Q108.3 115.4 105.5 115.4ZM125.1 102.4L125.1 102.4L125.1 115L119.2 115L119.2 85.9L124.9 85.9L124.9 97.4Q125.8 95.5 127.1 94.4L127.1 94.4Q128.8 92.9 131.6 92.9L131.6 92.9Q133.9 92.9 135.6 93.9Q137.2 94.9 138.2 96.7Q139.1 98.6 139.1 101.1L139.1 101.1L139.1 115L133.2 115L133.2 102.1Q133.2 100.1 132.2 98.9Q131.2 97.8 129.3 97.8L129.3 97.8Q128.1 97.8 127.1 98.3Q126.1 98.9 125.6 99.9Q125.1 100.9 125.1 102.4ZM150.2 115.4L150.2 115.4Q148.1 115.4 146.5 114.7Q144.8 114.0 143.9 112.5Q142.9 111.1 142.9 108.9L142.9 108.9Q142.9 107.1 143.6 105.8Q144.3 104.6 145.4 103.9Q146.6 103.1 148.1 102.7Q149.6 102.3 151.2 102.2L151.2 102.2Q153.1 102.0 154.2 101.8Q155.4 101.7 155.9 101.3Q156.5 100.9 156.5 100.2L156.5 100.2L156.5 100.1Q156.5 99.2 156.1 98.6Q155.7 97.9 154.9 97.6Q154.1 97.2 153.0 97.2L153.0 97.2Q151.9 97.2 151.1 97.6Q150.2 97.9 149.7 98.5Q149.2 99.0 148.9 99.7L148.9 99.7L143.6 98.9Q144.1 97.0 145.4 95.6Q146.7 94.3 148.7 93.6Q150.6 92.9 153.1 92.9L153.1 92.9Q154.8 92.9 156.5 93.3Q158.1 93.7 159.5 94.6Q160.8 95.5 161.6 96.9Q162.3 98.3 162.3 100.3L162.3 100.3L162.3 115L156.8 115L156.8 112.0L156.6 112.0Q156.1 113.0 155.2 113.8Q154.3 114.5 153.1 115.0Q151.8 115.4 150.2 115.4ZM151.9 111.3L151.9 111.3Q153.2 111.3 154.3 110.8Q155.3 110.2 155.9 109.3Q156.5 108.3 156.5 107.2L156.5 107.2L156.5 104.8Q156.3 105.0 155.7 105.2Q155.2 105.3 154.6 105.4Q153.9 105.6 153.3 105.7Q152.7 105.8 152.2 105.8L152.2 105.8Q151.1 106.0 150.3 106.3Q149.5 106.7 149.0 107.3Q148.6 107.8 148.6 108.7L148.6 108.7Q148.6 109.6 149.0 110.1Q149.4 110.7 150.2 111.0Q150.9 111.3 151.9 111.3ZM173.4 115.4L173.4 115.4Q171.3 115.4 169.7 114.7Q168.0 114.0 167.1 112.5Q166.2 111.1 166.2 108.9L166.2 108.9Q166.2 107.1 166.8 105.8Q167.5 104.6 168.7 103.9Q169.8 103.1 171.3 102.7Q172.8 102.3 174.4 102.2L174.4 102.2Q176.3 102.0 177.5 101.8Q178.6 101.7 179.2 101.3Q179.7 100.9 179.7 100.2L179.7 100.2L179.7 100.1Q179.7 99.2 179.3 98.6Q178.9 97.9 178.1 97.6Q177.4 97.2 176.3 97.2L176.3 97.2Q175.1 97.2 174.3 97.6Q173.5 97.9 172.9 98.5Q172.4 99.0 172.1 99.7L172.1 99.7L166.8 98.9Q167.3 97.0 168.7 95.6Q170.0 94.3 171.9 93.6Q173.8 92.9 176.3 92.9L176.3 92.9Q178.0 92.9 179.7 93.3Q181.4 93.7 182.7 94.6Q184.0 95.5 184.8 96.9Q185.5 98.3 185.5 100.3L185.5 100.3L185.5 115L180 115L180 112.0L179.8 112.0Q179.3 113.0 178.4 113.8Q177.5 114.5 176.3 115.0Q175.0 115.4 173.4 115.4ZM175.1 111.3L175.1 111.3Q176.5 111.3 177.5 110.8Q178.6 110.2 179.1 109.3Q179.7 108.3 179.7 107.2L179.7 107.2L179.7 104.8Q179.5 105.0 178.9 105.2Q178.4 105.3 177.8 105.4Q177.1 105.6 176.5 105.7Q175.9 105.8 175.4 105.8L175.4 105.8Q174.3 106.0 173.5 106.3Q172.7 106.7 172.2 107.3Q171.8 107.8 171.8 108.7L171.8 108.7Q171.8 109.6 172.2 110.1Q172.6 110.7 173.4 111.0Q174.1 111.3 175.1 111.3ZM196.4 102.4L196.4 102.4L196.4 115L190.5 115L190.5 93.2L196.1 93.2L196.2 97.7Q197.0 95.6 198.4 94.4L198.4 94.4Q200.2 92.9 202.9 92.9L202.9 92.9Q205.2 92.9 206.9 93.9Q208.6 94.9 209.5 96.7Q210.4 98.6 210.4 101.1L210.4 101.1L210.4 115L204.6 115L204.6 102.1Q204.6 100.1 203.5 98.9Q202.5 97.8 200.6 97.8L200.6 97.8Q199.4 97.8 198.4 98.3Q197.5 98.9 196.9 99.9Q196.4 100.9 196.4 102.4Z M233.5 115.4L233.5 115.4Q229.0 115.4 226.4 113.0Q223.8 110.6 223.8 106.3L223.8 106.3L223.8 104.6L229.7 104.6L229.7 106.3Q229.7 108.4 230.7 109.5Q231.8 110.6 233.5 110.6L233.5 110.6Q235.2 110.6 236.3 109.5Q237.3 108.4 237.3 106.3L237.3 106.3L237.3 85.9L243.2 85.9L243.2 106.2Q243.2 110.6 240.6 113.0Q238.0 115.4 233.5 115.4ZM254.4 115.4L254.4 115.4Q252.3 115.4 250.7 114.7Q249.0 114.0 248.1 112.5Q247.1 111.1 247.1 108.9L247.1 108.9Q247.1 107.1 247.8 105.8Q248.5 104.6 249.6 103.9Q250.8 103.1 252.3 102.7Q253.8 102.3 255.4 102.2L255.4 102.2Q257.3 102.0 258.4 101.8Q259.6 101.7 260.1 101.3Q260.7 100.9 260.7 100.2L260.7 100.2L260.7 100.1Q260.7 99.2 260.3 98.6Q259.9 97.9 259.1 97.6Q258.3 97.2 257.2 97.2L257.2 97.2Q256.1 97.2 255.3 97.6Q254.4 97.9 253.9 98.5Q253.4 99.0 253.1 99.7L253.1 99.7L247.8 98.9Q248.3 97.0 249.6 95.6Q250.9 94.3 252.9 93.6Q254.8 92.9 257.3 92.9L257.3 92.9Q259.0 92.9 260.7 93.3Q262.3 93.7 263.7 94.6Q265.0 95.5 265.8 96.9Q266.5 98.3 266.5 100.3L266.5 100.3L266.5 115L261.0 115L261.0 112.0L260.8 112.0Q260.3 113.0 259.4 113.8Q258.5 114.5 257.3 115.0Q256.0 115.4 254.4 115.4ZM256.1 111.3L256.1 111.3Q257.4 111.3 258.5 110.8Q259.5 110.2 260.1 109.3Q260.7 108.3 260.7 107.2L260.7 107.2L260.7 104.8Q260.4 105.0 259.9 105.2Q259.4 105.3 258.8 105.4Q258.1 105.6 257.5 105.7Q256.9 105.8 256.4 105.8L256.4 105.8Q255.3 106.0 254.5 106.3Q253.7 106.7 253.2 107.3Q252.8 107.8 252.8 108.7L252.8 108.7Q252.8 109.6 253.2 110.1Q253.6 110.7 254.4 111.0Q255.1 111.3 256.1 111.3ZM277.4 115L271.5 115L271.5 93.2L277.4 93.2L277.4 115ZM274.5 90.3L274.5 90.3Q273.1 90.3 272.2 89.4Q271.3 88.6 271.3 87.3L271.3 87.3Q271.3 86.1 272.2 85.2Q273.1 84.3 274.5 84.3L274.5 84.3Q275.8 84.3 276.7 85.2Q277.7 86.0 277.7 87.3L277.7 87.3Q277.7 88.6 276.7 89.4Q275.8 90.3 274.5 90.3ZM291.0 115.4L291.0 115.4Q288.4 115.4 286.4 114.7Q284.3 113.9 283.0 112.5Q281.8 111.1 281.4 109.0L281.4 109.0L286.8 108.1Q287.3 109.6 288.3 110.4Q289.4 111.1 291.2 111.1L291.2 111.1Q292.9 111.1 293.9 110.5Q294.8 109.9 294.8 108.9L294.8 108.9Q294.8 108.0 294.1 107.5Q293.4 106.9 292.0 106.6L292.0 106.6L288.2 105.9Q285.1 105.2 283.5 103.7Q282.0 102.1 282.0 99.7L282.0 99.7Q282.0 97.6 283.1 96.0Q284.3 94.5 286.3 93.7Q288.4 92.9 291.1 92.9L291.1 92.9Q293.7 92.9 295.6 93.6Q297.5 94.3 298.7 95.6Q299.8 96.9 300.2 98.7L300.2 98.7L295.0 99.6Q294.7 98.5 293.8 97.8Q292.8 97.1 291.2 97.1L291.2 97.1Q289.8 97.1 288.8 97.7Q287.8 98.3 287.8 99.3L287.8 99.3Q287.8 100.1 288.4 100.7Q289.1 101.3 290.6 101.6L290.6 101.6L294.6 102.4Q297.7 103.0 299.3 104.5Q300.8 105.9 300.8 108.3L300.8 108.3Q300.8 110.4 299.6 112.0Q298.3 113.6 296.1 114.5Q293.9 115.4 291.0 115.4ZM315.3 115L309.3 115L302.9 93.2L309.0 93.2L310.9 101.2Q311.4 103.4 312.0 105.9L312.0 105.9Q312.4 107.7 312.7 109.6L312.7 109.6Q313.0 107.7 313.5 106.0L313.5 106.0Q314.1 103.4 314.6 101.2L314.6 101.2L316.6 93.2L322.0 93.2L323.9 101.2Q324.4 103.4 325.0 106.0L325.0 106.0Q325.4 107.7 325.8 109.6L325.8 109.6Q326.1 107.7 326.5 106.0L326.5 106.0Q327.0 103.5 327.5 101.2L327.5 101.2L329.4 93.2L335.7 93.2L329.2 115L323.2 115L320.8 106.6Q320.4 105.3 320.1 103.8Q319.7 102.2 319.4 100.6L319.4 100.6Q319.3 100.3 319.3 99.9L319.3 99.9Q319.2 100.3 319.1 100.6L319.1 100.6Q318.8 102.2 318.4 103.8Q318.0 105.3 317.7 106.6L317.7 106.6L315.3 115ZM344.9 115.4L344.9 115.4Q342.8 115.4 341.1 114.7Q339.5 114.0 338.5 112.5Q337.6 111.1 337.6 108.9L337.6 108.9Q337.6 107.1 338.3 105.8Q338.9 104.6 340.1 103.9Q341.3 103.1 342.7 102.7Q344.2 102.3 345.8 102.2L345.8 102.2Q347.7 102.0 348.9 101.8Q350.1 101.7 350.6 101.3Q351.1 100.9 351.1 100.2L351.1 100.2L351.1 100.1Q351.1 99.2 350.7 98.6Q350.4 97.9 349.6 97.6Q348.8 97.2 347.7 97.2L347.7 97.2Q346.6 97.2 345.7 97.6Q344.9 97.9 344.4 98.5Q343.8 99.0 343.6 99.7L343.6 99.7L338.2 98.9Q338.8 97.0 340.1 95.6Q341.4 94.3 343.3 93.6Q345.3 92.9 347.7 92.9L347.7 92.9Q349.5 92.9 351.2 93.3Q352.8 93.7 354.1 94.6Q355.4 95.5 356.2 96.9Q357.0 98.3 357.0 100.3L357.0 100.3L357.0 115L351.4 115L351.4 112.0L351.3 112.0Q350.7 113.0 349.8 113.8Q349.0 114.5 347.7 115.0Q346.5 115.4 344.9 115.4ZM346.5 111.3L346.5 111.3Q347.9 111.3 349.0 110.8Q350 110.2 350.6 109.3Q351.2 108.3 351.2 107.2L351.2 107.2L351.2 104.8Q350.9 105.0 350.4 105.2Q349.9 105.3 349.2 105.4Q348.6 105.6 347.9 105.7Q347.3 105.8 346.8 105.8L346.8 105.8Q345.8 106.0 344.9 106.3Q344.1 106.7 343.7 107.3Q343.2 107.8 343.2 108.7L343.2 108.7Q343.2 109.6 343.7 110.1Q344.1 110.7 344.8 111.0Q345.6 111.3 346.5 111.3ZM362.0 85.9L367.9 85.9L367.9 115L362.0 115L362.0 85.9Z "/></g><mask id="satori_om-id-0-1-1"><rect x="70" y="132" width="301" height="22" fill="#fff" mask="url(#satori_om-id-0)"/></mask><g mask="url(#satori_om-id-0)" clip-path="url(#satori_cp-id-0)"><path fill="#94a3b8" d="M76.9 149.2L76.9 149.2Q75.2 149.2 73.9 148.4Q72.6 147.5 71.8 146.0Q71.1 144.5 71.1 142.5L71.1 142.5Q71.1 140.4 71.8 138.9Q72.6 137.4 73.9 136.5Q75.2 135.7 76.9 135.7L76.9 135.7Q77.9 135.7 78.8 136.0Q79.6 136.3 80.3 136.9Q81.0 137.4 81.5 138.2Q82.0 139.0 82.2 140.0L82.2 140.0L80.5 140.0Q80.4 139.3 80.0 138.8Q79.7 138.3 79.2 138.0Q78.7 137.6 78.1 137.5Q77.5 137.3 76.9 137.3L76.9 137.3Q75.7 137.3 74.8 137.9Q73.8 138.5 73.3 139.6Q72.7 140.8 72.7 142.5L72.7 142.5Q72.7 144.1 73.3 145.3Q73.8 146.4 74.8 147.0Q75.7 147.6 76.9 147.6L76.9 147.6Q77.5 147.6 78.1 147.4Q78.7 147.3 79.2 146.9Q79.7 146.6 80.0 146.1Q80.4 145.5 80.5 144.9L80.5 144.9L82.2 144.9Q82.0 145.9 81.5 146.7Q81.1 147.5 80.4 148.0Q79.7 148.6 78.8 148.9Q77.9 149.2 76.9 149.2ZM88.5 149.2L88.5 149.2Q87.2 149.2 86.2 148.6Q85.2 147.9 84.6 146.8Q84.1 145.7 84.1 144.1L84.1 144.1Q84.1 142.6 84.6 141.5Q85.2 140.3 86.2 139.7Q87.2 139.1 88.5 139.1L88.5 139.1Q89.9 139.1 90.9 139.7Q91.9 140.3 92.5 141.5Q93.0 142.6 93.0 144.1L93.0 144.1Q93.0 145.7 92.5 146.8Q91.9 147.9 90.9 148.6Q89.9 149.2 88.5 149.2ZM88.5 147.8L88.5 147.8Q89.5 147.8 90.2 147.3Q90.8 146.8 91.1 145.9Q91.4 145.1 91.4 144.1L91.4 144.1Q91.4 143.2 91.1 142.3Q90.8 141.5 90.2 141.0Q89.5 140.5 88.5 140.5L88.5 140.5Q87.6 140.5 86.9 141.0Q86.3 141.5 86.0 142.3Q85.7 143.2 85.7 144.1L85.7 144.1Q85.7 145.1 86.0 145.9Q86.3 146.8 86.9 147.3Q87.6 147.8 88.5 147.8ZM96.9 149L95.3 149L95.3 139.2L96.9 139.2L96.9 141.0Q97.1 140.4 97.4 140.0L97.4 140.0Q97.8 139.5 98.4 139.3Q99.0 139.0 99.6 139.0L99.6 139.0Q100.7 139.0 101.4 139.7L101.4 139.7Q101.9 140.2 102.1 141.0L102.1 141.0Q102.3 140.5 102.7 140.1L102.7 140.1Q103.1 139.6 103.8 139.3Q104.4 139.0 105.2 139.0L105.2 139.0Q106.1 139.0 106.8 139.4Q107.5 139.7 107.9 140.5Q108.3 141.2 108.3 142.4L108.3 142.4L108.3 149L106.7 149L106.7 142.4Q106.7 141.4 106.1 140.9Q105.5 140.4 104.8 140.4L104.8 140.4Q104.1 140.4 103.6 140.7Q103.1 141.0 102.9 141.5Q102.6 142.0 102.6 142.6L102.6 142.6L102.6 149L101.0 149L101.0 142.3Q101.0 141.4 100.5 140.9Q99.9 140.4 99.1 140.4L99.1 140.4Q98.5 140.4 98.0 140.7Q97.5 141.0 97.2 141.5Q96.9 142.0 96.9 142.8L96.9 142.8L96.9 149ZM112.7 152.7L111.1 152.7L111.1 139.2L112.6 139.2L112.6 140.7L112.8 140.7Q113.0 140.5 113.3 140.1Q113.6 139.7 114.1 139.4Q114.7 139.1 115.7 139.1L115.7 139.1Q116.9 139.1 117.8 139.7Q118.8 140.3 119.3 141.4Q119.8 142.6 119.8 144.1L119.8 144.1Q119.8 145.7 119.3 146.8Q118.8 148.0 117.8 148.6Q116.9 149.2 115.7 149.2L115.7 149.2Q114.7 149.2 114.2 148.9Q113.6 148.6 113.3 148.2Q113.0 147.8 112.8 147.5L112.8 147.5L112.7 147.5L112.7 152.7ZM115.4 147.8L115.4 147.8Q116.3 147.8 117.0 147.3Q117.6 146.8 117.9 146.0Q118.2 145.1 118.2 144.1L118.2 144.1Q118.2 143.1 117.9 142.3Q117.6 141.4 117.0 140.9Q116.4 140.5 115.4 140.5L115.4 140.5Q114.5 140.5 113.9 140.9Q113.3 141.4 113.0 142.2Q112.7 143.0 112.7 144.1L112.7 144.1Q112.7 145.2 113.0 146.0Q113.3 146.9 113.9 147.3Q114.5 147.8 115.4 147.8ZM125.5 149.1L125.5 149.1Q124.5 149.1 123.7 148.7Q123.0 148.3 122.5 147.5Q122.1 146.7 122.1 145.4L122.1 145.4L122.1 139.2L123.7 139.2L123.7 145.3Q123.7 146.4 124.3 147.1Q124.9 147.7 125.9 147.7L125.9 147.7Q126.6 147.7 127.2 147.4Q127.7 147.1 128.1 146.5Q128.4 145.9 128.4 145.1L128.4 145.1L128.4 139.2L130.0 139.2L130.0 149L128.5 149L128.5 147.2Q128.0 148.1 127.4 148.6L127.4 148.6Q126.5 149.1 125.5 149.1ZM134.6 139.2L136.6 139.2L136.6 140.5L134.6 140.5L134.6 146.5Q134.6 147.1 134.9 147.4Q135.1 147.7 135.8 147.7L135.8 147.7Q135.9 147.7 136.2 147.7Q136.4 147.6 136.6 147.6L136.6 147.6L136.9 148.9Q136.7 149.0 136.3 149.1Q136.0 149.1 135.7 149.1L135.7 149.1Q134.5 149.1 133.7 148.5Q133.0 147.8 133.0 146.6L133.0 146.6L133.0 140.5L131.5 140.5L131.5 139.2L133.0 139.2L133.0 136.8L134.6 136.8L134.6 139.2ZM142.8 149.2L142.8 149.2Q141.4 149.2 140.3 148.6Q139.3 147.9 138.7 146.8Q138.2 145.7 138.2 144.2Q138.2 142.7 138.7 141.5Q139.3 140.4 140.3 139.7Q141.3 139.1 142.6 139.1L142.6 139.1Q143.4 139.1 144.1 139.3Q144.9 139.6 145.5 140.1Q146.1 140.7 146.5 141.7Q146.9 142.6 146.9 144.0L146.9 144.0L146.9 144.6L139.8 144.6Q139.8 145.6 140.2 146.3L140.2 146.3Q140.5 147.0 141.2 147.4Q141.9 147.8 142.8 147.8L142.8 147.8Q143.4 147.8 143.8 147.6Q144.3 147.5 144.7 147.1Q145.0 146.8 145.2 146.3L145.2 146.3L146.7 146.7Q146.5 147.5 145.9 148.0Q145.4 148.6 144.6 148.9Q143.8 149.2 142.8 149.2ZM139.8 143.3L139.8 143.3L145.3 143.3Q145.2 142.6 145.0 142.1L145.0 142.1Q144.7 141.3 144.1 140.9Q143.5 140.5 142.6 140.5Q141.7 140.5 141.1 140.9Q140.4 141.3 140.1 142.0L140.1 142.0Q139.8 142.6 139.8 143.3ZM150.7 149L149.1 149L149.1 139.2L150.7 139.2L150.7 140.7L150.8 140.7Q151.1 139.9 151.8 139.5Q152.5 139.0 153.3 139.0L153.3 139.0Q153.5 139.0 153.7 139.0Q154.0 139.1 154.1 139.1L154.1 139.1L154.1 140.7Q154.1 140.6 153.8 140.6Q153.5 140.6 153.2 140.6L153.2 140.6Q152.5 140.6 151.9 140.9Q151.4 141.2 151.0 141.7Q150.7 142.2 150.7 142.8L150.7 142.8L150.7 149Z M166.8 149L164.9 149L160.1 135.9L161.8 135.9L164.6 143.7Q164.8 144.3 165.2 145.5L165.2 145.5Q165.5 146.4 165.8 147.6L165.8 147.6Q166.2 146.3 166.5 145.4L166.5 145.4Q166.9 144.3 167.1 143.7L167.1 143.7L169.8 135.9L171.6 135.9L166.8 149ZM175.0 149L173.4 149L173.4 139.2L175.0 139.2L175.0 149ZM174.2 137.6L174.2 137.6Q173.8 137.6 173.4 137.3Q173.1 137.0 173.1 136.5L173.1 136.5Q173.1 136.1 173.4 135.8Q173.8 135.5 174.2 135.5L174.2 135.5Q174.7 135.5 175.0 135.8Q175.3 136.1 175.3 136.5L175.3 136.5Q175.3 137.0 175.0 137.3Q174.7 137.6 174.2 137.6ZM181.1 149.2L181.1 149.2Q180.1 149.2 179.3 148.9Q178.5 148.6 178.0 148.0Q177.5 147.5 177.3 146.6L177.3 146.6L178.8 146.3Q179.0 147.1 179.6 147.4Q180.2 147.8 181.1 147.8L181.1 147.8Q182.1 147.8 182.7 147.4Q183.3 146.9 183.3 146.3L183.3 146.3Q183.3 145.8 183.0 145.5Q182.6 145.2 181.9 145.0L181.9 145.0L180.3 144.6Q178.9 144.3 178.3 143.6Q177.6 143.0 177.6 141.9L177.6 141.9Q177.6 141.1 178.1 140.4Q178.6 139.8 179.4 139.4Q180.2 139.1 181.3 139.1L181.3 139.1Q182.3 139.1 183.0 139.4Q183.7 139.7 184.1 140.2Q184.6 140.7 184.8 141.4L184.8 141.4L183.4 141.8Q183.2 141.3 182.7 140.8Q182.2 140.4 181.3 140.4L181.3 140.4Q180.4 140.4 179.8 140.8Q179.2 141.2 179.2 141.8L179.2 141.8Q179.2 142.4 179.6 142.7Q180.0 143.0 180.9 143.2L180.9 143.2L182.4 143.6Q183.7 143.9 184.3 144.6Q185.0 145.2 185.0 146.2L185.0 146.2Q185.0 147.1 184.5 147.8Q184.0 148.4 183.1 148.8Q182.3 149.2 181.1 149.2ZM188.8 149L187.3 149L187.3 139.2L188.8 139.2L188.8 149ZM188.1 137.6L188.1 137.6Q187.6 137.6 187.3 137.3Q187.0 137.0 187.0 136.5L187.0 136.5Q187.0 136.1 187.3 135.8Q187.6 135.5 188.1 135.5L188.1 135.5Q188.5 135.5 188.8 135.8Q189.2 136.1 189.2 136.5L189.2 136.5Q189.2 137.0 188.8 137.3Q188.5 137.6 188.1 137.6ZM195.6 149.2L195.6 149.2Q194.3 149.2 193.3 148.6Q192.3 147.9 191.7 146.8Q191.1 145.7 191.1 144.1L191.1 144.1Q191.1 142.6 191.7 141.5Q192.3 140.3 193.3 139.7Q194.3 139.1 195.6 139.1L195.6 139.1Q197.0 139.1 198.0 139.7Q199.0 140.3 199.6 141.5Q200.1 142.6 200.1 144.1L200.1 144.1Q200.1 145.7 199.6 146.8Q199.0 147.9 198.0 148.6Q197.0 149.2 195.6 149.2ZM195.6 147.8L195.6 147.8Q196.6 147.8 197.3 147.3Q197.9 146.8 198.2 145.9Q198.5 145.1 198.5 144.1L198.5 144.1Q198.5 143.2 198.2 142.3Q197.9 141.5 197.3 141.0Q196.6 140.5 195.6 140.5L195.6 140.5Q194.6 140.5 194.0 141.0Q193.4 141.5 193.1 142.3Q192.8 143.2 192.8 144.1L192.8 144.1Q192.8 145.1 193.1 145.9Q193.4 146.8 194.0 147.3Q194.6 147.8 195.6 147.8ZM204.0 143.1L204.0 143.1L204.0 149L202.4 149L202.4 139.2L203.9 139.2L203.9 141.0Q204.4 140.1 205.0 139.6L205.0 139.6Q205.8 139.1 207.0 139.1L207.0 139.1Q207.9 139.1 208.7 139.5Q209.4 139.9 209.9 140.7Q210.3 141.5 210.3 142.8L210.3 142.8L210.3 149L208.7 149L208.7 142.9Q208.7 141.8 208.1 141.1Q207.5 140.5 206.5 140.5L206.5 140.5Q205.8 140.5 205.2 140.8Q204.6 141.1 204.3 141.7Q204.0 142.3 204.0 143.1Z M219.0 131.7L220.4 131.7L220.4 153.2L219.0 153.2L219.0 131.7Z M230.9 149L229.4 149L229.4 135.9L231.7 135.9L235.0 144.2Q235.1 144.5 235.2 144.9Q235.4 145.3 235.5 145.8Q235.7 146.3 235.8 146.8L235.8 146.8Q235.9 147.0 235.9 147.2L235.9 147.2Q236.0 147.0 236.0 146.9L236.0 146.9Q236.1 146.4 236.3 145.9Q236.5 145.4 236.6 144.9Q236.8 144.5 236.9 144.2L236.9 144.2L240.1 135.9L242.5 135.9L242.5 149L240.8 149L240.8 141.5Q240.8 141.1 240.8 140.6Q240.8 140.1 240.8 139.5Q240.8 138.9 240.9 138.3L240.9 138.3Q240.9 138.0 240.9 137.7L240.9 137.7Q240.8 138.1 240.6 138.4L240.6 138.4Q240.4 139.1 240.2 139.7Q240.0 140.2 239.8 140.7Q239.7 141.2 239.5 141.5L239.5 141.5L236.6 149L235.2 149L232.2 141.5Q232.1 141.2 231.9 140.7Q231.7 140.3 231.5 139.7Q231.3 139.1 231.1 138.5L231.1 138.5Q231.0 138.1 230.9 137.7L230.9 137.7Q230.9 138.0 230.9 138.3L230.9 138.3Q230.9 138.8 230.9 139.4Q230.9 140.0 230.9 140.5Q230.9 141.1 230.9 141.5L230.9 141.5L230.9 149ZM253.3 149L245.6 149L245.6 135.9L247.3 135.9L247.3 147.5L253.3 147.5L253.3 149Z M261.6 131.7L263.0 131.7L263.0 153.2L261.6 153.2L261.6 131.7Z M276.1 149.2L276.1 149.2Q274.7 149.2 273.6 148.8Q272.6 148.3 272.0 147.5Q271.4 146.7 271.3 145.6L271.3 145.6L273.1 145.6Q273.1 146.3 273.6 146.8Q274.0 147.3 274.7 147.5Q275.3 147.7 276.1 147.7L276.1 147.7Q277.0 147.7 277.7 147.4Q278.4 147.2 278.8 146.6Q279.2 146.1 279.2 145.4L279.2 145.4Q279.2 144.8 278.9 144.4Q278.5 144.0 277.9 143.7Q277.3 143.5 276.6 143.3L276.6 143.3L275.0 142.8Q273.5 142.4 272.6 141.5Q271.7 140.7 271.7 139.4L271.7 139.4Q271.7 138.3 272.3 137.5Q272.9 136.6 273.9 136.2Q274.9 135.7 276.2 135.7L276.2 135.7Q277.5 135.7 278.5 136.2Q279.5 136.6 280.1 137.4Q280.6 138.2 280.7 139.2L280.7 139.2L279.0 139.2Q278.9 138.3 278.1 137.7Q277.3 137.2 276.2 137.2L276.2 137.2Q275.3 137.2 274.7 137.5Q274.0 137.8 273.7 138.2Q273.3 138.7 273.3 139.3L273.3 139.3Q273.3 140.0 273.8 140.4Q274.2 140.9 274.8 141.1Q275.4 141.3 275.8 141.5L275.8 141.5L277.1 141.8Q277.7 142.0 278.3 142.2Q278.9 142.4 279.5 142.9Q280.1 143.3 280.5 143.9Q280.8 144.5 280.8 145.4L280.8 145.4Q280.8 146.5 280.3 147.4Q279.7 148.2 278.7 148.7Q277.6 149.2 276.1 149.2ZM283.1 152.6L283.1 152.6L283.5 151.2L283.7 151.2Q284.2 151.4 284.5 151.3Q284.9 151.2 285.3 150.9Q285.6 150.6 285.8 149.9L285.8 149.9L286.1 149.1L282.3 139.2L284.1 139.2L286.2 145.0Q286.5 145.9 286.7 146.8L286.7 146.8Q286.8 147.2 286.9 147.5L286.9 147.5Q287.0 147.2 287.1 146.8L287.1 146.8Q287.4 145.9 287.7 145.0L287.7 145.0L289.8 139.2L291.5 139.2L287.2 150.5Q286.9 151.3 286.5 151.8Q286.1 152.3 285.5 152.5Q285.0 152.7 284.3 152.7L284.3 152.7Q283.8 152.7 283.5 152.7Q283.2 152.6 283.1 152.6ZM296.7 149.2L296.7 149.2Q295.7 149.2 294.9 148.9Q294.1 148.6 293.6 148.0Q293.1 147.5 292.9 146.6L292.9 146.6L294.4 146.3Q294.6 147.1 295.2 147.4Q295.8 147.8 296.7 147.8L296.7 147.8Q297.7 147.8 298.3 147.4Q298.9 146.9 298.9 146.3L298.9 146.3Q298.9 145.8 298.6 145.5Q298.2 145.2 297.5 145.0L297.5 145.0L295.9 144.6Q294.5 144.3 293.9 143.6Q293.2 143.0 293.2 141.9L293.2 141.9Q293.2 141.1 293.7 140.4Q294.2 139.8 295.0 139.4Q295.8 139.1 296.9 139.1L296.9 139.1Q297.9 139.1 298.6 139.4Q299.3 139.7 299.7 140.2Q300.2 140.7 300.4 141.4L300.4 141.4L299.0 141.8Q298.8 141.3 298.3 140.8Q297.8 140.4 296.9 140.4L296.9 140.4Q296.0 140.4 295.4 140.8Q294.8 141.2 294.8 141.8L294.8 141.8Q294.8 142.4 295.2 142.7Q295.6 143.0 296.5 143.2L296.5 143.2L298.0 143.6Q299.3 143.9 299.9 144.6Q300.6 145.2 300.6 146.2L300.6 146.2Q300.6 147.1 300.1 147.8Q299.6 148.4 298.7 148.8Q297.9 149.2 296.7 149.2ZM304.7 139.2L306.7 139.2L306.7 140.5L304.7 140.5L304.7 146.5Q304.7 147.1 305.0 147.4Q305.3 147.7 305.9 147.7L305.9 147.7Q306.0 147.7 306.3 147.7Q306.5 147.6 306.7 147.6L306.7 147.6L307.0 148.9Q306.8 149.0 306.5 149.1Q306.1 149.1 305.8 149.1L305.8 149.1Q304.6 149.1 303.9 148.5Q303.1 147.8 303.1 146.6L303.1 146.6L303.1 140.5L301.7 140.5L301.7 139.2L303.1 139.2L303.1 136.8L304.7 136.8L304.7 139.2ZM312.9 149.2L312.9 149.2Q311.5 149.2 310.4 148.6Q309.4 147.9 308.8 146.8Q308.3 145.7 308.3 144.2Q308.3 142.7 308.8 141.5Q309.4 140.4 310.4 139.7Q311.4 139.1 312.7 139.1L312.7 139.1Q313.5 139.1 314.3 139.3Q315.0 139.6 315.6 140.1Q316.3 140.7 316.6 141.7Q317.0 142.6 317.0 144.0L317.0 144.0L317.0 144.6L309.9 144.6Q309.9 145.6 310.3 146.3L310.3 146.3Q310.6 147.0 311.3 147.4Q312.0 147.8 312.9 147.8L312.9 147.8Q313.5 147.8 314.0 147.6Q314.4 147.5 314.8 147.1Q315.1 146.8 315.3 146.3L315.3 146.3L316.8 146.7Q316.6 147.5 316.1 148.0Q315.5 148.6 314.7 148.9Q313.9 149.2 312.9 149.2ZM309.9 143.3L309.9 143.3L315.4 143.3Q315.3 142.6 315.1 142.1L315.1 142.1Q314.8 141.3 314.2 140.9Q313.6 140.5 312.7 140.5Q311.8 140.5 311.2 140.9Q310.6 141.3 310.2 142.0L310.2 142.0Q309.9 142.6 309.9 143.3ZM320.8 149L319.3 149L319.3 139.2L320.8 139.2L320.8 141.0Q321.0 140.4 321.3 140.0L321.3 140.0Q321.8 139.5 322.3 139.3Q322.9 139.0 323.6 139.0L323.6 139.0Q324.6 139.0 325.3 139.7L325.3 139.7Q325.8 140.2 326.1 141.0L326.1 141.0Q326.2 140.5 326.6 140.1L326.6 140.1Q327.0 139.6 327.7 139.3Q328.4 139.0 329.2 139.0L329.2 139.0Q330.0 139.0 330.7 139.4Q331.4 139.7 331.8 140.5Q332.2 141.2 332.2 142.4L332.2 142.4L332.2 149L330.7 149L330.7 142.4Q330.7 141.4 330.1 140.9Q329.5 140.4 328.7 140.4L328.7 140.4Q328.0 140.4 327.5 140.7Q327.1 141.0 326.8 141.5Q326.5 142.0 326.5 142.6L326.5 142.6L326.5 149L325.0 149L325.0 142.3Q325.0 141.4 324.4 140.9Q323.9 140.4 323.0 140.4L323.0 140.4Q322.5 140.4 322.0 140.7Q321.5 141.0 321.1 141.5Q320.8 142.0 320.8 142.8L320.8 142.8L320.8 149ZM338.4 149.2L338.4 149.2Q337.4 149.2 336.6 148.9Q335.8 148.6 335.3 148.0Q334.8 147.5 334.6 146.6L334.6 146.6L336.1 146.3Q336.3 147.1 336.9 147.4Q337.5 147.8 338.3 147.8L338.3 147.8Q339.4 147.8 340.0 147.4Q340.6 146.9 340.6 146.3L340.6 146.3Q340.6 145.8 340.2 145.5Q339.9 145.2 339.2 145.0L339.2 145.0L337.5 144.6Q336.2 144.3 335.5 143.6Q334.9 143.0 334.9 141.9L334.9 141.9Q334.9 141.1 335.4 140.4Q335.8 139.8 336.7 139.4Q337.5 139.1 338.5 139.1L338.5 139.1Q339.5 139.1 340.2 139.4Q340.9 139.7 341.4 140.2Q341.8 140.7 342.1 141.4L342.1 141.4L340.6 141.8Q340.4 141.3 340.0 140.8Q339.5 140.4 338.5 140.4L338.5 140.4Q337.7 140.4 337.1 140.8Q336.5 141.2 336.5 141.8L336.5 141.8Q336.5 142.4 336.9 142.7Q337.3 143.0 338.1 143.2L338.1 143.2L339.6 143.6Q341.0 143.9 341.6 144.6Q342.2 145.2 342.2 146.2L342.2 146.2Q342.2 147.1 341.8 147.8Q341.3 148.4 340.4 148.8Q339.5 149.2 338.4 149.2Z "/></g><mask id="satori_om-id-0-1-2"><rect x="70" y="164" width="301" height="17" fill="#fff" mask="url(#satori_om-id-0)"/></mask><g mask="url(#satori_om-id-0)" clip-path="url(#satori_cp-id-0)"><path fill="#cbd5f5" d="M72.5 178L71.2 178L71.2 167.8L74.7 167.8Q75.9 167.8 76.7 168.2Q77.4 168.6 77.8 169.3Q78.2 170.0 78.2 171.0Q78.2 171.9 77.8 172.6Q77.4 173.3 76.7 173.7L76.7 173.7Q76.5 173.7 76.3 173.8L76.3 173.8L78.6 178L77.1 178L75.0 174.0Q74.8 174.0 74.7 174.0L74.7 174.0L72.5 174.0L72.5 178ZM72.5 169.0L72.5 172.9L74.7 172.9Q75.5 172.9 76.0 172.7Q76.4 172.4 76.7 172.0Q76.9 171.6 76.9 171.0L76.9 171.0Q76.9 170.4 76.7 169.9Q76.4 169.5 76.0 169.2Q75.5 169.0 74.6 169.0L74.6 169.0L72.5 169.0ZM83.3 178.2L83.3 178.2Q82.2 178.2 81.4 177.7Q80.6 177.2 80.2 176.3Q79.7 175.4 79.7 174.2Q79.7 173.1 80.1 172.2Q80.6 171.3 81.3 170.8Q82.1 170.3 83.2 170.3L83.2 170.3Q83.8 170.3 84.4 170.5Q85.0 170.7 85.4 171.1Q85.9 171.6 86.2 172.3Q86.5 173.0 86.5 174.1L86.5 174.1L86.5 174.6L81.0 174.6Q81.0 175.3 81.3 175.9L81.3 175.9Q81.6 176.5 82.1 176.8Q82.6 177.1 83.3 177.1L83.3 177.1Q83.8 177.1 84.1 176.9Q84.5 176.8 84.8 176.5Q85.0 176.3 85.2 175.9L85.2 175.9L86.4 176.2Q86.2 176.8 85.8 177.2Q85.3 177.7 84.7 177.9Q84.1 178.2 83.3 178.2ZM81.0 173.6L81.0 173.6L85.2 173.6Q85.2 173.0 85.0 172.6L85.0 172.6Q84.8 172.0 84.3 171.7Q83.8 171.4 83.2 171.4Q82.5 171.4 82.0 171.7Q81.5 172.0 81.2 172.6L81.2 172.6Q81.0 173.0 81.0 173.6ZM90.8 178.2L90.8 178.2Q90.1 178.2 89.5 177.9Q88.8 177.7 88.4 177.3Q88.0 176.8 87.9 176.1L87.9 176.1L89.1 175.9Q89.2 176.5 89.7 176.8Q90.2 177.1 90.8 177.1L90.8 177.1Q91.6 177.1 92.1 176.7Q92.6 176.4 92.6 175.9L92.6 175.9Q92.6 175.5 92.3 175.3Q92.0 175.0 91.5 174.9L91.5 174.9L90.2 174.6Q89.2 174.3 88.6 173.8Q88.1 173.3 88.1 172.5L88.1 172.5Q88.1 171.8 88.5 171.3Q88.9 170.8 89.5 170.5Q90.2 170.3 91.0 170.3L91.0 170.3Q91.8 170.3 92.3 170.5Q92.9 170.7 93.2 171.1Q93.5 171.6 93.7 172.1L93.7 172.1L92.6 172.4Q92.4 172.0 92.1 171.6Q91.7 171.3 91.0 171.3L91.0 171.3Q90.3 171.3 89.8 171.6Q89.4 171.9 89.4 172.4L89.4 172.4Q89.4 172.8 89.7 173.1Q90.0 173.4 90.7 173.5L90.7 173.5L91.8 173.8Q92.9 174.0 93.4 174.5Q93.9 175.1 93.9 175.8L93.9 175.8Q93.9 176.5 93.5 177.0Q93.1 177.6 92.4 177.9Q91.7 178.2 90.8 178.2ZM98.9 178.2L98.9 178.2Q97.7 178.2 96.9 177.7Q96.1 177.2 95.7 176.3Q95.3 175.4 95.3 174.2Q95.3 173.1 95.7 172.2Q96.1 171.3 96.9 170.8Q97.7 170.3 98.7 170.3L98.7 170.3Q99.3 170.3 99.9 170.5Q100.5 170.7 101.0 171.1Q101.5 171.6 101.8 172.3Q102.0 173.0 102.0 174.1L102.0 174.1L102.0 174.6L96.5 174.6Q96.5 175.3 96.8 175.9L96.8 175.9Q97.1 176.5 97.6 176.8Q98.2 177.1 98.9 177.1L98.9 177.1Q99.3 177.1 99.7 176.9Q100.1 176.8 100.3 176.5Q100.6 176.3 100.7 175.9L100.7 175.9L101.9 176.2Q101.7 176.8 101.3 177.2Q100.9 177.7 100.3 177.9Q99.6 178.2 98.9 178.2ZM96.5 173.6L96.5 173.6L100.8 173.6Q100.7 173.0 100.6 172.6L100.6 172.6Q100.3 172.0 99.9 171.7Q99.4 171.4 98.7 171.4Q98.0 171.4 97.5 171.7Q97.0 172.0 96.8 172.6L96.8 172.6Q96.6 173.0 96.5 173.6ZM105.9 178.2L105.9 178.2Q105.2 178.2 104.6 177.9Q104.0 177.6 103.7 177.1Q103.3 176.6 103.3 175.8L103.3 175.8Q103.3 175.2 103.6 174.8Q103.9 174.3 104.3 174.1Q104.7 173.9 105.3 173.8Q105.8 173.6 106.3 173.6L106.3 173.6Q107.0 173.5 107.4 173.4Q107.9 173.4 108.1 173.3Q108.3 173.2 108.3 172.9L108.3 172.9L108.3 172.8Q108.3 172.4 108.1 172.0Q107.9 171.7 107.6 171.5Q107.2 171.3 106.7 171.3L106.7 171.3Q106.1 171.3 105.7 171.5Q105.3 171.7 105.1 171.9Q104.9 172.2 104.7 172.5L104.7 172.5L103.6 172.1Q103.9 171.4 104.4 171.0Q104.8 170.6 105.5 170.4Q106.1 170.3 106.6 170.3L106.6 170.3Q107.0 170.3 107.5 170.4Q108.0 170.4 108.5 170.7Q108.9 171.0 109.2 171.5Q109.5 172.1 109.5 173.0L109.5 173.0L109.5 178L108.3 178L108.3 177.0L108.2 177.0Q108.1 177.2 107.8 177.5Q107.5 177.8 107.1 178.0Q106.6 178.2 105.9 178.2ZM106.2 177.1L106.2 177.1Q106.8 177.1 107.3 176.8Q107.8 176.6 108.0 176.1Q108.3 175.7 108.3 175.2L108.3 175.2L108.3 174.2Q108.2 174.3 107.9 174.3Q107.7 174.4 107.4 174.5Q107.0 174.5 106.7 174.6Q106.4 174.6 106.3 174.6L106.3 174.6Q105.8 174.7 105.4 174.8Q105.0 174.9 104.8 175.2Q104.6 175.5 104.6 175.9L104.6 175.9Q104.6 176.3 104.8 176.6Q105.0 176.8 105.3 177.0Q105.7 177.1 106.2 177.1ZM112.9 178L111.7 178L111.7 170.4L112.9 170.4L112.9 171.5L112.9 171.5Q113.1 171.0 113.7 170.6Q114.2 170.2 114.9 170.2L114.9 170.2Q115.1 170.2 115.2 170.3Q115.4 170.3 115.5 170.3L115.5 170.3L115.5 171.5Q115.5 171.5 115.3 171.5Q115.0 171.4 114.8 171.4L114.8 171.4Q114.3 171.4 113.8 171.7Q113.4 171.9 113.1 172.3Q112.9 172.7 112.9 173.2L112.9 173.2L112.9 178ZM120.0 178.2L120.0 178.2Q119.0 178.2 118.2 177.7Q117.4 177.2 117.0 176.3Q116.6 175.4 116.6 174.2L116.6 174.2Q116.6 173.0 117.0 172.1Q117.4 171.2 118.2 170.8Q119.0 170.3 120.0 170.3L120.0 170.3Q120.6 170.3 121.1 170.4Q121.6 170.5 122.0 170.8Q122.4 171.1 122.7 171.5Q123.0 171.9 123.1 172.4L123.1 172.4L122.0 172.7Q121.9 172.4 121.7 172.2Q121.5 171.9 121.3 171.7Q121.1 171.6 120.7 171.5Q120.4 171.4 120.0 171.4L120.0 171.4Q119.3 171.4 118.8 171.8Q118.3 172.2 118.1 172.8Q117.8 173.5 117.8 174.2L117.8 174.2Q117.8 175.0 118.1 175.6Q118.3 176.3 118.8 176.7Q119.3 177.1 120.0 177.1L120.0 177.1Q120.4 177.1 120.8 177.0Q121.1 176.9 121.3 176.7Q121.6 176.5 121.7 176.2Q121.9 176.0 122.0 175.7L122.0 175.7L123.2 176.0Q123.0 176.5 122.7 176.9Q122.4 177.3 122.0 177.6Q121.6 177.9 121.1 178.0Q120.6 178.2 120.0 178.2ZM126.2 173.4L126.2 173.4L126.2 178L124.9 178L124.9 167.8L126.2 167.8L126.2 171.7Q126.5 171.0 127.0 170.7L127.0 170.7Q127.6 170.3 128.5 170.3L128.5 170.3Q129.2 170.3 129.8 170.6Q130.4 170.9 130.7 171.5Q131.1 172.2 131.1 173.1L131.1 173.1L131.1 178L129.8 178L129.8 173.2Q129.8 172.4 129.4 171.9Q128.9 171.4 128.1 171.4L128.1 171.4Q127.5 171.4 127.1 171.6Q126.7 171.8 126.4 172.3Q126.2 172.8 126.2 173.4Z M139.3 178.2L139.3 178.2Q138.6 178.2 138.0 177.9Q137.4 177.6 137.0 177.1Q136.7 176.6 136.7 175.8L136.7 175.8Q136.7 175.2 136.9 174.8Q137.2 174.3 137.6 174.1Q138.1 173.9 138.6 173.8Q139.1 173.6 139.7 173.6L139.7 173.6Q140.3 173.5 140.8 173.4Q141.2 173.4 141.4 173.3Q141.6 173.2 141.6 172.9L141.6 172.9L141.6 172.8Q141.6 172.4 141.4 172.0Q141.3 171.7 140.9 171.5Q140.6 171.3 140.0 171.3L140.0 171.3Q139.5 171.3 139.1 171.5Q138.7 171.7 138.5 171.9Q138.2 172.2 138.1 172.5L138.1 172.5L136.9 172.1Q137.2 171.4 137.7 171.0Q138.2 170.6 138.8 170.4Q139.4 170.3 140.0 170.3L140.0 170.3Q140.4 170.3 140.9 170.4Q141.3 170.4 141.8 170.7Q142.3 171.0 142.6 171.5Q142.9 172.1 142.9 173.0L142.9 173.0L142.9 178L141.6 178L141.6 177.0L141.6 177.0Q141.4 177.2 141.1 177.5Q140.9 177.8 140.4 178.0Q139.9 178.2 139.3 178.2ZM139.5 177.1L139.5 177.1Q140.2 177.1 140.7 176.8Q141.1 176.6 141.4 176.1Q141.6 175.7 141.6 175.2L141.6 175.2L141.6 174.2Q141.5 174.3 141.3 174.3Q141.0 174.4 140.7 174.5Q140.4 174.5 140.1 174.6Q139.8 174.6 139.6 174.6L139.6 174.6Q139.2 174.7 138.8 174.8Q138.4 174.9 138.2 175.2Q137.9 175.5 137.9 175.9L137.9 175.9Q137.9 176.3 138.1 176.6Q138.3 176.8 138.7 177.0Q139.0 177.1 139.5 177.1ZM146.4 170.4L148.0 170.4L148.0 171.4L146.4 171.4L146.4 176.0Q146.4 176.5 146.7 176.8Q146.9 177.0 147.3 177.0L147.3 177.0Q147.5 177.0 147.6 177.0Q147.8 176.9 148.0 176.9L148.0 176.9L148.2 178.0Q148.0 178.0 147.8 178.1Q147.6 178.1 147.3 178.1L147.3 178.1Q146.3 178.1 145.8 177.6Q145.2 177.0 145.2 176.1L145.2 176.1L145.2 171.4L144.1 171.4L144.1 170.4L145.2 170.4L145.2 168.5L146.4 168.5L146.4 170.4Z M157.8 178.1L157.8 178.1Q156.5 178.1 155.5 177.5Q154.5 176.9 153.9 175.7Q153.3 174.5 153.3 172.9L153.3 172.9Q153.3 171.3 153.9 170.1Q154.5 168.9 155.5 168.3Q156.5 167.7 157.8 167.7L157.8 167.7Q158.6 167.7 159.3 167.9Q159.9 168.1 160.5 168.6Q161.0 169.0 161.4 169.6Q161.8 170.2 161.9 171.0L161.9 171.0L160.6 171.0Q160.5 170.5 160.2 170.1Q160.0 169.7 159.6 169.4Q159.2 169.2 158.8 169.0Q158.3 168.9 157.8 168.9L157.8 168.9Q156.9 168.9 156.1 169.3Q155.4 169.8 155.0 170.7Q154.5 171.6 154.5 172.9L154.5 172.9Q154.5 174.2 155.0 175.1Q155.4 176.0 156.2 176.5Q156.9 176.9 157.8 176.9L157.8 176.9Q158.3 176.9 158.8 176.8Q159.2 176.7 159.6 176.4Q160.0 176.1 160.2 175.7Q160.5 175.3 160.6 174.8L160.6 174.8L161.9 174.8Q161.8 175.6 161.4 176.2Q161.0 176.8 160.5 177.2Q160.0 177.7 159.3 177.9Q158.6 178.1 157.8 178.1ZM168.3 178L166.8 178L163.0 167.8L164.4 167.8L166.6 173.9Q166.7 174.4 167.0 175.2L167.0 175.2Q167.2 176.0 167.5 176.9L167.5 176.9Q167.8 175.9 168.0 175.2L168.0 175.2Q168.3 174.4 168.5 173.9L168.5 173.9L170.6 167.8L172.0 167.8L168.3 178ZM173.6 167.8L174.9 167.8L174.9 178L173.6 178L173.6 167.8ZM181.5 178.1L181.5 178.1Q180.1 178.1 179.1 177.5Q178.1 176.9 177.5 175.7Q176.9 174.5 176.9 172.9L176.9 172.9Q176.9 171.3 177.5 170.1Q178.1 168.9 179.1 168.3Q180.1 167.7 181.4 167.7L181.4 167.7Q182.2 167.7 182.9 167.9Q183.6 168.2 184.2 168.6Q184.7 169.0 185.1 169.7Q185.5 170.3 185.6 171.0L185.6 171.0L184.2 171.0Q184.1 170.5 183.8 170.1Q183.6 169.7 183.2 169.5Q182.9 169.2 182.4 169.0Q182.0 168.9 181.4 168.9L181.4 168.9Q180.5 168.9 179.8 169.3Q179.1 169.8 178.6 170.7Q178.2 171.6 178.2 172.9L178.2 172.9Q178.2 174.2 178.6 175.1Q179.1 176.0 179.8 176.5Q180.6 176.9 181.5 176.9L181.5 176.9Q182.3 176.9 183.0 176.6Q183.7 176.2 184.0 175.5L184.0 175.5Q184.4 174.9 184.4 174.0L184.4 174.0L181.8 174.0L181.8 172.9L185.7 172.9L185.7 174.0Q185.7 175.3 185.1 176.2Q184.6 177.1 183.6 177.6Q182.7 178.1 181.5 178.1Z M197.7 178L191.7 178L191.7 167.8L193.0 167.8L193.0 176.9L197.7 176.9L197.7 178ZM201.6 178.2L201.6 178.2Q200.9 178.2 200.3 177.9Q199.7 177.6 199.4 177.1Q199.0 176.6 199.0 175.8L199.0 175.8Q199.0 175.2 199.3 174.8Q199.5 174.3 200.0 174.1Q200.4 173.9 200.9 173.8Q201.4 173.6 202.0 173.6L202.0 173.6Q202.7 173.5 203.1 173.4Q203.5 173.4 203.7 173.3Q203.9 173.2 203.9 172.9L203.9 172.9L203.9 172.8Q203.9 172.4 203.8 172.0Q203.6 171.7 203.2 171.5Q202.9 171.3 202.3 171.3L202.3 171.3Q201.8 171.3 201.4 171.5Q201.0 171.7 200.8 171.9Q200.5 172.2 200.4 172.5L200.4 172.5L199.2 172.1Q199.5 171.4 200.0 171.0Q200.5 170.6 201.1 170.4Q201.7 170.3 202.3 170.3L202.3 170.3Q202.7 170.3 203.2 170.4Q203.7 170.4 204.1 170.7Q204.6 171.0 204.9 171.5Q205.2 172.1 205.2 173.0L205.2 173.0L205.2 178L204.0 178L204.0 177.0L203.9 177.0Q203.8 177.2 203.5 177.5Q203.2 177.8 202.7 178.0Q202.3 178.2 201.6 178.2ZM201.8 177.1L201.8 177.1Q202.5 177.1 203.0 176.8Q203.5 176.6 203.7 176.1Q203.9 175.7 203.9 175.2L203.9 175.2L203.9 174.2Q203.9 174.3 203.6 174.3Q203.4 174.4 203.0 174.5Q202.7 174.5 202.4 174.6Q202.1 174.6 201.9 174.6L201.9 174.6Q201.5 174.7 201.1 174.8Q200.7 174.9 200.5 175.2Q200.2 175.5 200.2 175.9L200.2 175.9Q200.2 176.3 200.5 176.6Q200.7 176.8 201.0 177.0Q201.4 177.1 201.8 177.1ZM210.9 178.2L210.9 178.2Q210.2 178.2 209.7 177.9Q209.3 177.7 209.0 177.3Q208.8 177.0 208.7 176.8L208.7 176.8L208.5 176.8L208.5 178L207.3 178L207.3 167.8L208.6 167.8L208.6 171.6L208.7 171.6Q208.8 171.4 209.0 171.1Q209.3 170.8 209.7 170.5Q210.1 170.3 210.9 170.3L210.9 170.3Q211.8 170.3 212.6 170.7Q213.3 171.2 213.7 172.1Q214.1 173.0 214.1 174.2L214.1 174.2Q214.1 175.4 213.7 176.3Q213.3 177.2 212.6 177.7Q211.8 178.2 210.9 178.2ZM210.7 177.1L210.7 177.1Q211.4 177.1 211.9 176.7Q212.4 176.3 212.6 175.6Q212.9 175.0 212.9 174.2L212.9 174.2Q212.9 173.4 212.6 172.8Q212.4 172.1 211.9 171.7Q211.4 171.4 210.7 171.4L210.7 171.4Q210.0 171.4 209.5 171.7Q209.0 172.1 208.8 172.7Q208.6 173.3 208.6 174.2L208.6 174.2Q208.6 175.0 208.8 175.7Q209.0 176.3 209.5 176.7Q210.0 177.1 210.7 177.1ZM216.6 180.5L215.7 180.5L216.3 176.6L217.7 176.6L216.6 180.5Z M224.0 167.8L225.3 167.8L225.3 178L224.0 178L224.0 167.8ZM227.8 167.8L229.1 167.8L229.1 178L227.8 178L227.8 167.8ZM234.2 169.0L231.0 169.0L231.0 167.8L238.7 167.8L238.7 169.0L235.5 169.0L235.5 178L234.2 178L234.2 169.0Z M248.7 178.1L248.7 178.1Q247.3 178.1 246.3 177.5Q245.3 176.9 244.7 175.7Q244.1 174.5 244.1 172.9L244.1 172.9Q244.1 171.3 244.7 170.1Q245.3 168.9 246.3 168.3Q247.3 167.7 248.6 167.7L248.6 167.7Q249.4 167.7 250.1 167.9Q250.8 168.2 251.4 168.6Q251.9 169.0 252.3 169.7Q252.6 170.3 252.8 171.0L252.8 171.0L251.4 171.0Q251.3 170.5 251.0 170.1Q250.8 169.7 250.4 169.5Q250.1 169.2 249.6 169.0Q249.1 168.9 248.6 168.9L248.6 168.9Q247.7 168.9 247.0 169.3Q246.3 169.8 245.8 170.7Q245.4 171.6 245.4 172.9L245.4 172.9Q245.4 174.2 245.8 175.1Q246.3 176.0 247.0 176.5Q247.7 176.9 248.7 176.9L248.7 176.9Q249.5 176.9 250.2 176.6Q250.9 176.2 251.2 175.5L251.2 175.5Q251.6 174.9 251.6 174.0L251.6 174.0L249.0 174.0L249.0 172.9L252.9 172.9L252.9 174.0Q252.9 175.3 252.3 176.2Q251.8 177.1 250.8 177.6Q249.9 178.1 248.7 178.1ZM257.0 178.2L257.0 178.2Q256.2 178.2 255.6 177.9Q255.0 177.6 254.7 177.1Q254.4 176.6 254.4 175.8L254.4 175.8Q254.4 175.2 254.6 174.8Q254.9 174.3 255.3 174.1Q255.7 173.9 256.3 173.8Q256.8 173.6 257.3 173.6L257.3 173.6Q258.0 173.5 258.4 173.4Q258.9 173.4 259.1 173.3Q259.3 173.2 259.3 172.9L259.3 172.9L259.3 172.8Q259.3 172.4 259.1 172.0Q258.9 171.7 258.6 171.5Q258.2 171.3 257.7 171.3L257.7 171.3Q257.1 171.3 256.8 171.5Q256.4 171.7 256.1 171.9Q255.9 172.2 255.8 172.5L255.8 172.5L254.6 172.1Q254.9 171.4 255.4 171.0Q255.9 170.6 256.5 170.4Q257.1 170.3 257.7 170.3L257.7 170.3Q258.0 170.3 258.5 170.4Q259.0 170.4 259.5 170.7Q259.9 171.0 260.2 171.5Q260.5 172.1 260.5 173.0L260.5 173.0L260.5 178L259.3 178L259.3 177.0L259.2 177.0Q259.1 177.2 258.8 177.5Q258.5 177.8 258.1 178.0Q257.6 178.2 257.0 178.2ZM257.2 177.1L257.2 177.1Q257.9 177.1 258.3 176.8Q258.8 176.6 259.0 176.1Q259.3 175.7 259.3 175.2L259.3 175.2L259.3 174.2Q259.2 174.3 259.0 174.3Q258.7 174.4 258.4 174.5Q258.1 174.5 257.8 174.6Q257.4 174.6 257.3 174.6L257.3 174.6Q256.8 174.7 256.4 174.8Q256.1 174.9 255.8 175.2Q255.6 175.5 255.6 175.9L255.6 175.9Q255.6 176.3 255.8 176.6Q256.0 176.8 256.4 177.0Q256.7 177.1 257.2 177.1ZM263.9 173.4L263.9 173.4L263.9 178L262.7 178L262.7 170.4L263.9 170.4L263.9 171.8Q264.2 171.1 264.7 170.7L264.7 170.7Q265.3 170.3 266.2 170.3L266.2 170.3Q267.0 170.3 267.6 170.6Q268.1 170.9 268.5 171.5Q268.8 172.2 268.8 173.1L268.8 173.1L268.8 178L267.6 178L267.6 173.2Q267.6 172.4 267.1 171.9Q266.6 171.4 265.8 171.4L265.8 171.4Q265.3 171.4 264.9 171.6Q264.4 171.8 264.2 172.3Q263.9 172.8 263.9 173.4ZM273.8 178.2L273.8 178.2Q272.9 178.2 272.1 177.7Q271.4 177.2 271.0 176.3Q270.6 175.4 270.6 174.2L270.6 174.2Q270.6 173.0 271.0 172.1Q271.4 171.2 272.1 170.7Q272.9 170.3 273.8 170.3L273.8 170.3Q274.6 170.3 275.0 170.5Q275.4 170.8 275.7 171.1Q275.9 171.4 276.0 171.6L276.0 171.6L276.1 171.6L276.1 167.8L277.4 167.8L277.4 178L276.2 178L276.2 176.8L276.0 176.8Q275.9 177.0 275.7 177.3Q275.4 177.7 275.0 177.9Q274.5 178.2 273.8 178.2ZM274.0 177.1L274.0 177.1Q274.7 177.1 275.2 176.7Q275.7 176.3 275.9 175.7Q276.1 175.0 276.1 174.2L276.1 174.2Q276.1 173.3 275.9 172.7Q275.7 172.1 275.2 171.7Q274.7 171.4 274.0 171.4L274.0 171.4Q273.3 171.4 272.8 171.7Q272.3 172.1 272.1 172.8Q271.8 173.4 271.8 174.2L271.8 174.2Q271.8 175.0 272.1 175.6Q272.3 176.3 272.8 176.7Q273.3 177.1 274.0 177.1ZM280.8 173.4L280.8 173.4L280.8 178L279.5 178L279.5 167.8L280.8 167.8L280.8 171.7Q281.1 171.0 281.5 170.7L281.5 170.7Q282.2 170.3 283.0 170.3L283.0 170.3Q283.8 170.3 284.4 170.6Q285.0 170.9 285.3 171.5Q285.6 172.2 285.6 173.1L285.6 173.1L285.6 178L284.4 178L284.4 173.2Q284.4 172.4 283.9 171.9Q283.5 171.4 282.7 171.4L282.7 171.4Q282.1 171.4 281.7 171.6Q281.3 171.8 281.0 172.3Q280.8 172.8 280.8 173.4ZM289.0 178L287.8 178L287.8 170.4L289.0 170.4L289.0 178ZM288.4 169.1L288.4 169.1Q288.1 169.1 287.8 168.9Q287.6 168.6 287.6 168.3L287.6 168.3Q287.6 168.0 287.8 167.7Q288.1 167.5 288.4 167.5L288.4 167.5Q288.8 167.5 289.0 167.7Q289.3 168.0 289.3 168.3L289.3 168.3Q289.3 168.6 289.0 168.9Q288.8 169.1 288.4 169.1ZM292.4 173.4L292.4 173.4L292.4 178L291.2 178L291.2 170.4L292.4 170.4L292.4 171.8Q292.7 171.1 293.2 170.7L293.2 170.7Q293.8 170.3 294.7 170.3L294.7 170.3Q295.5 170.3 296.1 170.6Q296.7 170.9 297.0 171.5Q297.3 172.2 297.3 173.1L297.3 173.1L297.3 178L296.1 178L296.1 173.2Q296.1 172.4 295.6 171.9Q295.1 171.4 294.3 171.4L294.3 171.4Q293.8 171.4 293.4 171.6Q292.9 171.8 292.7 172.3Q292.4 172.8 292.4 173.4ZM301.6 178.2L301.6 178.2Q300.9 178.2 300.3 177.9Q299.7 177.6 299.3 177.1Q299.0 176.6 299.0 175.8L299.0 175.8Q299.0 175.2 299.3 174.8Q299.5 174.3 300.0 174.1Q300.4 173.9 300.9 173.8Q301.4 173.6 302.0 173.6L302.0 173.6Q302.7 173.5 303.1 173.4Q303.5 173.4 303.7 173.3Q303.9 173.2 303.9 172.9L303.9 172.9L303.9 172.8Q303.9 172.4 303.8 172.0Q303.6 171.7 303.2 171.5Q302.9 171.3 302.3 171.3L302.3 171.3Q301.8 171.3 301.4 171.5Q301.0 171.7 300.8 171.9Q300.5 172.2 300.4 172.5L300.4 172.5L299.2 172.1Q299.5 171.4 300.0 171.0Q300.5 170.6 301.1 170.4Q301.7 170.3 302.3 170.3L302.3 170.3Q302.7 170.3 303.2 170.4Q303.7 170.4 304.1 170.7Q304.6 171.0 304.9 171.5Q305.2 172.1 305.2 173.0L305.2 173.0L305.2 178L304.0 178L304.0 177.0L303.9 177.0Q303.7 177.2 303.5 177.5Q303.2 177.8 302.7 178.0Q302.3 178.2 301.6 178.2ZM301.8 177.1L301.8 177.1Q302.5 177.1 303.0 176.8Q303.4 176.6 303.7 176.1Q303.9 175.7 303.9 175.2L303.9 175.2L303.9 174.2Q303.9 174.3 303.6 174.3Q303.4 174.4 303.0 174.5Q302.7 174.5 302.4 174.6Q302.1 174.6 301.9 174.6L301.9 174.6Q301.5 174.7 301.1 174.8Q300.7 174.9 300.5 175.2Q300.2 175.5 300.2 175.9L300.2 175.9Q300.2 176.3 300.4 176.6Q300.6 176.8 301 177.0Q301.4 177.1 301.8 177.1ZM310.4 181.0L310.4 181.0Q309.6 181.0 309.0 180.8Q308.3 180.6 307.9 180.2Q307.5 179.9 307.3 179.5L307.3 179.5L308.3 178.8Q308.4 179.0 308.7 179.3Q308.9 179.6 309.3 179.8Q309.8 179.9 310.4 179.9L310.4 179.9Q311.3 179.9 311.9 179.5Q312.5 179.1 312.5 178.1L312.5 178.1L312.5 176.6L312.4 176.6Q312.3 176.8 312.0 177.1Q311.8 177.4 311.4 177.6Q310.9 177.9 310.2 177.9L310.2 177.9Q309.3 177.9 308.5 177.4Q307.8 177.0 307.4 176.2Q307.0 175.3 307.0 174.1L307.0 174.1Q307.0 173.0 307.4 172.1Q307.8 171.2 308.5 170.7Q309.3 170.3 310.2 170.3L310.2 170.3Q310.9 170.3 311.4 170.5Q311.8 170.7 312.1 171.1Q312.3 171.4 312.4 171.6L312.4 171.6L312.6 171.6L312.6 170.4L313.7 170.4L313.7 178.2Q313.7 179.2 313.3 179.8Q312.9 180.4 312.1 180.7Q311.3 181.0 310.4 181.0ZM310.4 176.8L310.4 176.8Q311.1 176.8 311.6 176.5Q312.0 176.1 312.3 175.5Q312.5 175.0 312.5 174.1L312.5 174.1Q312.5 173.3 312.3 172.7Q312.0 172.1 311.6 171.7Q311.1 171.4 310.4 171.4L310.4 171.4Q309.7 171.4 309.2 171.7Q308.7 172.1 308.4 172.7Q308.2 173.4 308.2 174.1L308.2 174.1Q308.2 174.9 308.5 175.5Q308.7 176.1 309.2 176.4Q309.7 176.8 310.4 176.8ZM318.0 178.2L318.0 178.2Q317.3 178.2 316.7 177.9Q316.1 177.6 315.8 177.1Q315.4 176.6 315.4 175.8L315.4 175.8Q315.4 175.2 315.7 174.8Q316.0 174.3 316.4 174.1Q316.8 173.9 317.4 173.8Q317.9 173.6 318.4 173.6L318.4 173.6Q319.1 173.5 319.5 173.4Q320.0 173.4 320.2 173.3Q320.4 173.2 320.4 172.9L320.4 172.9L320.4 172.8Q320.4 172.4 320.2 172.0Q320.0 171.7 319.7 171.5Q319.3 171.3 318.8 171.3L318.8 171.3Q318.2 171.3 317.8 171.5Q317.5 171.7 317.2 171.9Q317.0 172.2 316.8 172.5L316.8 172.5L315.7 172.1Q316.0 171.4 316.5 171.0Q317.0 170.6 317.6 170.4Q318.2 170.3 318.7 170.3L318.7 170.3Q319.1 170.3 319.6 170.4Q320.1 170.4 320.6 170.7Q321.0 171.0 321.3 171.5Q321.6 172.1 321.6 173.0L321.6 173.0L321.6 178L320.4 178L320.4 177.0L320.3 177.0Q320.2 177.2 319.9 177.5Q319.6 177.8 319.2 178.0Q318.7 178.2 318.0 178.2ZM318.3 177.1L318.3 177.1Q318.9 177.1 319.4 176.8Q319.9 176.6 320.1 176.1Q320.4 175.7 320.4 175.2L320.4 175.2L320.4 174.2Q320.3 174.3 320.1 174.3Q319.8 174.4 319.5 174.5Q319.1 174.5 318.8 174.6Q318.5 174.6 318.4 174.6L318.4 174.6Q317.9 174.7 317.5 174.8Q317.1 174.9 316.9 175.2Q316.7 175.5 316.7 175.9L316.7 175.9Q316.7 176.3 316.9 176.6Q317.1 176.8 317.4 177.0Q317.8 177.1 318.3 177.1ZM325.0 178L323.8 178L323.8 170.4L325.0 170.4L325.0 171.5L325.0 171.5Q325.3 171.0 325.8 170.6Q326.3 170.2 327.0 170.2L327.0 170.2Q327.2 170.2 327.3 170.3Q327.5 170.3 327.6 170.3L327.6 170.3L327.6 171.5Q327.6 171.5 327.4 171.5Q327.2 171.4 326.9 171.4L326.9 171.4Q326.4 171.4 325.9 171.7Q325.5 171.9 325.2 172.3Q325.0 172.7 325.0 173.2L325.0 173.2L325.0 178Z "/></g></svg>