<!-- Generated by readme-aura https://github.com/collectioneur/readme-aura -->
<svg width="900" height="160" viewBox="0 0 900 160" xmlns="http://www.w3.org/2000/svg"><mask id="satori_om-id"><rect x="0" y="0" width="900" height="160" fill="#fff"/></mask><clipPath id="satori_cp-id-0"><path x="0" y="0" width="900" height="160" d="M22,0 h856 a22,22 0 0 1 22,22 v116 a22,22 0 0 1 -22,22 h-856 a22,22 0 0 1 -22,-22 v-116 a22,22 0 0 1 22,-22"/></clipPath><mask id="satori_om-id-0"><rect x="0" y="0" width="900" height="160" fill="#fff"/></mask><path x="0" y="0" width="900" height="160" fill="#0f172a" d="M22,0 h856 a22,22 0 0 1 22,22 v116 a22,22 0 0 1 -22,22 h-856 a22,22 0 0 1 -22,-22 v-116 a22,22 0 0 1 22,-22"/><clipPath id="satori_cp-id-0-0" clip-path="url(#satori_cp-id-0)"><rect x="0" y="0" width="900" height="160"/></clipPath><mask id="satori_om-id-0-0"><rect x="0" y="0" width="900" height="160" fill="#fff" mask="url(#satori_om-id-0)"/></mask><svg x="0" y="0" width="900" height="160" preserveAspectRatio="none" clip-path="url(#satori_cp-id-0-0)" mask="url(#satori_om-id-0-0)"><circle id="dot" cx="90" cy="80" r="8" fill="#22c55e"></circle><style>

    @keyframes pulse {
      0% { opacity: 0.55; }
      50% { opacity: 1; }
      100% { opacity: 0.55; }
    }
    #dot { animation: pulse 2.5s ease-in-out infinite; }
  
</style>
</svg><mask id="satori_om-id-0-0-0"><rect x="0" y="0" width="0" height="160" fill="#fff" mask="url(#satori_om-id-0)"/></mask><mask id="satori_om-id-0-1"><rect x="120" y="56" width="440" height="24" fill="#fff" mask="url(#satori_om-id-0)"/></mask><mask id="satori_om-id-0-1-0"><rect x="120" y="56" width="440" height="24" fill="#fff" mask="url(#satori_om-id-0)"/></mask><g mask="url(#satori_om-id-0)" clip-path="url(#satori_cp-id-0)"><path fill="#e2e8f0" d="M127.7 75.2L127.7 75.2Q125.8 75.2 124.2 74.3Q122.7 73.4 121.8 71.8Q120.9 70.1 120.9 67.7L120.9 67.7Q120.9 65.4 121.8 63.7Q122.7 62.0 124.2 61.1Q125.8 60.3 127.7 60.3L127.7 60.3Q129.6 60.3 131.2 61.1Q132.7 62.0 133.6 63.7Q134.5 65.4 134.5 67.7L134.5 67.7Q134.5 70.1 133.6 71.8Q132.7 73.4 131.2 74.3Q129.6 75.2 127.7 75.2ZM127.7 72.5L127.7 72.5Q128.8 72.5 129.7 72.0Q130.5 71.4 131.0 70.4Q131.5 69.3 131.5 67.7L131.5 67.7Q131.5 66.2 131.0 65.1Q130.5 64.0 129.7 63.5Q128.8 62.9 127.7 62.9L127.7 62.9Q126.6 62.9 125.7 63.5Q124.9 64.0 124.4 65.1Q123.9 66.2 123.9 67.7L123.9 67.7Q123.9 69.3 124.4 70.4Q124.9 71.4 125.7 72.0Q126.6 72.5 127.7 72.5ZM139.6 79.1L136.7 79.1L136.7 64.1L139.5 64.1L139.5 65.9L139.7 65.9Q139.9 65.5 140.3 65.0Q140.6 64.6 141.3 64.3Q141.9 63.9 142.8 63.9L142.8 63.9Q144.0 63.9 145.0 64.6Q146.0 65.2 146.6 66.4Q147.2 67.7 147.2 69.6L147.2 69.6Q147.2 71.4 146.6 72.6Q146.0 73.9 145.0 74.5Q144.0 75.2 142.8 75.2L142.8 75.2Q141.9 75.2 141.3 74.9Q140.7 74.6 140.3 74.1Q139.9 73.7 139.7 73.3L139.7 73.3L139.6 73.3L139.6 79.1ZM141.9 72.8L141.9 72.8Q142.6 72.8 143.2 72.4Q143.7 72.0 144.0 71.3Q144.2 70.5 144.2 69.6L144.2 69.6Q144.2 68.6 144.0 67.9Q143.7 67.1 143.2 66.7Q142.6 66.3 141.9 66.3L141.9 66.3Q141.1 66.3 140.6 66.7Q140.1 67.1 139.8 67.8Q139.5 68.6 139.5 69.6L139.5 69.6Q139.5 70.5 139.8 71.3Q140.1 72.0 140.6 72.4Q141.1 72.8 141.9 72.8ZM154.2 75.2L154.2 75.2Q152.5 75.2 151.3 74.5Q150.1 73.8 149.5 72.6Q148.8 71.3 148.8 69.6L148.8 69.6Q148.8 67.9 149.5 66.6Q150.1 65.4 151.3 64.7Q152.5 63.9 154.1 63.9L154.1 63.9Q155.1 63.9 156.1 64.3Q157.0 64.6 157.7 65.3Q158.4 66.0 158.8 67.0Q159.2 68.1 159.2 69.5L159.2 69.5L159.2 70.3L151.7 70.3Q151.7 71.1 152.0 71.7L152.0 71.7Q152.3 72.4 152.9 72.7Q153.5 73.0 154.2 73.0L154.2 73.0Q154.8 73.0 155.2 72.9Q155.6 72.7 155.9 72.4Q156.2 72.1 156.4 71.7L156.4 71.7L159.0 72.2Q158.8 73.1 158.1 73.8Q157.4 74.5 156.5 74.8Q155.5 75.2 154.2 75.2ZM151.7 68.5L151.7 68.5L156.4 68.5Q156.3 67.9 156.1 67.5L156.1 67.5Q155.9 66.8 155.3 66.5Q154.8 66.2 154.1 66.2L154.1 66.2Q153.3 66.2 152.8 66.5Q152.3 66.9 152.0 67.5L152.0 67.5Q151.8 67.9 151.7 68.5ZM164.1 68.7L164.1 68.7L164.1 75L161.2 75L161.2 64.1L163.9 64.1L164.0 66.3Q164.4 65.3 165.1 64.7L165.1 64.7Q166.0 63.9 167.4 63.9L167.4 63.9Q168.5 63.9 169.4 64.4Q170.2 64.9 170.7 65.9Q171.1 66.8 171.1 68.1L171.1 68.1L171.1 75L168.2 75L168.2 68.6Q168.2 67.5 167.7 67.0Q167.2 66.4 166.2 66.4L166.2 66.4Q165.6 66.4 165.1 66.7Q164.6 66.9 164.4 67.4Q164.1 67.9 164.1 68.7Z M181.7 64.1L183.8 64.1L183.8 66.3L181.7 66.3L181.7 71.8Q181.7 72.3 182.0 72.6Q182.2 72.8 182.7 72.8L182.7 72.8Q182.9 72.8 183.2 72.8Q183.5 72.7 183.7 72.7L183.7 72.7L184.1 74.9Q183.6 75.0 183.1 75.1Q182.6 75.2 182.2 75.2L182.2 75.2Q180.6 75.2 179.7 74.4Q178.8 73.6 178.8 72.1L178.8 72.1L178.8 66.3L177.3 66.3L177.3 64.1L178.8 64.1L178.8 61.5L181.7 61.5L181.7 64.1ZM190.6 75.2L190.6 75.2Q188.9 75.2 187.7 74.5Q186.5 73.8 185.9 72.5Q185.2 71.3 185.2 69.6L185.2 69.6Q185.2 67.9 185.9 66.6Q186.5 65.4 187.7 64.7Q188.9 63.9 190.6 63.9L190.6 63.9Q192.2 63.9 193.4 64.7Q194.6 65.4 195.3 66.6Q195.9 67.9 195.9 69.6L195.9 69.6Q195.9 71.3 195.3 72.5Q194.6 73.8 193.4 74.5Q192.2 75.2 190.6 75.2ZM190.6 72.9L190.6 72.9Q191.4 72.9 191.9 72.5Q192.4 72.0 192.7 71.3Q192.9 70.5 192.9 69.6L192.9 69.6Q192.9 68.6 192.7 67.9Q192.4 67.1 191.9 66.7Q191.4 66.3 190.6 66.3L190.6 66.3Q189.8 66.3 189.3 66.7Q188.8 67.1 188.5 67.9Q188.2 68.6 188.2 69.6L188.2 69.6Q188.2 70.5 188.5 71.3Q188.8 72.0 189.3 72.5Q189.8 72.9 190.6 72.9Z M205.6 75L202.7 75L202.7 64.1L205.5 64.1L205.5 66.0L205.6 66.0Q205.9 65.0 206.7 64.5Q207.4 63.9 208.3 63.9L208.3 63.9Q208.5 63.9 208.8 64.0Q209.0 64.0 209.2 64.0L209.2 64.0L209.2 66.7Q209.0 66.6 208.7 66.5Q208.3 66.5 208.0 66.5L208.0 66.5Q207.3 66.5 206.8 66.8Q206.2 67.1 205.9 67.6Q205.6 68.1 205.6 68.8L205.6 68.8L205.6 75ZM215.8 75.2L215.8 75.2Q214.1 75.2 212.9 74.5Q211.7 73.8 211.0 72.6Q210.4 71.3 210.4 69.6L210.4 69.6Q210.4 67.9 211.0 66.6Q211.7 65.4 212.9 64.7Q214.0 63.9 215.6 63.9L215.6 63.9Q216.7 63.9 217.6 64.3Q218.6 64.6 219.3 65.3Q220.0 66.0 220.4 67.0Q220.8 68.1 220.8 69.5L220.8 69.5L220.8 70.3L213.3 70.3Q213.3 71.1 213.6 71.7L213.6 71.7Q213.9 72.4 214.5 72.7Q215.1 73.0 215.8 73.0L215.8 73.0Q216.3 73.0 216.8 72.9Q217.2 72.7 217.5 72.4Q217.8 72.1 217.9 71.7L217.9 71.7L220.6 72.2Q220.3 73.1 219.7 73.8Q219.0 74.5 218.0 74.8Q217.1 75.2 215.8 75.2ZM213.3 68.5L213.3 68.5L217.9 68.5Q217.9 67.9 217.7 67.5L217.7 67.5Q217.4 66.8 216.9 66.5Q216.4 66.2 215.7 66.2L215.7 66.2Q214.9 66.2 214.4 66.5Q213.8 66.9 213.6 67.5L213.6 67.5Q213.3 67.9 213.3 68.5ZM227.1 75.2L227.1 75.2Q225.8 75.2 224.8 74.8Q223.7 74.5 223.1 73.7Q222.5 73.0 222.3 72.0L222.3 72.0L225.0 71.5Q225.2 72.3 225.7 72.7Q226.3 73.1 227.2 73.1L227.2 73.1Q228.0 73.1 228.5 72.7Q229.0 72.4 229.0 71.9L229.0 71.9Q229.0 71.5 228.6 71.2Q228.3 71.0 227.6 70.8L227.6 70.8L225.7 70.4Q224.1 70.1 223.3 69.3Q222.5 68.6 222.5 67.3L222.5 67.3Q222.5 66.3 223.1 65.5Q223.7 64.8 224.7 64.4Q225.8 63.9 227.1 63.9L227.1 63.9Q228.4 63.9 229.4 64.3Q230.3 64.7 230.9 65.3Q231.5 66.0 231.7 66.9L231.7 66.9L229.1 67.3Q228.9 66.8 228.5 66.4Q228.0 66.0 227.2 66.0L227.2 66.0Q226.5 66.0 226.0 66.3Q225.5 66.7 225.5 67.2L225.5 67.2Q225.5 67.6 225.8 67.9Q226.1 68.1 226.9 68.3L226.9 68.3L228.8 68.7Q230.4 69.0 231.2 69.7Q232.0 70.5 232.0 71.6L232.0 71.6Q232.0 72.7 231.3 73.5Q230.7 74.3 229.6 74.8Q228.5 75.2 227.1 75.2ZM238.9 75.2L238.9 75.2Q237.2 75.2 236.0 74.5Q234.8 73.8 234.1 72.6Q233.5 71.3 233.5 69.6L233.5 69.6Q233.5 67.9 234.1 66.6Q234.8 65.4 236.0 64.7Q237.1 63.9 238.7 63.9L238.7 63.9Q239.8 63.9 240.7 64.3Q241.7 64.6 242.4 65.3Q243.1 66.0 243.5 67.0Q243.9 68.1 243.9 69.5L243.9 69.5L243.9 70.3L236.4 70.3Q236.4 71.1 236.7 71.7L236.7 71.7Q237.0 72.4 237.6 72.7Q238.2 73.0 238.9 73.0L238.9 73.0Q239.5 73.0 239.9 72.9Q240.3 72.7 240.6 72.4Q240.9 72.1 241.0 71.7L241.0 71.7L243.7 72.2Q243.4 73.1 242.8 73.8Q242.1 74.5 241.1 74.8Q240.2 75.2 238.9 75.2ZM236.4 68.5L236.4 68.5L241.0 68.5Q241.0 67.9 240.8 67.5L240.8 67.5Q240.5 66.8 240.0 66.5Q239.5 66.2 238.8 66.2L238.8 66.2Q238.0 66.2 237.5 66.5Q236.9 66.9 236.7 67.5L236.7 67.5Q236.5 67.9 236.4 68.5ZM248.9 75.2L248.9 75.2Q247.9 75.2 247.1 74.8Q246.2 74.5 245.8 73.8Q245.3 73.0 245.3 71.9L245.3 71.9Q245.3 71.0 245.6 70.4Q246.0 69.8 246.5 69.4Q247.1 69.1 247.9 68.9Q248.6 68.7 249.4 68.6L249.4 68.6Q250.4 68.5 250.9 68.4Q251.5 68.3 251.8 68.1Q252.1 68.0 252.1 67.6L252.1 67.6L252.1 67.6Q252.1 67.1 251.9 66.8Q251.7 66.5 251.3 66.3Q250.9 66.1 250.3 66.1L250.3 66.1Q249.8 66.1 249.4 66.3Q248.9 66.5 248.7 66.7Q248.4 67.0 248.3 67.4L248.3 67.4L245.6 66.9Q245.9 66.0 246.5 65.3Q247.2 64.6 248.2 64.3Q249.1 63.9 250.4 63.9L250.4 63.9Q251.2 63.9 252.1 64.2Q252.9 64.4 253.5 64.8Q254.2 65.2 254.6 66.0Q255.0 66.7 255.0 67.6L255.0 67.6L255.0 75L252.2 75L252.2 73.5L252.1 73.5Q251.8 74.0 251.4 74.4Q251.0 74.8 250.3 75.0Q249.7 75.2 248.9 75.2ZM249.7 73.2L249.7 73.2Q250.4 73.2 251.0 72.9Q251.5 72.6 251.8 72.1Q252.1 71.7 252.1 71.1L252.1 71.1L252.1 69.9Q251.9 70.0 251.7 70.1Q251.4 70.2 251.1 70.2Q250.8 70.3 250.5 70.3Q250.1 70.4 249.9 70.4L249.9 70.4Q249.4 70.5 249.0 70.7Q248.5 70.8 248.3 71.1Q248.1 71.4 248.1 71.9L248.1 71.9Q248.1 72.3 248.3 72.6Q248.5 72.9 248.9 73.0Q249.3 73.2 249.7 73.2ZM260.4 75L257.5 75L257.5 64.1L260.3 64.1L260.3 66.0L260.4 66.0Q260.7 65.0 261.4 64.5Q262.1 63.9 263.1 63.9L263.1 63.9Q263.3 63.9 263.6 64.0Q263.8 64.0 264.0 64.0L264.0 64.0L264.0 66.7Q263.8 66.6 263.4 66.5Q263.1 66.5 262.7 66.5L262.7 66.5Q262.1 66.5 261.5 66.8Q261.0 67.1 260.7 67.6Q260.4 68.1 260.4 68.8L260.4 68.8L260.4 75ZM270.5 75.2L270.5 75.2Q268.9 75.2 267.7 74.5Q266.5 73.8 265.8 72.5Q265.2 71.3 265.2 69.6L265.2 69.6Q265.2 67.9 265.8 66.6Q266.5 65.4 267.7 64.7Q268.9 63.9 270.5 63.9L270.5 63.9Q271.5 63.9 272.3 64.2Q273.1 64.5 273.8 64.9Q274.4 65.4 274.8 66.1Q275.2 66.7 275.4 67.6L275.4 67.6L272.6 68.1Q272.5 67.7 272.4 67.3Q272.2 67.0 271.9 66.7Q271.7 66.5 271.3 66.4Q271.0 66.3 270.5 66.3L270.5 66.3Q269.8 66.3 269.2 66.7Q268.7 67.1 268.4 67.8Q268.2 68.6 268.2 69.6L268.2 69.6Q268.2 70.5 268.4 71.3Q268.7 72.1 269.2 72.5Q269.8 72.9 270.5 72.9L270.5 72.9Q271.0 72.9 271.3 72.8Q271.7 72.6 271.9 72.4Q272.2 72.1 272.4 71.8Q272.6 71.4 272.7 71.0L272.7 71.0L275.4 71.5Q275.2 72.4 274.8 73.1Q274.4 73.7 273.8 74.2Q273.1 74.7 272.3 75.0Q271.5 75.2 270.5 75.2ZM280.3 68.7L280.3 68.7L280.3 75L277.4 75L277.4 60.4L280.3 60.4L280.3 66.2Q280.7 65.3 281.3 64.7L281.3 64.7Q282.2 63.9 283.6 63.9L283.6 63.9Q284.7 63.9 285.6 64.4Q286.4 64.9 286.9 65.9Q287.4 66.8 287.4 68.1L287.4 68.1L287.4 75L284.4 75L284.4 68.6Q284.4 67.5 283.9 67.0Q283.4 66.4 282.4 66.4L282.4 66.4Q281.8 66.4 281.3 66.7Q280.9 66.9 280.6 67.4Q280.3 67.9 280.3 68.7Z M297.6 75.2L297.6 75.2Q296.6 75.2 295.8 74.8Q294.9 74.5 294.5 73.8Q294.0 73.0 294.0 71.9L294.0 71.9Q294.0 71.0 294.3 70.4Q294.7 69.8 295.2 69.4Q295.8 69.1 296.6 68.9Q297.3 68.7 298.1 68.6L298.1 68.6Q299.1 68.5 299.6 68.4Q300.2 68.3 300.5 68.1Q300.8 68.0 300.8 67.6L300.8 67.6L300.8 67.6Q300.8 67.1 300.6 66.8Q300.4 66.5 300.0 66.3Q299.6 66.1 299.1 66.1L299.1 66.1Q298.5 66.1 298.1 66.3Q297.6 66.5 297.4 66.7Q297.1 67.0 297.0 67.4L297.0 67.4L294.3 66.9Q294.6 66.0 295.2 65.3Q295.9 64.6 296.9 64.3Q297.8 63.9 299.1 63.9L299.1 63.9Q299.9 63.9 300.8 64.2Q301.6 64.4 302.3 64.8Q302.9 65.2 303.3 66.0Q303.7 66.7 303.7 67.6L303.7 67.6L303.7 75L300.9 75L300.9 73.5L300.8 73.5Q300.6 74.0 300.1 74.4Q299.7 74.8 299.1 75.0Q298.4 75.2 297.6 75.2ZM298.5 73.2L298.5 73.2Q299.2 73.2 299.7 72.9Q300.2 72.6 300.5 72.1Q300.8 71.7 300.8 71.1L300.8 71.1L300.8 69.9Q300.7 70.0 300.4 70.1Q300.1 70.2 299.8 70.2Q299.5 70.3 299.2 70.3Q298.9 70.4 298.6 70.4L298.6 70.4Q298.1 70.5 297.7 70.7Q297.3 70.8 297.0 71.1Q296.8 71.4 296.8 71.9L296.8 71.9Q296.8 72.3 297.0 72.6Q297.2 72.9 297.6 73.0Q298.0 73.2 298.5 73.2ZM309.1 68.7L309.1 68.7L309.1 75L306.2 75L306.2 64.1L309.0 64.1L309.0 66.3Q309.4 65.3 310.1 64.7L310.1 64.7Q311.0 63.9 312.4 63.9L312.4 63.9Q313.5 63.9 314.4 64.4Q315.2 64.9 315.7 65.9Q316.1 66.8 316.1 68.1L316.1 68.1L316.1 75L313.2 75L313.2 68.6Q313.2 67.5 312.7 67.0Q312.2 66.4 311.2 66.4L311.2 66.4Q310.6 66.4 310.1 66.7Q309.7 66.9 309.4 67.4Q309.1 67.9 309.1 68.7ZM322.6 75.2L322.6 75.2Q321.4 75.2 320.4 74.5Q319.4 73.9 318.8 72.6Q318.2 71.4 318.2 69.6L318.2 69.6Q318.2 67.7 318.8 66.4Q319.4 65.2 320.4 64.6Q321.4 63.9 322.6 63.9L322.6 63.9Q323.5 63.9 324.2 64.3Q324.8 64.6 325.2 65.0Q325.5 65.5 325.7 65.9L325.7 65.9L325.8 65.9L325.8 60.4L328.8 60.4L328.8 75L325.9 75L325.9 73.3L325.7 73.3Q325.5 73.7 325.1 74.1Q324.8 74.6 324.1 74.9Q323.5 75.2 322.6 75.2ZM323.5 72.8L323.5 72.8Q324.3 72.8 324.8 72.4Q325.3 72.0 325.6 71.3Q325.9 70.5 325.9 69.6L325.9 69.6Q325.9 68.6 325.6 67.8Q325.3 67.1 324.8 66.7Q324.3 66.3 323.5 66.3L323.5 66.3Q322.8 66.3 322.2 66.7Q321.7 67.1 321.5 67.9Q321.2 68.6 321.2 69.6L321.2 69.6Q321.2 70.5 321.5 71.3Q321.7 72.0 322.3 72.4Q322.8 72.8 323.5 72.8Z M338.9 75L336.0 75L336.0 64.1L338.9 64.1L338.9 75ZM337.5 62.7L337.5 62.7Q336.8 62.7 336.3 62.2Q335.8 61.8 335.8 61.2L335.8 61.2Q335.8 60.5 336.3 60.1Q336.8 59.6 337.5 59.6L337.5 59.6Q338.1 59.6 338.6 60.1Q339.1 60.5 339.1 61.2L339.1 61.2Q339.1 61.8 338.6 62.2Q338.1 62.7 337.5 62.7ZM344.3 68.7L344.3 68.7L344.3 75L341.4 75L341.4 64.1L344.2 64.1L344.2 66.3Q344.6 65.3 345.4 64.7L345.4 64.7Q346.2 63.9 347.6 63.9L347.6 63.9Q348.7 63.9 349.6 64.4Q350.4 64.9 350.9 65.9Q351.4 66.8 351.4 68.1L351.4 68.1L351.4 75L348.4 75L348.4 68.6Q348.4 67.5 347.9 67.0Q347.4 66.4 346.5 66.4L346.5 66.4Q345.8 66.4 345.4 66.7Q344.9 66.9 344.6 67.4Q344.3 67.9 344.3 68.7ZM357.8 75.2L357.8 75.2Q356.6 75.2 355.6 74.5Q354.6 73.9 354.0 72.6Q353.4 71.4 353.4 69.6L353.4 69.6Q353.4 67.7 354.0 66.4Q354.6 65.2 355.6 64.6Q356.6 63.9 357.8 63.9L357.8 63.9Q358.8 63.9 359.4 64.3Q360.0 64.6 360.4 65.0Q360.8 65.5 360.9 65.9L360.9 65.9L361.0 65.9L361.0 60.4L364.0 60.4L364.0 75L361.1 75L361.1 73.3L360.9 73.3Q360.7 73.7 360.4 74.1Q360.0 74.6 359.4 74.9Q358.7 75.2 357.8 75.2ZM358.8 72.8L358.8 72.8Q359.5 72.8 360.0 72.4Q360.5 72.0 360.8 71.3Q361.1 70.5 361.1 69.6L361.1 69.6Q361.1 68.6 360.8 67.8Q360.6 67.1 360.0 66.7Q359.5 66.3 358.8 66.3L358.8 66.3Q358.0 66.3 357.5 66.7Q356.9 67.1 356.7 67.9Q356.4 68.6 356.4 69.6L356.4 69.6Q356.4 70.5 356.7 71.3Q356.9 72.0 357.5 72.4Q358.0 72.8 358.8 72.8ZM370.2 75.1L370.2 75.1Q369.1 75.1 368.2 74.6Q367.4 74.2 366.9 73.2Q366.5 72.3 366.5 71.0L366.5 71.0L366.5 64.1L369.4 64.1L369.4 70.5Q369.4 71.5 369.9 72.1Q370.4 72.7 371.4 72.7L371.4 72.7Q372.0 72.7 372.5 72.4Q372.9 72.1 373.2 71.6Q373.5 71.1 373.5 70.4L373.5 70.4L373.5 64.1L376.4 64.1L376.4 75L373.7 75L373.6 72.7Q373.2 73.8 372.5 74.4L372.5 74.4Q371.6 75.1 370.2 75.1ZM383.3 75.2L383.3 75.2Q381.9 75.2 380.9 74.8Q379.9 74.5 379.3 73.7Q378.6 73.0 378.4 72.0L378.4 72.0L381.2 71.5Q381.4 72.3 381.9 72.7Q382.4 73.1 383.3 73.1L383.3 73.1Q384.2 73.1 384.7 72.7Q385.1 72.4 385.1 71.9L385.1 71.9Q385.1 71.5 384.8 71.2Q384.5 71.0 383.7 70.8L383.7 70.8L381.9 70.4Q380.3 70.1 379.5 69.3Q378.7 68.6 378.7 67.3L378.7 67.3Q378.7 66.3 379.3 65.5Q379.9 64.8 380.9 64.4Q381.9 63.9 383.3 63.9L383.3 63.9Q384.6 63.9 385.5 64.3Q386.5 64.7 387.1 65.3Q387.7 66.0 387.9 66.9L387.9 66.9L385.3 67.3Q385.1 66.8 384.6 66.4Q384.1 66.0 383.3 66.0L383.3 66.0Q382.6 66.0 382.1 66.3Q381.6 66.7 381.6 67.2L381.6 67.2Q381.6 67.6 382.0 67.9Q382.3 68.1 383.0 68.3L383.0 68.3L385.0 68.7Q386.6 69.0 387.4 69.7Q388.1 70.5 388.1 71.6L388.1 71.6Q388.1 72.7 387.5 73.5Q386.9 74.3 385.8 74.8Q384.7 75.2 383.3 75.2ZM393.5 64.1L395.5 64.1L395.5 66.3L393.5 66.3L393.5 71.8Q393.5 72.3 393.7 72.6Q394.0 72.8 394.5 72.8L394.5 72.8Q394.7 72.8 395.0 72.8Q395.3 72.7 395.4 72.7L395.4 72.7L395.8 74.9Q395.4 75.0 394.9 75.1Q394.4 75.2 393.9 75.2L393.9 75.2Q392.3 75.2 391.4 74.4Q390.6 73.6 390.6 72.1L390.6 72.1L390.6 66.3L389.1 66.3L389.1 64.1L390.6 64.1L390.6 61.5L393.5 61.5L393.5 64.1ZM400.4 75L397.4 75L397.4 64.1L400.3 64.1L400.3 66.0L400.4 66.0Q400.7 65.0 401.4 64.5Q402.1 63.9 403.0 63.9L403.0 63.9Q403.3 63.9 403.5 64.0Q403.8 64.0 404.0 64.0L404.0 64.0L404.0 66.7Q403.8 66.6 403.4 66.5Q403.0 66.5 402.7 66.5L402.7 66.5Q402.0 66.5 401.5 66.8Q401.0 67.1 400.7 67.6Q400.4 68.1 400.4 68.8L400.4 68.8L400.4 75ZM405.5 78.9L405.5 78.9L406.2 76.7L406.5 76.7Q407.1 76.9 407.6 76.8Q408.0 76.8 408.3 76.5Q408.6 76.2 408.7 75.6L408.7 75.6L408.7 75.0L404.6 64.1L407.8 64.1L409.6 69.7Q409.9 70.8 410.1 71.9L410.1 71.9Q410.2 72.3 410.3 72.6L410.3 72.6Q410.4 72.3 410.5 71.9L410.5 71.9Q410.7 70.8 411.1 69.7L411.1 69.7L413.0 64.1L416.1 64.1L411.4 76.3Q411.1 77.2 410.6 77.8Q410.1 78.5 409.3 78.8Q408.5 79.2 407.4 79.2L407.4 79.2Q406.8 79.2 406.3 79.1Q405.8 79.0 405.5 78.9Z M427.2 75.2L427.2 75.2Q425.6 75.2 424.4 74.5Q423.2 73.8 422.6 72.5Q421.9 71.3 421.9 69.6L421.9 69.6Q421.9 67.9 422.6 66.6Q423.2 65.4 424.4 64.7Q425.6 63.9 427.2 63.9L427.2 63.9Q428.9 63.9 430.1 64.7Q431.3 65.4 431.9 66.6Q432.6 67.9 432.6 69.6L432.6 69.6Q432.6 71.3 431.9 72.5Q431.3 73.8 430.1 74.5Q428.9 75.2 427.2 75.2ZM427.2 72.9L427.2 72.9Q428.0 72.9 428.6 72.5Q429.1 72.0 429.3 71.3Q429.6 70.5 429.6 69.6L429.6 69.6Q429.6 68.6 429.3 67.9Q429.1 67.1 428.6 66.7Q428.0 66.3 427.2 66.3L427.2 66.3Q426.5 66.3 425.9 66.7Q425.4 67.1 425.2 67.9Q424.9 68.6 424.9 69.6L424.9 69.6Q424.9 70.5 425.2 71.3Q425.4 72.0 425.9 72.5Q426.5 72.9 427.2 72.9ZM437.6 79.1L434.6 79.1L434.6 64.1L437.5 64.1L437.5 65.9L437.6 65.9Q437.9 65.5 438.2 65.0Q438.6 64.6 439.2 64.3Q439.8 63.9 440.8 63.9L440.8 63.9Q442.0 63.9 443.0 64.6Q444.0 65.2 444.6 66.4Q445.2 67.7 445.2 69.6L445.2 69.6Q445.2 71.4 444.6 72.6Q444.0 73.9 443.0 74.5Q442.0 75.2 440.7 75.2L440.7 75.2Q439.9 75.2 439.2 74.9Q438.6 74.6 438.2 74.1Q437.9 73.7 437.6 73.3L437.6 73.3L437.6 73.3L437.6 79.1ZM439.8 72.8L439.8 72.8Q440.6 72.8 441.1 72.4Q441.7 72.0 441.9 71.3Q442.2 70.5 442.2 69.6L442.2 69.6Q442.2 68.6 441.9 67.9Q441.7 67.1 441.1 66.7Q440.6 66.3 439.8 66.3L439.8 66.3Q439.1 66.3 438.6 66.7Q438.0 67.1 437.8 67.8Q437.5 68.6 437.5 69.6L437.5 69.6Q437.5 70.5 437.8 71.3Q438.0 72.0 438.6 72.4Q439.1 72.8 439.8 72.8ZM450.2 79.1L447.2 79.1L447.2 64.1L450.1 64.1L450.1 65.9L450.3 65.9Q450.5 65.5 450.8 65.0Q451.2 64.6 451.8 64.3Q452.4 63.9 453.4 63.9L453.4 63.9Q454.6 63.9 455.6 64.6Q456.6 65.2 457.2 66.4Q457.8 67.7 457.8 69.6L457.8 69.6Q457.8 71.4 457.2 72.6Q456.6 73.9 455.6 74.5Q454.6 75.2 453.3 75.2L453.3 75.2Q452.5 75.2 451.8 74.9Q451.2 74.6 450.8 74.1Q450.5 73.7 450.3 73.3L450.3 73.3L450.2 73.3L450.2 79.1ZM452.5 72.8L452.5 72.8Q453.2 72.8 453.7 72.4Q454.3 72.0 454.5 71.3Q454.8 70.5 454.8 69.6L454.8 69.6Q454.8 68.6 454.5 67.9Q454.3 67.1 453.7 66.7Q453.2 66.3 452.5 66.3L452.5 66.3Q451.7 66.3 451.2 66.7Q450.6 67.1 450.4 67.8Q450.1 68.6 450.1 69.6L450.1 69.6Q450.1 70.5 450.4 71.3Q450.7 72.0 451.2 72.4Q451.7 72.8 452.5 72.8ZM464.7 75.2L464.7 75.2Q463.1 75.2 461.9 74.5Q460.7 73.8 460.0 72.5Q459.4 71.3 459.4 69.6L459.4 69.6Q459.4 67.9 460.0 66.6Q460.7 65.4 461.9 64.7Q463.1 63.9 464.7 63.9L464.7 63.9Q466.4 63.9 467.6 64.7Q468.8 65.4 469.4 66.6Q470.1 67.9 470.1 69.6L470.1 69.6Q470.1 71.3 469.4 72.5Q468.8 73.8 467.6 74.5Q466.4 75.2 464.7 75.2ZM464.7 72.9L464.7 72.9Q465.5 72.9 466.0 72.5Q466.6 72.0 466.8 71.3Q467.1 70.5 467.1 69.6L467.1 69.6Q467.1 68.6 466.8 67.9Q466.6 67.1 466.0 66.7Q465.5 66.3 464.7 66.3L464.7 66.3Q463.9 66.3 463.4 66.7Q462.9 67.1 462.6 67.9Q462.4 68.6 462.4 69.6L462.4 69.6Q462.4 70.5 462.6 71.3Q462.9 72.0 463.4 72.5Q463.9 72.9 464.7 72.9ZM475.0 75L472.1 75L472.1 64.1L474.9 64.1L474.9 66.0L475.1 66.0Q475.4 65.0 476.1 64.5Q476.8 63.9 477.7 63.9L477.7 63.9Q477.9 63.9 478.2 64.0Q478.4 64.0 478.6 64.0L478.6 64.0L478.6 66.7Q478.4 66.6 478.1 66.5Q477.7 66.5 477.4 66.5L477.4 66.5Q476.7 66.5 476.2 66.8Q475.6 67.1 475.3 67.6Q475.0 68.1 475.0 68.8L475.0 68.8L475.0 75ZM483.6 64.1L485.7 64.1L485.7 66.3L483.6 66.3L483.6 71.8Q483.6 72.3 483.9 72.6Q484.1 72.8 484.6 72.8L484.6 72.8Q484.8 72.8 485.1 72.8Q485.4 72.7 485.6 72.7L485.6 72.7L486.0 74.9Q485.5 75.0 485.0 75.1Q484.5 75.2 484.1 75.2L484.1 75.2Q482.4 75.2 481.6 74.4Q480.7 73.6 480.7 72.1L480.7 72.1L480.7 66.3L479.2 66.3L479.2 64.1L480.7 64.1L480.7 61.5L483.6 61.5L483.6 64.1ZM491.3 75.1L491.3 75.1Q490.2 75.1 489.4 74.6Q488.5 74.2 488.0 73.2Q487.6 72.3 487.6 71.0L487.6 71.0L487.6 64.1L490.5 64.1L490.5 70.5Q490.5 71.5 491.0 72.1Q491.6 72.7 492.5 72.7L492.5 72.7Q493.1 72.7 493.6 72.4Q494.1 72.1 494.3 71.6Q494.6 71.1 494.6 70.4L494.6 70.4L494.6 64.1L497.5 64.1L497.5 75L494.8 75L494.7 72.7Q494.3 73.8 493.6 74.4L493.6 74.4Q492.7 75.1 491.3 75.1ZM503.0 68.7L503.0 68.7L503.0 75L500.0 75L500.0 64.1L502.8 64.1L502.8 66.3Q503.3 65.3 504.0 64.7L504.0 64.7Q504.8 63.9 506.2 63.9L506.2 63.9Q507.4 63.9 508.2 64.4Q509.1 64.9 509.5 65.9Q510.0 66.8 510.0 68.1L510.0 68.1L510.0 75L507.1 75L507.1 68.6Q507.1 67.5 506.5 67.0Q506.0 66.4 505.1 66.4L505.1 66.4Q504.5 66.4 504.0 66.7Q503.5 66.9 503.2 67.4Q503.0 67.9 503.0 68.7ZM515.4 75L512.5 75L512.5 64.1L515.4 64.1L515.4 75ZM513.9 62.7L513.9 62.7Q513.3 62.7 512.8 62.2Q512.3 61.8 512.3 61.2L512.3 61.2Q512.3 60.5 512.8 60.1Q513.3 59.6 513.9 59.6L513.9 59.6Q514.6 59.6 515.1 60.1Q515.6 60.5 515.6 61.2L515.6 61.2Q515.6 61.8 515.1 62.2Q514.6 62.7 513.9 62.7ZM521.3 64.1L523.3 64.1L523.3 66.3L521.3 66.3L521.3 71.8Q521.3 72.3 521.5 72.6Q521.7 72.8 522.3 72.8L522.3 72.8Q522.4 72.8 522.7 72.8Q523.0 72.7 523.2 72.7L523.2 72.7L523.6 74.9Q523.1 75.0 522.7 75.1Q522.2 75.2 521.7 75.2L521.7 75.2Q520.1 75.2 519.2 74.4Q518.3 73.6 518.3 72.1L518.3 72.1L518.3 66.3L516.8 66.3L516.8 64.1L518.3 64.1L518.3 61.5L521.3 61.5L521.3 64.1ZM528.2 75L525.2 75L525.2 64.1L528.2 64.1L528.2 75ZM526.7 62.7L526.7 62.7Q526.0 62.7 525.6 62.2Q525.1 61.8 525.1 61.2L525.1 61.2Q525.1 60.5 525.6 60.1Q526.0 59.6 526.7 59.6L526.7 59.6Q527.4 59.6 527.8 60.1Q528.3 60.5 528.3 61.2L528.3 61.2Q528.3 61.8 527.8 62.2Q527.4 62.7 526.7 62.7ZM535.6 75.2L535.6 75.2Q533.9 75.2 532.7 74.5Q531.5 73.8 530.8 72.6Q530.2 71.3 530.2 69.6L530.2 69.6Q530.2 67.9 530.8 66.6Q531.5 65.4 532.7 64.7Q533.8 63.9 535.4 63.9L535.4 63.9Q536.5 63.9 537.4 64.3Q538.4 64.6 539.1 65.3Q539.8 66.0 540.2 67.0Q540.6 68.1 540.6 69.5L540.6 69.5L540.6 70.3L533.1 70.3Q533.1 71.1 533.4 71.7L533.4 71.7Q533.7 72.4 534.3 72.7Q534.9 73.0 535.6 73.0L535.6 73.0Q536.1 73.0 536.6 72.9Q537.0 72.7 537.3 72.4Q537.6 72.1 537.7 71.7L537.7 71.7L540.4 72.2Q540.1 73.1 539.5 73.8Q538.8 74.5 537.8 74.8Q536.9 75.2 535.6 75.2ZM533.1 68.5L533.1 68.5L537.7 68.5Q537.7 67.9 537.5 67.5L537.5 67.5Q537.2 66.8 536.7 66.5Q536.2 66.2 535.5 66.2L535.5 66.2Q534.7 66.2 534.2 66.5Q533.6 66.9 533.4 67.5L533.4 67.5Q533.2 67.9 533.1 68.5ZM546.9 75.2L546.9 75.2Q545.6 75.2 544.6 74.8Q543.5 74.5 542.9 73.7Q542.3 73.0 542.1 72.0L542.1 72.0L544.8 71.5Q545.0 72.3 545.5 72.7Q546.1 73.1 547.0 73.1L547.0 73.1Q547.8 73.1 548.3 72.7Q548.8 72.4 548.8 71.9L548.8 71.9Q548.8 71.5 548.4 71.2Q548.1 71.0 547.4 70.8L547.4 70.8L545.5 70.4Q543.9 70.1 543.1 69.3Q542.4 68.6 542.4 67.3L542.4 67.3Q542.4 66.3 542.9 65.5Q543.5 64.8 544.5 64.4Q545.6 63.9 546.9 63.9L546.9 63.9Q548.2 63.9 549.2 64.3Q550.1 64.7 550.7 65.3Q551.3 66.0 551.5 66.9L551.5 66.9L548.9 67.3Q548.7 66.8 548.3 66.4Q547.8 66.0 547.0 66.0L547.0 66.0Q546.3 66.0 545.8 66.3Q545.3 66.7 545.3 67.2L545.3 67.2Q545.3 67.6 545.6 67.9Q545.9 68.1 546.7 68.3L546.7 68.3L548.7 68.7Q550.2 69.0 551.0 69.7Q551.8 70.5 551.8 71.6L551.8 71.6Q551.8 72.7 551.2 73.5Q550.5 74.3 549.4 74.8Q548.3 75.2 546.9 75.2ZM555.8 75.2L555.8 75.2Q555.1 75.2 554.6 74.7Q554.2 74.2 554.2 73.5L554.2 73.5Q554.2 72.8 554.6 72.3Q555.1 71.8 555.8 71.8L555.8 71.8Q556.6 71.8 557.1 72.3Q557.5 72.8 557.5 73.5L557.5 73.5Q557.5 74.2 557.1 74.7Q556.6 75.2 555.8 75.2Z "/></g></svg>