<!-- Generated by readme-aura https://github.com/collectioneur/readme-aura -->
<svg width="160" height="44" viewBox="0 0 160 44" xmlns="http://www.w3.org/2000/svg"><mask id="satori_om-id"><rect x="0" y="0" width="160" height="44" fill="#fff"/></mask><path x="0" y="0" width="160" height="44" fill="#0a66c2" d="M22,0 h116 a22,22 0 0 1 22,22 v0 a22,22 0 0 1 -22,22 h-116 a22,22 0 0 1 -22,-22 v0 a22,22 0 0 1 22,-22"/><clipPath id="satori_cp-id-0"><rect x="0" y="0" width="160" height="44"/></clipPath><mask id="satori_om-id-0"><rect x="0" y="0" width="160" height="44" fill="#fff"/></mask><svg x="0" y="0" width="160" height="44" preserveAspectRatio="none" clip-path="url(#satori_cp-id-0)" mask="url(#satori_om-id-0)"><defs><linearGradient id="smb-grad-LinkedIn" gradientUnits="objectBoundingBox" x1="0" y1="0" x2="1" y2="1"><stop offset="0%" stop-color="#ffffff"></stop><stop offset="10%" stop-color="#111111"></stop><stop offset="50%" stop-color="#eeeeee"></stop><stop offset="60%" stop-color="#ffbbaa"></stop><stop offset="80%" stop-color="#111111"></stop><stop offset="100%" stop-color="#555555"></stop><animateTransform attributeName="gradientTransform" type="rotate" from="0 0.5 0.5" to="360 0.5 0.5" dur="8s" repeatCount="indefinite"></animateTransform></linearGradient></defs><rect x="1.25" y="1.25" width="157.5" height="41.5" rx="20.75" ry="20.75" fill="none" stroke="url(#smb-grad-LinkedIn)" stroke-width="2" stroke-linecap="round" stroke-linejoin="round"></rect><rect x="0.25" y="0.25" width="159.5" height="43.5" rx="21.75" ry="21.75" fill="none" stroke="#AAAAAA" stroke-width="0.5" stroke-linecap="round" stroke-linejoin="round"></rect></svg><mask id="satori_om-id-0-0"><rect x="0" y="0" width="0" height="44" fill="#fff"/></mask><mask id="satori_om-id-0-0-0"><rect x="0" y="0" width="0" height="44" fill="#fff"/></mask><mask id="satori_om-id-0-0-0-0"><rect x="0" y="0" width="0" height="44" fill="#fff"/></mask><mask id="satori_om-id-0-0-0-1"><rect x="0" y="0" width="0" height="44" fill="#fff"/></mask><mask id="satori_om-id-0-0-0-2"><rect x="0" y="0" width="0" height="44" fill="#fff"/></mask><mask id="satori_om-id-0-0-0-3"><rect x="0" y="0" width="0" height="44" fill="#fff"/></mask><mask id="satori_om-id-0-0-0-4"><rect x="0" y="0" width="0" height="44" fill="#fff"/></mask><mask id="satori_om-id-0-0-0-5"><rect x="0" y="0" width="0" height="44" fill="#fff"/></mask><mask id="satori_om-id-0-0-0-6"><rect x="0" y="0" width="0" height="44" fill="#fff"/></mask><mask id="satori_om-id-0-1"><rect x="0" y="0" width="0" height="44" fill="#fff"/></mask><mask id="satori_om-id-0-2"><rect x="0" y="0" width="0" height="44" fill="#fff"/></mask><mask id="satori_om-id-1"><rect x="0" y="0" width="160" height="44" fill="#fff"/></mask><mask id="satori_om-id-1-0"><rect x="41" y="12" width="20" height="20" fill="#fff"/></mask><mask id="satori_om-id-1-1"><rect x="66" y="14" width="53" height="16" fill="#fff"/></mask><g  ><path fill="#ffffff" d="M72.9 27L66.9 27L66.9 17.5L68.8 17.5L68.8 25.4L72.9 25.4L72.9 27ZM75.9 27L74.0 27L74.0 19.9L75.9 19.9L75.9 27ZM74.9 19.0L74.9 19.0Q74.5 19.0 74.2 18.7Q73.9 18.4 73.9 18.0L73.9 18.0Q73.9 17.6 74.2 17.3Q74.5 17.0 74.9 17.0L74.9 17.0Q75.3 17.0 75.7 17.3Q76.0 17.6 76.0 18.0L76.0 18.0Q76.0 18.4 75.7 18.7Q75.3 19.0 74.9 19.0ZM79.2 22.9L79.2 22.9L79.2 27L77.3 27L77.3 19.9L79.1 19.9L79.1 21.4Q79.4 20.7 79.9 20.3L79.9 20.3Q80.4 19.8 81.3 19.8L81.3 19.8Q82.1 19.8 82.6 20.1Q83.2 20.5 83.5 21.1Q83.8 21.7 83.8 22.5L83.8 22.5L83.8 27L81.8 27L81.8 22.8Q81.8 22.2 81.5 21.8Q81.2 21.4 80.6 21.4L80.6 21.4Q80.2 21.4 79.9 21.6Q79.5 21.8 79.4 22.1Q79.2 22.4 79.2 22.9ZM87.1 27L85.2 27L85.2 17.5L87.1 17.5L87.1 22.6L87.2 22.6L89.5 19.9L91.7 19.9L89.1 23.0L91.9 27L89.6 27L87.6 24.1L87.1 24.7L87.1 27ZM95.7 27.1L95.7 27.1Q94.6 27.1 93.9 26.7Q93.1 26.3 92.6 25.4Q92.2 24.6 92.2 23.5L92.2 23.5Q92.2 22.4 92.6 21.6Q93.1 20.7 93.8 20.3Q94.6 19.8 95.6 19.8L95.6 19.8Q96.3 19.8 96.9 20.0Q97.5 20.3 98.0 20.7Q98.4 21.2 98.7 21.8Q99.0 22.5 99.0 23.4L99.0 23.4L99.0 23.9L94.1 23.9Q94.1 24.5 94.3 24.9L94.3 24.9Q94.5 25.3 94.9 25.5Q95.3 25.7 95.8 25.7L95.8 25.7Q96.1 25.7 96.4 25.6Q96.6 25.5 96.8 25.3Q97.0 25.1 97.1 24.9L97.1 24.9L98.9 25.2Q98.7 25.8 98.3 26.2Q97.8 26.7 97.2 26.9Q96.6 27.1 95.7 27.1ZM94.1 22.8L94.1 22.8L97.1 22.8Q97.1 22.4 97.0 22.1L97.0 22.1Q96.8 21.7 96.5 21.5Q96.1 21.2 95.6 21.2L95.6 21.2Q95.2 21.2 94.8 21.5Q94.5 21.7 94.3 22.1L94.3 22.1Q94.2 22.4 94.1 22.8ZM102.7 27.1L102.7 27.1Q101.8 27.1 101.2 26.7Q100.5 26.3 100.1 25.5Q99.8 24.6 99.8 23.5L99.8 23.5Q99.8 22.3 100.2 21.4Q100.6 20.6 101.2 20.2Q101.9 19.8 102.6 19.8L102.6 19.8Q103.3 19.8 103.7 20.0Q104.1 20.2 104.3 20.5Q104.5 20.8 104.7 21.1L104.7 21.1L104.7 21.1L104.7 17.5L106.6 17.5L106.6 27L104.8 27L104.8 25.9L104.7 25.9Q104.5 26.1 104.3 26.4Q104.0 26.7 103.6 26.9Q103.2 27.1 102.7 27.1ZM103.2 25.6L103.2 25.6Q103.7 25.6 104.1 25.3Q104.4 25.1 104.6 24.6Q104.8 24.1 104.8 23.5L104.8 23.5Q104.8 22.8 104.6 22.3Q104.4 21.9 104.1 21.6Q103.7 21.3 103.2 21.3L103.2 21.3Q102.7 21.3 102.4 21.6Q102.1 21.9 101.9 22.4Q101.7 22.8 101.7 23.5L101.7 23.5Q101.7 24.1 101.9 24.6Q102.1 25.0 102.4 25.3Q102.7 25.6 103.2 25.6ZM108.1 17.5L110.0 17.5L110.0 27L108.1 27L108.1 17.5ZM113.4 22.9L113.4 22.9L113.4 27L111.5 27L111.5 19.9L113.3 19.9L113.3 21.4Q113.6 20.7 114.1 20.3L114.1 20.3Q114.6 19.8 115.5 19.8L115.5 19.8Q116.3 19.8 116.8 20.1Q117.4 20.5 117.7 21.1Q118.0 21.7 118.0 22.5L118.0 22.5L118.0 27L116.1 27L116.1 22.8Q116.1 22.2 115.7 21.8Q115.4 21.4 114.8 21.4L114.8 21.4Q114.4 21.4 114.1 21.6Q113.8 21.8 113.6 22.1Q113.4 22.4 113.4 22.9Z "/></g></svg>