<!-- Generated by readme-aura https://github.com/collectioneur/readme-aura -->
<svg width="160" height="44" viewBox="0 0 160 44" xmlns="http://www.w3.org/2000/svg"><mask id="satori_om-id"><rect x="0" y="0" width="160" height="44" fill="#fff"/></mask><path x="0" y="0" width="160" height="44" fill="#e2e8f0" d="M22,0 h116 a22,22 0 0 1 22,22 v0 a22,22 0 0 1 -22,22 h-116 a22,22 0 0 1 -22,-22 v0 a22,22 0 0 1 22,-22"/><clipPath id="satori_cp-id-0"><rect x="0" y="0" width="160" height="44"/></clipPath><mask id="satori_om-id-0"><rect x="0" y="0" width="160" height="44" fill="#fff"/></mask><svg x="0" y="0" width="160" height="44" preserveAspectRatio="none" clip-path="url(#satori_cp-id-0)" mask="url(#satori_om-id-0)"><defs><linearGradient id="smb-grad-LinkedIn" gradientUnits="objectBoundingBox" x1="0" y1="0" x2="1" y2="1"><stop offset="0%" stop-color="#ffffff"></stop><stop offset="10%" stop-color="#111111"></stop><stop offset="50%" stop-color="#eeeeee"></stop><stop offset="60%" stop-color="#ffbbaa"></stop><stop offset="80%" stop-color="#111111"></stop><stop offset="100%" stop-color="#555555"></stop><animateTransform attributeName="gradientTransform" type="rotate" from="0 0.5 0.5" to="360 0.5 0.5" dur="8s" repeatCount="indefinite"></animateTransform></linearGradient></defs><rect x="1.25" y="1.25" width="157.5" height="41.5" rx="20.75" ry="20.75" fill="none" stroke="url(#smb-grad-LinkedIn)" stroke-width="2" stroke-linecap="round" stroke-linejoin="round"></rect><rect x="0.25" y="0.25" width="159.5" height="43.5" rx="21.75" ry="21.75" fill="none" stroke="#cbd5f5" stroke-width="0.5" stroke-linecap="round" stroke-linejoin="round"></rect></svg><mask id="satori_om-id-0-0"><rect x="0" y="0" width="0" height="44" fill="#fff"/></mask><mask id="satori_om-id-0-0-0"><rect x="0" y="0" width="0" height="44" fill="#fff"/></mask><mask id="satori_om-id-0-0-0-0"><rect x="0" y="0" width="0" height="44" fill="#fff"/></mask><mask id="satori_om-id-0-0-0-1"><rect x="0" y="0" width="0" height="44" fill="#fff"/></mask><mask id="satori_om-id-0-0-0-2"><rect x="0" y="0" width="0" height="44" fill="#fff"/></mask><mask id="satori_om-id-0-0-0-3"><rect x="0" y="0" width="0" height="44" fill="#fff"/></mask><mask id="satori_om-id-0-0-0-4"><rect x="0" y="0" width="0" height="44" fill="#fff"/></mask><mask id="satori_om-id-0-0-0-5"><rect x="0" y="0" width="0" height="44" fill="#fff"/></mask><mask id="satori_om-id-0-0-0-6"><rect x="0" y="0" width="0" height="44" fill="#fff"/></mask><mask id="satori_om-id-0-1"><rect x="0" y="0" width="0" height="44" fill="#fff"/></mask><mask id="satori_om-id-0-2"><rect x="0" y="0" width="0" height="44" fill="#fff"/></mask><mask id="satori_om-id-1"><rect x="0" y="0" width="160" height="44" fill="#fff"/></mask><mask id="satori_om-id-1-0"><rect x="40" y="11" width="22" height="22" fill="#fff"/></mask><mask id="satori_om-id-1-1"><rect x="67" y="14" width="53" height="16" fill="#fff"/></mask><g  ><path fill="#0b1220" d="M73.9 27L67.9 27L67.9 17.5L69.8 17.5L69.8 25.4L73.9 25.4L73.9 27ZM76.9 27L75.0 27L75.0 19.9L76.9 19.9L76.9 27ZM75.9 19.0L75.9 19.0Q75.5 19.0 75.2 18.7Q74.9 18.4 74.9 18.0L74.9 18.0Q74.9 17.6 75.2 17.3Q75.5 17.0 75.9 17.0L75.9 17.0Q76.3 17.0 76.7 17.3Q77.0 17.6 77.0 18.0L77.0 18.0Q77.0 18.4 76.7 18.7Q76.3 19.0 75.9 19.0ZM80.2 22.9L80.2 22.9L80.2 27L78.3 27L78.3 19.9L80.1 19.9L80.1 21.4Q80.4 20.7 80.9 20.3L80.9 20.3Q81.4 19.8 82.3 19.8L82.3 19.8Q83.1 19.8 83.6 20.1Q84.2 20.5 84.5 21.1Q84.8 21.7 84.8 22.5L84.8 22.5L84.8 27L82.8 27L82.8 22.8Q82.8 22.2 82.5 21.8Q82.2 21.4 81.6 21.4L81.6 21.4Q81.2 21.4 80.9 21.6Q80.5 21.8 80.4 22.1Q80.2 22.4 80.2 22.9ZM88.1 27L86.2 27L86.2 17.5L88.1 17.5L88.1 22.6L88.2 22.6L90.5 19.9L92.7 19.9L90.1 23.0L92.9 27L90.6 27L88.6 24.1L88.1 24.7L88.1 27ZM96.7 27.1L96.7 27.1Q95.6 27.1 94.9 26.7Q94.1 26.3 93.6 25.4Q93.2 24.6 93.2 23.5L93.2 23.5Q93.2 22.4 93.6 21.6Q94.1 20.7 94.8 20.3Q95.6 19.8 96.6 19.8L96.6 19.8Q97.3 19.8 97.9 20.0Q98.5 20.3 99.0 20.7Q99.4 21.2 99.7 21.8Q100.0 22.5 100.0 23.4L100.0 23.4L100.0 23.9L95.1 23.9Q95.1 24.5 95.3 24.9L95.3 24.9Q95.5 25.3 95.9 25.5Q96.3 25.7 96.8 25.7L96.8 25.7Q97.1 25.7 97.4 25.6Q97.6 25.5 97.8 25.3Q98.0 25.1 98.1 24.9L98.1 24.9L99.9 25.2Q99.7 25.8 99.3 26.2Q98.8 26.7 98.2 26.9Q97.6 27.1 96.7 27.1ZM95.1 22.8L95.1 22.8L98.1 22.8Q98.1 22.4 98.0 22.1L98.0 22.1Q97.8 21.7 97.5 21.5Q97.1 21.2 96.6 21.2L96.6 21.2Q96.2 21.2 95.8 21.5Q95.5 21.7 95.3 22.1L95.3 22.1Q95.2 22.4 95.1 22.8ZM103.7 27.1L103.7 27.1Q102.8 27.1 102.2 26.7Q101.5 26.3 101.1 25.5Q100.8 24.6 100.8 23.5L100.8 23.5Q100.8 22.3 101.2 21.4Q101.6 20.6 102.2 20.2Q102.9 19.8 103.6 19.8L103.6 19.8Q104.3 19.8 104.7 20.0Q105.1 20.2 105.3 20.5Q105.5 20.8 105.7 21.1L105.7 21.1L105.7 21.1L105.7 17.5L107.6 17.5L107.6 27L105.8 27L105.8 25.9L105.7 25.9Q105.5 26.1 105.3 26.4Q105.0 26.7 104.6 26.9Q104.2 27.1 103.7 27.1ZM104.2 25.6L104.2 25.6Q104.7 25.6 105.1 25.3Q105.4 25.1 105.6 24.6Q105.8 24.1 105.8 23.5L105.8 23.5Q105.8 22.8 105.6 22.3Q105.4 21.9 105.1 21.6Q104.7 21.3 104.2 21.3L104.2 21.3Q103.7 21.3 103.4 21.6Q103.1 21.9 102.9 22.4Q102.7 22.8 102.7 23.5L102.7 23.5Q102.7 24.1 102.9 24.6Q103.1 25.0 103.4 25.3Q103.7 25.6 104.2 25.6ZM109.1 17.5L111.0 17.5L111.0 27L109.1 27L109.1 17.5ZM114.4 22.9L114.4 22.9L114.4 27L112.5 27L112.5 19.9L114.3 19.9L114.3 21.4Q114.6 20.7 115.1 20.3L115.1 20.3Q115.6 19.8 116.5 19.8L116.5 19.8Q117.3 19.8 117.8 20.1Q118.4 20.5 118.7 21.1Q119.0 21.7 119.0 22.5L119.0 22.5L119.0 27L117.1 27L117.1 22.8Q117.1 22.2 116.7 21.8Q116.4 21.4 115.8 21.4L115.8 21.4Q115.4 21.4 115.1 21.6Q114.8 21.8 114.6 22.1Q114.4 22.4 114.4 22.9Z "/></g></svg>