<!-- Generated by readme-aura https://github.com/collectioneur/readme-aura -->
<svg width="150" height="44" viewBox="0 0 150 44" xmlns="http://www.w3.org/2000/svg"><mask id="satori_om-id"><rect x="0" y="0" width="150" height="44" fill="#fff"/></mask><path x="0" y="0" width="150" height="44" fill="#111827" d="M22,0 h106 a22,22 0 0 1 22,22 v0 a22,22 0 0 1 -22,22 h-106 a22,22 0 0 1 -22,-22 v0 a22,22 0 0 1 22,-22"/><clipPath id="satori_cp-id-0"><rect x="0" y="0" width="150" height="44"/></clipPath><mask id="satori_om-id-0"><rect x="0" y="0" width="150" height="44" fill="#fff"/></mask><svg x="0" y="0" width="150" height="44" preserveAspectRatio="none" clip-path="url(#satori_cp-id-0)" mask="url(#satori_om-id-0)"><defs><linearGradient id="smb-grad-GitHub" gradientUnits="objectBoundingBox" x1="0" y1="0" x2="1" y2="1"><stop offset="0%" stop-color="#ffffff"></stop><stop offset="10%" stop-color="#111111"></stop><stop offset="50%" stop-color="#eeeeee"></stop><stop offset="60%" stop-color="#ffbbaa"></stop><stop offset="80%" stop-color="#111111"></stop><stop offset="100%" stop-color="#555555"></stop><animateTransform attributeName="gradientTransform" type="rotate" from="0 0.5 0.5" to="360 0.5 0.5" dur="8s" repeatCount="indefinite"></animateTransform></linearGradient></defs><rect x="1.25" y="1.25" width="147.5" height="41.5" rx="20.75" ry="20.75" fill="none" stroke="url(#smb-grad-GitHub)" stroke-width="2" stroke-linecap="round" stroke-linejoin="round"></rect><rect x="0.25" y="0.25" width="149.5" height="43.5" rx="21.75" ry="21.75" fill="none" stroke="#AAAAAA" stroke-width="0.5" stroke-linecap="round" stroke-linejoin="round"></rect></svg><mask id="satori_om-id-0-0"><rect x="0" y="0" width="0" height="44" fill="#fff"/></mask><mask id="satori_om-id-0-0-0"><rect x="0" y="0" width="0" height="44" fill="#fff"/></mask><mask id="satori_om-id-0-0-0-0"><rect x="0" y="0" width="0" height="44" fill="#fff"/></mask><mask id="satori_om-id-0-0-0-1"><rect x="0" y="0" width="0" height="44" fill="#fff"/></mask><mask id="satori_om-id-0-0-0-2"><rect x="0" y="0" width="0" height="44" fill="#fff"/></mask><mask id="satori_om-id-0-0-0-3"><rect x="0" y="0" width="0" height="44" fill="#fff"/></mask><mask id="satori_om-id-0-0-0-4"><rect x="0" y="0" width="0" height="44" fill="#fff"/></mask><mask id="satori_om-id-0-0-0-5"><rect x="0" y="0" width="0" height="44" fill="#fff"/></mask><mask id="satori_om-id-0-0-0-6"><rect x="0" y="0" width="0" height="44" fill="#fff"/></mask><mask id="satori_om-id-0-1"><rect x="0" y="0" width="0" height="44" fill="#fff"/></mask><mask id="satori_om-id-0-2"><rect x="0" y="0" width="0" height="44" fill="#fff"/></mask><mask id="satori_om-id-1"><rect x="0" y="0" width="150" height="44" fill="#fff"/></mask><mask id="satori_om-id-1-0"><rect x="41" y="12" width="20" height="20" fill="#fff"/></mask><mask id="satori_om-id-1-1"><rect x="66" y="14" width="43" height="16" fill="#fff"/></mask><g  ><path fill="#ffffff" d="M71.0 27.1L71.0 27.1Q69.7 27.1 68.7 26.5Q67.7 26.0 67.2 24.9Q66.6 23.8 66.6 22.3L66.6 22.3Q66.6 20.7 67.2 19.7Q67.8 18.6 68.8 18.0Q69.8 17.4 71.0 17.4L71.0 17.4Q71.8 17.4 72.5 17.6Q73.2 17.9 73.7 18.3Q74.3 18.7 74.6 19.3Q74.9 19.9 75.0 20.6L75.0 20.6L73.1 20.6Q73.0 20.3 72.8 20.0Q72.6 19.7 72.3 19.5Q72.1 19.3 71.8 19.2Q71.4 19.1 71.0 19.1L71.0 19.1Q70.3 19.1 69.7 19.5Q69.2 19.9 68.9 20.6Q68.6 21.3 68.6 22.3Q68.6 23.3 68.9 24.0Q69.2 24.7 69.7 25.0Q70.3 25.4 71.1 25.4L71.1 25.4Q71.7 25.4 72.2 25.2Q72.7 24.9 73.0 24.4L73.0 24.4Q73.2 24.0 73.2 23.4L73.2 23.4L71.2 23.4L71.2 22.0L75.1 22.0L75.1 23.1Q75.1 24.4 74.6 25.3Q74.1 26.2 73.2 26.6Q72.2 27.1 71.0 27.1ZM78.3 27L76.4 27L76.4 19.9L78.3 19.9L78.3 27ZM77.3 19.0L77.3 19.0Q76.9 19.0 76.6 18.7Q76.3 18.4 76.3 18.0L76.3 18.0Q76.3 17.6 76.6 17.3Q76.9 17.0 77.3 17.0L77.3 17.0Q77.8 17.0 78.1 17.3Q78.4 17.6 78.4 18.0L78.4 18.0Q78.4 18.4 78.1 18.7Q77.8 19.0 77.3 19.0ZM81.9 19.9L83.2 19.9L83.2 21.4L81.9 21.4L81.9 24.9Q81.9 25.3 82.0 25.4Q82.2 25.6 82.5 25.6L82.5 25.6Q82.6 25.6 82.8 25.6Q83.0 25.5 83.1 25.5L83.1 25.5L83.4 26.9Q83.1 27.0 82.8 27.1Q82.5 27.1 82.2 27.1L82.2 27.1Q81.1 27.1 80.5 26.6Q80.0 26.1 80.0 25.1L80.0 25.1L80.0 21.4L79.0 21.4L79.0 19.9L80.0 19.9L80.0 18.2L81.9 18.2L81.9 19.9ZM86.2 27L84.3 27L84.3 17.5L86.2 17.5L86.2 21.4L90.4 21.4L90.4 17.5L92.3 17.5L92.3 27L90.4 27L90.4 23.0L86.2 23.0L86.2 27ZM96.2 27.1L96.2 27.1Q95.5 27.1 94.9 26.8Q94.4 26.4 94.1 25.8Q93.8 25.2 93.8 24.4L93.8 24.4L93.8 19.9L95.7 19.9L95.7 24.1Q95.7 24.7 96.0 25.1Q96.4 25.5 97.0 25.5L97.0 25.5Q97.4 25.5 97.7 25.3Q98.0 25.1 98.2 24.8Q98.3 24.5 98.3 24.0L98.3 24.0L98.3 19.9L100.2 19.9L100.2 27L98.4 27L98.4 25.5Q98.1 26.2 97.7 26.6L97.7 26.6Q97.1 27.1 96.2 27.1ZM105.6 27.1L105.6 27.1Q105.1 27.1 104.7 26.9Q104.3 26.7 104.0 26.4Q103.8 26.1 103.6 25.9L103.6 25.9L103.5 25.9L103.5 27L101.7 27L101.7 17.5L103.6 17.5L103.6 21.1L103.6 21.1Q103.8 20.8 104.0 20.5Q104.2 20.2 104.6 20.0Q105.0 19.8 105.6 19.8L105.6 19.8Q106.4 19.8 107.1 20.2Q107.7 20.6 108.1 21.4Q108.5 22.3 108.5 23.5L108.5 23.5Q108.5 24.6 108.1 25.5Q107.8 26.3 107.1 26.7Q106.5 27.1 105.6 27.1ZM105.0 25.6L105.0 25.6Q105.5 25.6 105.9 25.3Q106.2 25.0 106.4 24.6Q106.6 24.1 106.6 23.5L106.6 23.5Q106.6 22.8 106.4 22.4Q106.2 21.9 105.9 21.6Q105.5 21.3 105.0 21.3L105.0 21.3Q104.6 21.3 104.2 21.6Q103.9 21.9 103.7 22.3Q103.5 22.8 103.5 23.5L103.5 23.5Q103.5 24.1 103.7 24.6Q103.9 25.1 104.2 25.3Q104.6 25.6 105.0 25.6Z "/></g></svg>