<!-- Generated by readme-aura https://github.com/collectioneur/readme-aura -->
<svg width="160" height="44" viewBox="0 0 160 44" xmlns="http://www.w3.org/2000/svg"><mask id="satori_om-id"><rect x="0" y="0" width="160" height="44" fill="#fff"/></mask><path x="0" y="0" width="160" height="44" fill="#e2e8f0" d="M22,0 h116 a22,22 0 0 1 22,22 v0 a22,22 0 0 1 -22,22 h-116 a22,22 0 0 1 -22,-22 v0 a22,22 0 0 1 22,-22"/><clipPath id="satori_cp-id-0"><rect x="0" y="0" width="160" height="44"/></clipPath><mask id="satori_om-id-0"><rect x="0" y="0" width="160" height="44" fill="#fff"/></mask><svg x="0" y="0" width="160" height="44" preserveAspectRatio="none" clip-path="url(#satori_cp-id-0)" mask="url(#satori_om-id-0)"><defs><linearGradient id="smb-grad-Website" gradientUnits="objectBoundingBox" x1="0" y1="0" x2="1" y2="1"><stop offset="0%" stop-color="#ffffff"></stop><stop offset="10%" stop-color="#111111"></stop><stop offset="50%" stop-color="#eeeeee"></stop><stop offset="60%" stop-color="#ffbbaa"></stop><stop offset="80%" stop-color="#111111"></stop><stop offset="100%" stop-color="#555555"></stop><animateTransform attributeName="gradientTransform" type="rotate" from="0 0.5 0.5" to="360 0.5 0.5" dur="8s" repeatCount="indefinite"></animateTransform></linearGradient></defs><rect x="1.25" y="1.25" width="157.5" height="41.5" rx="20.75" ry="20.75" fill="none" stroke="url(#smb-grad-Website)" stroke-width="2" stroke-linecap="round" stroke-linejoin="round"></rect><rect x="0.25" y="0.25" width="159.5" height="43.5" rx="21.75" ry="21.75" fill="none" stroke="#cbd5f5" stroke-width="0.5" stroke-linecap="round" stroke-linejoin="round"></rect></svg><mask id="satori_om-id-0-0"><rect x="0" y="0" width="0" height="44" fill="#fff"/></mask><mask id="satori_om-id-0-0-0"><rect x="0" y="0" width="0" height="44" fill="#fff"/></mask><mask id="satori_om-id-0-0-0-0"><rect x="0" y="0" width="0" height="44" fill="#fff"/></mask><mask id="satori_om-id-0-0-0-1"><rect x="0" y="0" width="0" height="44" fill="#fff"/></mask><mask id="satori_om-id-0-0-0-2"><rect x="0" y="0" width="0" height="44" fill="#fff"/></mask><mask id="satori_om-id-0-0-0-3"><rect x="0" y="0" width="0" height="44" fill="#fff"/></mask><mask id="satori_om-id-0-0-0-4"><rect x="0" y="0" width="0" height="44" fill="#fff"/></mask><mask id="satori_om-id-0-0-0-5"><rect x="0" y="0" width="0" height="44" fill="#fff"/></mask><mask id="satori_om-id-0-0-0-6"><rect x="0" y="0" width="0" height="44" fill="#fff"/></mask><mask id="satori_om-id-0-1"><rect x="0" y="0" width="0" height="44" fill="#fff"/></mask><mask id="satori_om-id-0-2"><rect x="0" y="0" width="0" height="44" fill="#fff"/></mask><mask id="satori_om-id-1"><rect x="0" y="0" width="160" height="44" fill="#fff"/></mask><mask id="satori_om-id-1-0"><rect x="41" y="11" width="22" height="22" fill="#fff"/></mask><mask id="satori_om-id-1-1"><rect x="68" y="14" width="52" height="16" fill="#fff"/></mask><g  ><path fill="#0b1220" d="M73.1 27L70.9 27L68.3 17.5L70.4 17.5L71.5 22.2Q71.7 22.8 71.8 23.4Q71.9 24.1 72.0 24.8L72.0 24.8Q72.0 24.9 72.0 25.1L72.0 25.1Q72.1 24.9 72.1 24.8L72.1 24.8Q72.2 24.1 72.3 23.4Q72.4 22.8 72.6 22.2L72.6 22.2L73.7 17.5L75.8 17.5L76.9 22.2Q77.0 22.8 77.2 23.4Q77.3 24.1 77.4 24.8L77.4 24.8Q77.4 24.9 77.5 25.0L77.5 25.0Q77.5 24.9 77.5 24.8L77.5 24.8Q77.6 24.1 77.7 23.4Q77.8 22.8 78.0 22.2L78.0 22.2L79.1 17.5L81.2 17.5L78.6 27L76.4 27L75.2 22.2Q75.0 21.4 74.8 20.4L74.8 20.4Q74.8 20.1 74.7 19.9L74.7 19.9Q74.7 20.1 74.7 20.4L74.7 20.4Q74.5 21.3 74.3 22.2L74.3 22.2L73.1 27ZM85.3 27.1L85.3 27.1Q84.2 27.1 83.4 26.7Q82.6 26.3 82.2 25.4Q81.8 24.6 81.8 23.5L81.8 23.5Q81.8 22.4 82.2 21.6Q82.6 20.7 83.4 20.3Q84.2 19.8 85.2 19.8L85.2 19.8Q85.9 19.8 86.5 20.0Q87.1 20.3 87.6 20.7Q88.0 21.2 88.3 21.8Q88.5 22.5 88.5 23.4L88.5 23.4L88.5 23.9L83.7 23.9Q83.7 24.5 83.9 24.9L83.9 24.9Q84.1 25.3 84.5 25.5Q84.8 25.7 85.3 25.7L85.3 25.7Q85.7 25.7 85.9 25.6Q86.2 25.5 86.4 25.3Q86.6 25.1 86.7 24.9L86.7 24.9L88.4 25.2Q88.3 25.8 87.8 26.2Q87.4 26.7 86.8 26.9Q86.1 27.1 85.3 27.1ZM83.7 22.8L83.7 22.8L86.7 22.8Q86.7 22.4 86.6 22.1L86.6 22.1Q86.4 21.7 86.1 21.5Q85.7 21.2 85.2 21.2L85.2 21.2Q84.7 21.2 84.4 21.5Q84.0 21.7 83.9 22.1L83.9 22.1Q83.7 22.4 83.7 22.8ZM93.6 27.1L93.6 27.1Q93.0 27.1 92.6 26.9Q92.2 26.7 92.0 26.4Q91.7 26.1 91.6 25.9L91.6 25.9L91.5 25.9L91.5 27L89.6 27L89.6 17.5L91.5 17.5L91.5 21.1L91.6 21.1Q91.7 20.8 92.0 20.5Q92.2 20.2 92.6 20.0Q93.0 19.8 93.6 19.8L93.6 19.8Q94.4 19.8 95.1 20.2Q95.7 20.6 96.1 21.4Q96.5 22.3 96.5 23.5L96.5 23.5Q96.5 24.6 96.1 25.5Q95.7 26.3 95.1 26.7Q94.4 27.1 93.6 27.1ZM93.0 25.6L93.0 25.6Q93.5 25.6 93.9 25.3Q94.2 25.0 94.4 24.6Q94.6 24.1 94.6 23.5L94.6 23.5Q94.6 22.8 94.4 22.4Q94.2 21.9 93.9 21.6Q93.5 21.3 93.0 21.3L93.0 21.3Q92.5 21.3 92.2 21.6Q91.9 21.9 91.7 22.3Q91.5 22.8 91.5 23.5L91.5 23.5Q91.5 24.1 91.7 24.6Q91.9 25.1 92.2 25.3Q92.6 25.6 93.0 25.6ZM100.5 27.1L100.5 27.1Q99.6 27.1 98.9 26.9Q98.3 26.7 97.9 26.2Q97.4 25.7 97.3 25.1L97.3 25.1L99.1 24.8Q99.2 25.2 99.6 25.5Q99.9 25.7 100.5 25.7L100.5 25.7Q101.1 25.7 101.4 25.5Q101.7 25.3 101.7 25.0L101.7 25.0Q101.7 24.7 101.5 24.6Q101.2 24.4 100.8 24.3L100.8 24.3L99.6 24.0Q98.5 23.8 98.0 23.3Q97.5 22.8 97.5 22.0L97.5 22.0Q97.5 21.3 97.9 20.8Q98.3 20.3 98.9 20.1Q99.6 19.8 100.5 19.8L100.5 19.8Q101.3 19.8 101.9 20.0Q102.6 20.3 102.9 20.7Q103.3 21.1 103.4 21.7L103.4 21.7L101.8 22.0Q101.7 21.6 101.3 21.4Q101.0 21.2 100.5 21.2L100.5 21.2Q100.0 21.2 99.7 21.4Q99.4 21.6 99.4 21.9L99.4 21.9Q99.4 22.2 99.6 22.4Q99.8 22.5 100.3 22.6L100.3 22.6L101.6 22.9Q102.6 23.1 103.1 23.6Q103.6 24.0 103.6 24.8L103.6 24.8Q103.6 25.5 103.2 26.0Q102.8 26.6 102.1 26.8Q101.4 27.1 100.5 27.1ZM106.6 27L104.7 27L104.7 19.9L106.6 19.9L106.6 27ZM105.7 19.0L105.7 19.0Q105.2 19.0 104.9 18.7Q104.6 18.4 104.6 18.0L104.6 18.0Q104.6 17.6 104.9 17.3Q105.2 17.0 105.7 17.0L105.7 17.0Q106.1 17.0 106.4 17.3Q106.7 17.6 106.7 18.0L106.7 18.0Q106.7 18.4 106.4 18.7Q106.1 19.0 105.7 19.0ZM110.2 19.9L111.6 19.9L111.6 21.4L110.2 21.4L110.2 24.9Q110.2 25.3 110.4 25.4Q110.5 25.6 110.9 25.6L110.9 25.6Q111.0 25.6 111.2 25.6Q111.4 25.5 111.5 25.5L111.5 25.5L111.8 26.9Q111.4 27.0 111.1 27.1Q110.8 27.1 110.5 27.1L110.5 27.1Q109.5 27.1 108.9 26.6Q108.3 26.1 108.3 25.1L108.3 25.1L108.3 21.4L107.4 21.4L107.4 19.9L108.3 19.9L108.3 18.2L110.2 18.2L110.2 19.9ZM115.8 27.1L115.8 27.1Q114.7 27.1 113.9 26.7Q113.2 26.3 112.7 25.4Q112.3 24.6 112.3 23.5L112.3 23.5Q112.3 22.4 112.7 21.6Q113.1 20.7 113.9 20.3Q114.7 19.8 115.7 19.8L115.7 19.8Q116.4 19.8 117.0 20.0Q117.6 20.3 118.1 20.7Q118.5 21.2 118.8 21.8Q119.0 22.5 119.0 23.4L119.0 23.4L119.0 23.9L114.2 23.9Q114.2 24.5 114.4 24.9L114.4 24.9Q114.6 25.3 115.0 25.5Q115.3 25.7 115.8 25.7L115.8 25.7Q116.2 25.7 116.5 25.6Q116.7 25.5 116.9 25.3Q117.1 25.1 117.2 24.9L117.2 24.9L118.9 25.2Q118.8 25.8 118.3 26.2Q117.9 26.7 117.3 26.9Q116.6 27.1 115.8 27.1ZM114.2 22.8L114.2 22.8L117.2 22.8Q117.2 22.4 117.1 22.1L117.1 22.1Q116.9 21.7 116.6 21.5Q116.2 21.2 115.7 21.2L115.7 21.2Q115.2 21.2 114.9 21.5Q114.5 21.7 114.4 22.1L114.4 22.1Q114.2 22.4 114.2 22.8Z "/></g></svg>