<!-- Generated by readme-aura https://github.com/collectioneur/readme-aura -->
<svg width="160" height="44" viewBox="0 0 160 44" xmlns="http://www.w3.org/2000/svg"><mask id="satori_om-id"><rect x="0" y="0" width="160" height="44" fill="#fff"/></mask><path x="0" y="0" width="160" height="44" fill="#0b4f6c" d="M22,0 h116 a22,22 0 0 1 22,22 v0 a22,22 0 0 1 -22,22 h-116 a22,22 0 0 1 -22,-22 v0 a22,22 0 0 1 22,-22"/><clipPath id="satori_cp-id-0"><rect x="0" y="0" width="160" height="44"/></clipPath><mask id="satori_om-id-0"><rect x="0" y="0" width="160" height="44" fill="#fff"/></mask><svg x="0" y="0" width="160" height="44" preserveAspectRatio="none" clip-path="url(#satori_cp-id-0)" mask="url(#satori_om-id-0)"><defs><linearGradient id="smb-grad-Website" gradientUnits="objectBoundingBox" x1="0" y1="0" x2="1" y2="1"><stop offset="0%" stop-color="#ffffff"></stop><stop offset="10%" stop-color="#111111"></stop><stop offset="50%" stop-color="#eeeeee"></stop><stop offset="60%" stop-color="#ffbbaa"></stop><stop offset="80%" stop-color="#111111"></stop><stop offset="100%" stop-color="#555555"></stop><animateTransform attributeName="gradientTransform" type="rotate" from="0 0.5 0.5" to="360 0.5 0.5" dur="8s" repeatCount="indefinite"></animateTransform></linearGradient></defs><rect x="1.25" y="1.25" width="157.5" height="41.5" rx="20.75" ry="20.75" fill="none" stroke="url(#smb-grad-Website)" stroke-width="2" stroke-linecap="round" stroke-linejoin="round"></rect><rect x="0.25" y="0.25" width="159.5" height="43.5" rx="21.75" ry="21.75" fill="none" stroke="#AAAAAA" stroke-width="0.5" stroke-linecap="round" stroke-linejoin="round"></rect></svg><mask id="satori_om-id-0-0"><rect x="0" y="0" width="0" height="44" fill="#fff"/></mask><mask id="satori_om-id-0-0-0"><rect x="0" y="0" width="0" height="44" fill="#fff"/></mask><mask id="satori_om-id-0-0-0-0"><rect x="0" y="0" width="0" height="44" fill="#fff"/></mask><mask id="satori_om-id-0-0-0-1"><rect x="0" y="0" width="0" height="44" fill="#fff"/></mask><mask id="satori_om-id-0-0-0-2"><rect x="0" y="0" width="0" height="44" fill="#fff"/></mask><mask id="satori_om-id-0-0-0-3"><rect x="0" y="0" width="0" height="44" fill="#fff"/></mask><mask id="satori_om-id-0-0-0-4"><rect x="0" y="0" width="0" height="44" fill="#fff"/></mask><mask id="satori_om-id-0-0-0-5"><rect x="0" y="0" width="0" height="44" fill="#fff"/></mask><mask id="satori_om-id-0-0-0-6"><rect x="0" y="0" width="0" height="44" fill="#fff"/></mask><mask id="satori_om-id-0-1"><rect x="0" y="0" width="0" height="44" fill="#fff"/></mask><mask id="satori_om-id-0-2"><rect x="0" y="0" width="0" height="44" fill="#fff"/></mask><mask id="satori_om-id-1"><rect x="0" y="0" width="160" height="44" fill="#fff"/></mask><mask id="satori_om-id-1-0"><rect x="42" y="12" width="20" height="20" fill="#fff"/></mask><mask id="satori_om-id-1-1"><rect x="67" y="14" width="52" height="16" fill="#fff"/></mask><g  ><path fill="#ffffff" d="M72.1 27L69.9 27L67.3 17.5L69.4 17.5L70.5 22.2Q70.7 22.8 70.8 23.4Q70.9 24.1 71.0 24.8L71.0 24.8Q71.0 24.9 71.0 25.1L71.0 25.1Q71.1 24.9 71.1 24.8L71.1 24.8Q71.2 24.1 71.3 23.4Q71.4 22.8 71.6 22.2L71.6 22.2L72.7 17.5L74.8 17.5L75.9 22.2Q76.0 22.8 76.2 23.4Q76.3 24.1 76.4 24.8L76.4 24.8Q76.4 24.9 76.5 25.0L76.5 25.0Q76.5 24.9 76.5 24.8L76.5 24.8Q76.6 24.1 76.7 23.4Q76.8 22.8 77.0 22.2L77.0 22.2L78.1 17.5L80.2 17.5L77.6 27L75.4 27L74.2 22.2Q74.0 21.4 73.8 20.4L73.8 20.4Q73.8 20.1 73.7 19.9L73.7 19.9Q73.7 20.1 73.7 20.4L73.7 20.4Q73.5 21.3 73.3 22.2L73.3 22.2L72.1 27ZM84.3 27.1L84.3 27.1Q83.2 27.1 82.4 26.7Q81.6 26.3 81.2 25.4Q80.8 24.6 80.8 23.5L80.8 23.5Q80.8 22.4 81.2 21.6Q81.6 20.7 82.4 20.3Q83.2 19.8 84.2 19.8L84.2 19.8Q84.9 19.8 85.5 20.0Q86.1 20.3 86.6 20.7Q87.0 21.2 87.3 21.8Q87.5 22.5 87.5 23.4L87.5 23.4L87.5 23.9L82.7 23.9Q82.7 24.5 82.9 24.9L82.9 24.9Q83.1 25.3 83.5 25.5Q83.8 25.7 84.3 25.7L84.3 25.7Q84.7 25.7 84.9 25.6Q85.2 25.5 85.4 25.3Q85.6 25.1 85.7 24.9L85.7 24.9L87.4 25.2Q87.3 25.8 86.8 26.2Q86.4 26.7 85.8 26.9Q85.1 27.1 84.3 27.1ZM82.7 22.8L82.7 22.8L85.7 22.8Q85.7 22.4 85.6 22.1L85.6 22.1Q85.4 21.7 85.1 21.5Q84.7 21.2 84.2 21.2L84.2 21.2Q83.7 21.2 83.4 21.5Q83.0 21.7 82.9 22.1L82.9 22.1Q82.7 22.4 82.7 22.8ZM92.6 27.1L92.6 27.1Q92.0 27.1 91.6 26.9Q91.2 26.7 91.0 26.4Q90.7 26.1 90.6 25.9L90.6 25.9L90.5 25.9L90.5 27L88.6 27L88.6 17.5L90.5 17.5L90.5 21.1L90.6 21.1Q90.7 20.8 91.0 20.5Q91.2 20.2 91.6 20.0Q92.0 19.8 92.6 19.8L92.6 19.8Q93.4 19.8 94.1 20.2Q94.7 20.6 95.1 21.4Q95.5 22.3 95.5 23.5L95.5 23.5Q95.5 24.6 95.1 25.5Q94.7 26.3 94.1 26.7Q93.4 27.1 92.6 27.1ZM92.0 25.6L92.0 25.6Q92.5 25.6 92.9 25.3Q93.2 25.0 93.4 24.6Q93.6 24.1 93.6 23.5L93.6 23.5Q93.6 22.8 93.4 22.4Q93.2 21.9 92.9 21.6Q92.5 21.3 92.0 21.3L92.0 21.3Q91.5 21.3 91.2 21.6Q90.9 21.9 90.7 22.3Q90.5 22.8 90.5 23.5L90.5 23.5Q90.5 24.1 90.7 24.6Q90.9 25.1 91.2 25.3Q91.6 25.6 92.0 25.6ZM99.5 27.1L99.5 27.1Q98.6 27.1 97.9 26.9Q97.3 26.7 96.9 26.2Q96.4 25.7 96.3 25.1L96.3 25.1L98.1 24.8Q98.2 25.2 98.6 25.5Q98.9 25.7 99.5 25.7L99.5 25.7Q100.1 25.7 100.4 25.5Q100.7 25.3 100.7 25.0L100.7 25.0Q100.7 24.7 100.5 24.6Q100.2 24.4 99.8 24.3L99.8 24.3L98.6 24.0Q97.5 23.8 97.0 23.3Q96.5 22.8 96.5 22.0L96.5 22.0Q96.5 21.3 96.9 20.8Q97.3 20.3 97.9 20.1Q98.6 19.8 99.5 19.8L99.5 19.8Q100.3 19.8 100.9 20.0Q101.6 20.3 101.9 20.7Q102.3 21.1 102.4 21.7L102.4 21.7L100.8 22.0Q100.7 21.6 100.3 21.4Q100.0 21.2 99.5 21.2L99.5 21.2Q99.0 21.2 98.7 21.4Q98.4 21.6 98.4 21.9L98.4 21.9Q98.4 22.2 98.6 22.4Q98.8 22.5 99.3 22.6L99.3 22.6L100.6 22.9Q101.6 23.1 102.1 23.6Q102.6 24.0 102.6 24.8L102.6 24.8Q102.6 25.5 102.2 26.0Q101.8 26.6 101.1 26.8Q100.4 27.1 99.5 27.1ZM105.6 27L103.7 27L103.7 19.9L105.6 19.9L105.6 27ZM104.7 19.0L104.7 19.0Q104.2 19.0 103.9 18.7Q103.6 18.4 103.6 18.0L103.6 18.0Q103.6 17.6 103.9 17.3Q104.2 17.0 104.7 17.0L104.7 17.0Q105.1 17.0 105.4 17.3Q105.7 17.6 105.7 18.0L105.7 18.0Q105.7 18.4 105.4 18.7Q105.1 19.0 104.7 19.0ZM109.2 19.9L110.6 19.9L110.6 21.4L109.2 21.4L109.2 24.9Q109.2 25.3 109.4 25.4Q109.5 25.6 109.9 25.6L109.9 25.6Q110.0 25.6 110.2 25.6Q110.4 25.5 110.5 25.5L110.5 25.5L110.8 26.9Q110.4 27.0 110.1 27.1Q109.8 27.1 109.5 27.1L109.5 27.1Q108.5 27.1 107.9 26.6Q107.3 26.1 107.3 25.1L107.3 25.1L107.3 21.4L106.4 21.4L106.4 19.9L107.3 19.9L107.3 18.2L109.2 18.2L109.2 19.9ZM114.8 27.1L114.8 27.1Q113.7 27.1 112.9 26.7Q112.2 26.3 111.7 25.4Q111.3 24.6 111.3 23.5L111.3 23.5Q111.3 22.4 111.7 21.6Q112.1 20.7 112.9 20.3Q113.7 19.8 114.7 19.8L114.7 19.8Q115.4 19.8 116.0 20.0Q116.6 20.3 117.1 20.7Q117.5 21.2 117.8 21.8Q118.0 22.5 118.0 23.4L118.0 23.4L118.0 23.9L113.2 23.9Q113.2 24.5 113.4 24.9L113.4 24.9Q113.6 25.3 114.0 25.5Q114.3 25.7 114.8 25.7L114.8 25.7Q115.2 25.7 115.5 25.6Q115.7 25.5 115.9 25.3Q116.1 25.1 116.2 24.9L116.2 24.9L117.9 25.2Q117.8 25.8 117.3 26.2Q116.9 26.7 116.3 26.9Q115.6 27.1 114.8 27.1ZM113.2 22.8L113.2 22.8L116.2 22.8Q116.2 22.4 116.1 22.1L116.1 22.1Q115.9 21.7 115.6 21.5Q115.2 21.2 114.7 21.2L114.7 21.2Q114.2 21.2 113.9 21.5Q113.5 21.7 113.4 22.1L113.4 22.1Q113.2 22.4 113.2 22.8Z "/></g></svg>