<!-- Generated by readme-aura https://github.com/collectioneur/readme-aura -->
<svg width="150" height="44" viewBox="0 0 150 44" xmlns="http://www.w3.org/2000/svg"><mask id="satori_om-id"><rect x="0" y="0" width="150" height="44" fill="#fff"/></mask><path x="0" y="0" width="150" height="44" fill="#e2e8f0" d="M22,0 h106 a22,22 0 0 1 22,22 v0 a22,22 0 0 1 -22,22 h-106 a22,22 0 0 1 -22,-22 v0 a22,22 0 0 1 22,-22"/><clipPath id="satori_cp-id-0"><rect x="0" y="0" width="150" height="44"/></clipPath><mask id="satori_om-id-0"><rect x="0" y="0" width="150" height="44" fill="#fff"/></mask><svg x="0" y="0" width="150" height="44" preserveAspectRatio="none" clip-path="url(#satori_cp-id-0)" mask="url(#satori_om-id-0)"><defs><linearGradient id="smb-grad-GitHub" gradientUnits="objectBoundingBox" x1="0" y1="0" x2="1" y2="1"><stop offset="0%" stop-color="#ffffff"></stop><stop offset="10%" stop-color="#111111"></stop><stop offset="50%" stop-color="#eeeeee"></stop><stop offset="60%" stop-color="#ffbbaa"></stop><stop offset="80%" stop-color="#111111"></stop><stop offset="100%" stop-color="#555555"></stop><animateTransform attributeName="gradientTransform" type="rotate" from="0 0.5 0.5" to="360 0.5 0.5" dur="8s" repeatCount="indefinite"></animateTransform></linearGradient></defs><rect x="1.25" y="1.25" width="147.5" height="41.5" rx="20.75" ry="20.75" fill="none" stroke="url(#smb-grad-GitHub)" stroke-width="2" stroke-linecap="round" stroke-linejoin="round"></rect><rect x="0.25" y="0.25" width="149.5" height="43.5" rx="21.75" ry="21.75" fill="none" stroke="#cbd5f5" stroke-width="0.5" stroke-linecap="round" stroke-linejoin="round"></rect></svg><mask id="satori_om-id-0-0"><rect x="0" y="0" width="0" height="44" fill="#fff"/></mask><mask id="satori_om-id-0-0-0"><rect x="0" y="0" width="0" height="44" fill="#fff"/></mask><mask id="satori_om-id-0-0-0-0"><rect x="0" y="0" width="0" height="44" fill="#fff"/></mask><mask id="satori_om-id-0-0-0-1"><rect x="0" y="0" width="0" height="44" fill="#fff"/></mask><mask id="satori_om-id-0-0-0-2"><rect x="0" y="0" width="0" height="44" fill="#fff"/></mask><mask id="satori_om-id-0-0-0-3"><rect x="0" y="0" width="0" height="44" fill="#fff"/></mask><mask id="satori_om-id-0-0-0-4"><rect x="0" y="0" width="0" height="44" fill="#fff"/></mask><mask id="satori_om-id-0-0-0-5"><rect x="0" y="0" width="0" height="44" fill="#fff"/></mask><mask id="satori_om-id-0-0-0-6"><rect x="0" y="0" width="0" height="44" fill="#fff"/></mask><mask id="satori_om-id-0-1"><rect x="0" y="0" width="0" height="44" fill="#fff"/></mask><mask id="satori_om-id-0-2"><rect x="0" y="0" width="0" height="44" fill="#fff"/></mask><mask id="satori_om-id-1"><rect x="0" y="0" width="150" height="44" fill="#fff"/></mask><mask id="satori_om-id-1-0"><rect x="40" y="11" width="22" height="22" fill="#fff"/></mask><mask id="satori_om-id-1-1"><rect x="67" y="14" width="43" height="16" fill="#fff"/></mask><g  ><path fill="#0b1220" d="M72.0 27.1L72.0 27.1Q70.7 27.1 69.7 26.5Q68.7 26.0 68.2 24.9Q67.6 23.8 67.6 22.3L67.6 22.3Q67.6 20.7 68.2 19.7Q68.8 18.6 69.8 18.0Q70.8 17.4 72.0 17.4L72.0 17.4Q72.8 17.4 73.5 17.6Q74.2 17.9 74.7 18.3Q75.3 18.7 75.6 19.3Q75.9 19.9 76.0 20.6L76.0 20.6L74.1 20.6Q74.0 20.3 73.8 20.0Q73.6 19.7 73.3 19.5Q73.1 19.3 72.8 19.2Q72.4 19.1 72.0 19.1L72.0 19.1Q71.3 19.1 70.7 19.5Q70.2 19.9 69.9 20.6Q69.6 21.3 69.6 22.3Q69.6 23.3 69.9 24.0Q70.2 24.7 70.7 25.0Q71.3 25.4 72.1 25.4L72.1 25.4Q72.7 25.4 73.2 25.2Q73.7 24.9 74.0 24.4L74.0 24.4Q74.2 24.0 74.2 23.4L74.2 23.4L72.2 23.4L72.2 22.0L76.1 22.0L76.1 23.1Q76.1 24.4 75.6 25.3Q75.1 26.2 74.2 26.6Q73.2 27.1 72.0 27.1ZM79.3 27L77.4 27L77.4 19.9L79.3 19.9L79.3 27ZM78.3 19.0L78.3 19.0Q77.9 19.0 77.6 18.7Q77.3 18.4 77.3 18.0L77.3 18.0Q77.3 17.6 77.6 17.3Q77.9 17.0 78.3 17.0L78.3 17.0Q78.8 17.0 79.1 17.3Q79.4 17.6 79.4 18.0L79.4 18.0Q79.4 18.4 79.1 18.7Q78.8 19.0 78.3 19.0ZM82.9 19.9L84.2 19.9L84.2 21.4L82.9 21.4L82.9 24.9Q82.9 25.3 83.0 25.4Q83.2 25.6 83.5 25.6L83.5 25.6Q83.6 25.6 83.8 25.6Q84.0 25.5 84.1 25.5L84.1 25.5L84.4 26.9Q84.1 27.0 83.8 27.1Q83.5 27.1 83.2 27.1L83.2 27.1Q82.1 27.1 81.5 26.6Q81.0 26.1 81.0 25.1L81.0 25.1L81.0 21.4L80.0 21.4L80.0 19.9L81.0 19.9L81.0 18.2L82.9 18.2L82.9 19.9ZM87.2 27L85.3 27L85.3 17.5L87.2 17.5L87.2 21.4L91.4 21.4L91.4 17.5L93.3 17.5L93.3 27L91.4 27L91.4 23.0L87.2 23.0L87.2 27ZM97.2 27.1L97.2 27.1Q96.5 27.1 95.9 26.8Q95.4 26.4 95.1 25.8Q94.8 25.2 94.8 24.4L94.8 24.4L94.8 19.9L96.7 19.9L96.7 24.1Q96.7 24.7 97.0 25.1Q97.4 25.5 98.0 25.5L98.0 25.5Q98.4 25.5 98.7 25.3Q99.0 25.1 99.2 24.8Q99.3 24.5 99.3 24.0L99.3 24.0L99.3 19.9L101.2 19.9L101.2 27L99.4 27L99.4 25.5Q99.1 26.2 98.7 26.6L98.7 26.6Q98.1 27.1 97.2 27.1ZM106.6 27.1L106.6 27.1Q106.1 27.1 105.7 26.9Q105.3 26.7 105.0 26.4Q104.8 26.1 104.6 25.9L104.6 25.9L104.5 25.9L104.5 27L102.7 27L102.7 17.5L104.6 17.5L104.6 21.1L104.6 21.1Q104.8 20.8 105.0 20.5Q105.2 20.2 105.6 20.0Q106.0 19.8 106.6 19.8L106.6 19.8Q107.4 19.8 108.1 20.2Q108.7 20.6 109.1 21.4Q109.5 22.3 109.5 23.5L109.5 23.5Q109.5 24.6 109.1 25.5Q108.8 26.3 108.1 26.7Q107.5 27.1 106.6 27.1ZM106.0 25.6L106.0 25.6Q106.5 25.6 106.9 25.3Q107.2 25.0 107.4 24.6Q107.6 24.1 107.6 23.5L107.6 23.5Q107.6 22.8 107.4 22.4Q107.2 21.9 106.9 21.6Q106.5 21.3 106.0 21.3L106.0 21.3Q105.6 21.3 105.2 21.6Q104.9 21.9 104.7 22.3Q104.5 22.8 104.5 23.5L104.5 23.5Q104.5 24.1 104.7 24.6Q104.9 25.1 105.2 25.3Q105.6 25.6 106.0 25.6Z "/></g></svg>