<!-- Generated by readme-aura https://github.com/collectioneur/readme-aura -->
<svg width="900" height="160" viewBox="0 0 900 160" xmlns="http://www.w3.org/2000/svg"><mask id="satori_om-id"><rect x="0" y="0" width="900" height="160" fill="#fff"/></mask><clipPath id="satori_cp-id-0"><path x="0" y="0" width="900" height="160" d="M22,0 h856 a22,22 0 0 1 22,22 v116 a22,22 0 0 1 -22,22 h-856 a22,22 0 0 1 -22,-22 v-116 a22,22 0 0 1 22,-22"/></clipPath><mask id="satori_om-id-0"><rect x="0" y="0" width="900" height="160" fill="#fff"/></mask><path x="0" y="0" width="900" height="160" fill="#0f172a" d="M22,0 h856 a22,22 0 0 1 22,22 v116 a22,22 0 0 1 -22,22 h-856 a22,22 0 0 1 -22,-22 v-116 a22,22 0 0 1 22,-22"/><clipPath id="satori_cp-id-0-0" clip-path="url(#satori_cp-id-0)"><rect x="0" y="0" width="900" height="160"/></clipPath><mask id="satori_om-id-0-0"><rect x="0" y="0" width="900" height="160" fill="#fff" mask="url(#satori_om-id-0)"/></mask><svg x="0" y="0" width="900" height="160" preserveAspectRatio="none" clip-path="url(#satori_cp-id-0-0)" mask="url(#satori_om-id-0-0)"><circle id="dot" cx="90" cy="80" r="8" fill="#22c55e"></circle><style>

    @keyframes pulse {
      0% { opacity: 0.55; }
      50% { opacity: 1; }
      100% { opacity: 0.55; }
    }
    #dot { animation: pulse 2.5s ease-in-out infinite; }
  
</style>
</svg><mask id="satori_om-id-0-0-0"><rect x="0" y="0" width="0" height="160" fill="#fff" mask="url(#satori_om-id-0)"/></mask><mask id="satori_om-id-0-1"><rect x="120" y="56" width="572" height="49" fill="#fff" mask="url(#satori_om-id-0)"/></mask><mask id="satori_om-id-0-1-0"><rect x="120" y="56" width="572" height="24" fill="#fff" mask="url(#satori_om-id-0)"/></mask><g mask="url(#satori_om-id-0)" clip-path="url(#satori_cp-id-0)"><path fill="#e2e8f0" d="M127.7 75.2L127.7 75.2Q125.7 75.2 124.2 74.3Q122.7 73.4 121.8 71.8Q120.9 70.1 120.9 67.7L120.9 67.7Q120.9 65.4 121.8 63.7Q122.7 62.0 124.2 61.1Q125.8 60.3 127.7 60.3L127.7 60.3Q128.9 60.3 130.0 60.6Q131.1 60.9 131.9 61.6Q132.7 62.3 133.2 63.2Q133.8 64.2 133.9 65.4L133.9 65.4L130.9 65.4Q130.8 64.8 130.5 64.4Q130.3 63.9 129.8 63.6Q129.4 63.2 128.9 63.1Q128.4 62.9 127.7 62.9L127.7 62.9Q126.6 62.9 125.7 63.5Q124.9 64.0 124.4 65.1Q123.9 66.2 123.9 67.7L123.9 67.7Q123.9 69.3 124.4 70.4Q124.9 71.5 125.8 72.0Q126.6 72.5 127.7 72.5L127.7 72.5Q128.3 72.5 128.9 72.4Q129.4 72.2 129.8 71.9Q130.3 71.6 130.5 71.1Q130.8 70.6 130.9 70.0L130.9 70.0L133.9 70.0Q133.8 71.0 133.3 72.0Q132.9 72.9 132.1 73.6Q131.3 74.4 130.2 74.8Q129.1 75.2 127.7 75.2ZM139.8 75.1L139.8 75.1Q138.7 75.1 137.8 74.6Q137.0 74.2 136.5 73.2Q136.0 72.3 136.0 71.0L136.0 71.0L136.0 64.1L139.0 64.1L139.0 70.5Q139.0 71.5 139.5 72.1Q140.0 72.7 140.9 72.7L140.9 72.7Q141.6 72.7 142.1 72.4Q142.5 72.1 142.8 71.6Q143.1 71.1 143.1 70.4L143.1 70.4L143.1 64.1L146.0 64.1L146.0 75L143.2 75L143.2 72.7Q142.8 73.8 142.1 74.4L142.1 74.4Q141.2 75.1 139.8 75.1ZM151.4 75L148.5 75L148.5 64.1L151.3 64.1L151.3 66.0L151.4 66.0Q151.7 65.0 152.5 64.5Q153.2 63.9 154.1 63.9L154.1 63.9Q154.3 63.9 154.6 64.0Q154.8 64.0 155.0 64.0L155.0 64.0L155.0 66.7Q154.8 66.6 154.5 66.5Q154.1 66.5 153.8 66.5L153.8 66.5Q153.1 66.5 152.6 66.8Q152.0 67.1 151.7 67.6Q151.4 68.1 151.4 68.8L151.4 68.8L151.4 75ZM159.6 75L156.6 75L156.6 64.1L159.5 64.1L159.5 66.0L159.6 66.0Q159.9 65.0 160.6 64.5Q161.3 63.9 162.2 63.9L162.2 63.9Q162.5 63.9 162.7 64.0Q163.0 64.0 163.2 64.0L163.2 64.0L163.2 66.7Q163.0 66.6 162.6 66.5Q162.2 66.5 161.9 66.5L161.9 66.5Q161.2 66.5 160.7 66.8Q160.2 67.1 159.9 67.6Q159.6 68.1 159.6 68.8L159.6 68.8L159.6 75ZM169.7 75.2L169.7 75.2Q168.0 75.2 166.8 74.5Q165.6 73.8 165.0 72.6Q164.3 71.3 164.3 69.6L164.3 69.6Q164.3 67.9 165.0 66.6Q165.6 65.4 166.8 64.7Q168.0 63.9 169.6 63.9L169.6 63.9Q170.6 63.9 171.6 64.3Q172.5 64.6 173.2 65.3Q173.9 66.0 174.3 67.0Q174.7 68.1 174.7 69.5L174.7 69.5L174.7 70.3L167.2 70.3Q167.3 71.1 167.5 71.7L167.5 71.7Q167.9 72.4 168.4 72.7Q169.0 73.0 169.8 73.0L169.8 73.0Q170.3 73.0 170.7 72.9Q171.1 72.7 171.4 72.4Q171.7 72.1 171.9 71.7L171.9 71.7L174.5 72.2Q174.3 73.1 173.6 73.8Q173.0 74.5 172.0 74.8Q171.0 75.2 169.7 75.2ZM167.2 68.5L167.2 68.5L171.9 68.5Q171.8 67.9 171.6 67.5L171.6 67.5Q171.4 66.8 170.9 66.5Q170.4 66.2 169.6 66.2L169.6 66.2Q168.8 66.2 168.3 66.5Q167.8 66.9 167.5 67.5L167.5 67.5Q167.3 67.9 167.2 68.5ZM179.6 68.7L179.6 68.7L179.6 75L176.7 75L176.7 64.1L179.5 64.1L179.5 66.3Q179.9 65.3 180.6 64.7L180.6 64.7Q181.5 63.9 182.9 63.9L182.9 63.9Q184.0 63.9 184.9 64.4Q185.7 64.9 186.2 65.9Q186.7 66.8 186.7 68.1L186.7 68.1L186.7 75L183.7 75L183.7 68.6Q183.7 67.5 183.2 67.0Q182.7 66.4 181.7 66.4L181.7 66.4Q181.1 66.4 180.6 66.7Q180.2 66.9 179.9 67.4Q179.6 67.9 179.6 68.7ZM192.5 64.1L194.6 64.1L194.6 66.3L192.5 66.3L192.5 71.8Q192.5 72.3 192.8 72.6Q193.0 72.8 193.5 72.8L193.5 72.8Q193.7 72.8 194.0 72.8Q194.3 72.7 194.5 72.7L194.5 72.7L194.9 74.9Q194.4 75.0 193.9 75.1Q193.4 75.2 193.0 75.2L193.0 75.2Q191.3 75.2 190.5 74.4Q189.6 73.6 189.6 72.1L189.6 72.1L189.6 66.3L188.1 66.3L188.1 64.1L189.6 64.1L189.6 61.5L192.5 61.5L192.5 64.1ZM196.5 60.4L199.4 60.4L199.4 75L196.5 75L196.5 60.4ZM201.8 78.9L201.8 78.9L202.5 76.7L202.9 76.7Q203.4 76.9 203.9 76.8Q204.4 76.8 204.6 76.5Q204.9 76.2 205.0 75.6L205.0 75.6L205.0 75.0L200.9 64.1L204.1 64.1L205.9 69.7Q206.2 70.8 206.4 71.9L206.4 71.9Q206.5 72.3 206.6 72.6L206.6 72.6Q206.7 72.3 206.8 71.9L206.8 71.9Q207.0 70.8 207.4 69.7L207.4 69.7L209.3 64.1L212.4 64.1L207.7 76.3Q207.4 77.2 206.9 77.8Q206.4 78.5 205.6 78.8Q204.8 79.2 203.7 79.2L203.7 79.2Q203.1 79.2 202.6 79.1Q202.1 79.0 201.8 78.9Z M223.6 75.2L223.6 75.2Q221.9 75.2 220.7 74.5Q219.5 73.8 218.9 72.6Q218.2 71.3 218.2 69.6L218.2 69.6Q218.2 67.9 218.9 66.6Q219.5 65.4 220.7 64.7Q221.9 63.9 223.5 63.9L223.5 63.9Q224.5 63.9 225.5 64.3Q226.4 64.6 227.1 65.3Q227.8 66.0 228.2 67.0Q228.6 68.1 228.6 69.5L228.6 69.5L228.6 70.3L221.1 70.3Q221.1 71.1 221.4 71.7L221.4 71.7Q221.7 72.4 222.3 72.7Q222.9 73.0 223.7 73.0L223.7 73.0Q224.2 73.0 224.6 72.9Q225.0 72.7 225.3 72.4Q225.6 72.1 225.8 71.7L225.8 71.7L228.4 72.2Q228.2 73.1 227.5 73.8Q226.8 74.5 225.9 74.8Q224.9 75.2 223.6 75.2ZM221.1 68.5L221.1 68.5L225.8 68.5Q225.7 67.9 225.5 67.5L225.5 67.5Q225.3 66.8 224.8 66.5Q224.2 66.2 223.5 66.2L223.5 66.2Q222.7 66.2 222.2 66.5Q221.7 66.9 221.4 67.5L221.4 67.5Q221.2 67.9 221.1 68.5ZM232.9 75L229.7 75L233.3 69.4L230.0 64.1L233.1 64.1L234.1 65.8Q234.6 66.7 235.0 67.5L235.0 67.5Q235.1 67.7 235.2 67.9L235.2 67.9Q235.3 67.7 235.4 67.5L235.4 67.5Q235.8 66.7 236.2 65.8L236.2 65.8L237.3 64.1L240.4 64.1L237.0 69.4L240.5 75L237.4 75L236.2 72.9Q235.7 72.1 235.3 71.3L235.3 71.3Q235.2 71.1 235.1 70.8L235.1 70.8Q235 71.1 234.9 71.3L234.9 71.3Q234.5 72.1 234.1 72.9L234.1 72.9L232.9 75ZM245.1 79.1L242.2 79.1L242.2 64.1L245.1 64.1L245.1 65.9L245.2 65.9Q245.4 65.5 245.8 65.0Q246.2 64.6 246.8 64.3Q247.4 63.9 248.3 63.9L248.3 63.9Q249.5 63.9 250.5 64.6Q251.5 65.2 252.1 66.4Q252.7 67.7 252.7 69.6L252.7 69.6Q252.7 71.4 252.2 72.6Q251.6 73.9 250.6 74.5Q249.6 75.2 248.3 75.2L248.3 75.2Q247.4 75.2 246.8 74.9Q246.2 74.6 245.8 74.1Q245.4 73.7 245.2 73.3L245.2 73.3L245.1 73.3L245.1 79.1ZM247.4 72.8L247.4 72.8Q248.2 72.8 248.7 72.4Q249.2 72.0 249.5 71.3Q249.7 70.5 249.7 69.6L249.7 69.6Q249.7 68.6 249.5 67.9Q249.2 67.1 248.7 66.7Q248.2 66.3 247.4 66.3L247.4 66.3Q246.7 66.3 246.1 66.7Q245.6 67.1 245.3 67.8Q245.0 68.6 245.0 69.6L245.0 69.6Q245.0 70.5 245.3 71.3Q245.6 72.0 246.1 72.4Q246.7 72.8 247.4 72.8ZM254.8 60.4L257.7 60.4L257.7 75L254.8 75L254.8 60.4ZM265.1 75.2L265.1 75.2Q263.5 75.2 262.3 74.5Q261.1 73.8 260.4 72.5Q259.8 71.3 259.8 69.6L259.8 69.6Q259.8 67.9 260.4 66.6Q261.1 65.4 262.3 64.7Q263.5 63.9 265.1 63.9L265.1 63.9Q266.7 63.9 267.9 64.7Q269.1 65.4 269.8 66.6Q270.4 67.9 270.4 69.6L270.4 69.6Q270.4 71.3 269.8 72.5Q269.1 73.8 267.9 74.5Q266.7 75.2 265.1 75.2ZM265.1 72.9L265.1 72.9Q265.9 72.9 266.4 72.5Q266.9 72.0 267.2 71.3Q267.5 70.5 267.5 69.6L267.5 69.6Q267.5 68.6 267.2 67.9Q266.9 67.1 266.4 66.7Q265.9 66.3 265.1 66.3L265.1 66.3Q264.3 66.3 263.8 66.7Q263.3 67.1 263.0 67.9Q262.7 68.6 262.7 69.6L262.7 69.6Q262.7 70.5 263.0 71.3Q263.3 72.0 263.8 72.5Q264.3 72.9 265.1 72.9ZM275.4 75L272.5 75L272.5 64.1L275.3 64.1L275.3 66.0L275.4 66.0Q275.7 65.0 276.4 64.5Q277.1 63.9 278.1 63.9L278.1 63.9Q278.3 63.9 278.6 64.0Q278.8 64.0 279.0 64.0L279.0 64.0L279.0 66.7Q278.8 66.6 278.4 66.5Q278.1 66.5 277.7 66.5L277.7 66.5Q277.1 66.5 276.5 66.8Q276.0 67.1 275.7 67.6Q275.4 68.1 275.4 68.8L275.4 68.8L275.4 75ZM283.6 75L280.6 75L280.6 64.1L283.6 64.1L283.6 75ZM282.1 62.7L282.1 62.7Q281.4 62.7 281.0 62.2Q280.5 61.8 280.5 61.2L280.5 61.2Q280.5 60.5 281.0 60.1Q281.4 59.6 282.1 59.6L282.1 59.6Q282.8 59.6 283.2 60.1Q283.7 60.5 283.7 61.2L283.7 61.2Q283.7 61.8 283.2 62.2Q282.8 62.7 282.1 62.7ZM289.0 68.7L289.0 68.7L289.0 75L286.0 75L286.0 64.1L288.8 64.1L288.8 66.3Q289.3 65.3 290.0 64.7L290.0 64.7Q290.9 63.9 292.2 63.9L292.2 63.9Q293.4 63.9 294.2 64.4Q295.1 64.9 295.5 65.9Q296.0 66.8 296.0 68.1L296.0 68.1L296.0 75L293.1 75L293.1 68.6Q293.1 67.5 292.5 67.0Q292.0 66.4 291.1 66.4L291.1 66.4Q290.5 66.4 290.0 66.7Q289.5 66.9 289.2 67.4Q289.0 67.9 289.0 68.7ZM303.3 79.3L303.3 79.3Q302.0 79.3 301.0 79.0Q300.0 78.6 299.3 78.0Q298.7 77.4 298.4 76.6L298.4 76.6L301.0 75.9Q301.1 76.2 301.4 76.5Q301.7 76.8 302.1 77.0Q302.6 77.2 303.3 77.2L303.3 77.2Q304.5 77.2 305.1 76.7Q305.7 76.2 305.7 75.1L305.7 75.1L305.7 73.1L305.5 73.1Q305.3 73.5 304.9 73.9Q304.6 74.3 304.0 74.6Q303.4 74.8 302.5 74.8L302.5 74.8Q301.3 74.8 300.2 74.3Q299.2 73.7 298.6 72.5Q298.0 71.3 298.0 69.5L298.0 69.5Q298.0 67.7 298.6 66.4Q299.3 65.2 300.3 64.6Q301.3 63.9 302.5 63.9L302.5 63.9Q303.4 63.9 304.0 64.3Q304.7 64.6 305.0 65.0Q305.4 65.5 305.6 65.9L305.6 65.9L305.8 65.9L305.8 64.1L308.6 64.1L308.6 74.9Q308.6 76.4 308.0 77.4Q307.3 78.3 306.1 78.8Q304.9 79.3 303.3 79.3ZM303.4 72.6L303.4 72.6Q304.2 72.6 304.7 72.2Q305.2 71.9 305.5 71.2Q305.7 70.5 305.7 69.5L305.7 69.5Q305.7 68.5 305.5 67.8Q305.2 67.1 304.7 66.7Q304.2 66.3 303.4 66.3L303.4 66.3Q302.6 66.3 302.1 66.7Q301.6 67.1 301.3 67.8Q301.0 68.6 301.0 69.5L301.0 69.5Q301.0 70.5 301.3 71.2Q301.6 71.9 302.1 72.2Q302.6 72.6 303.4 72.6Z M318.8 75L315.9 75L315.9 64.1L318.6 64.1L318.7 66.2Q318.9 65.6 319.3 65.2L319.3 65.2Q319.8 64.5 320.4 64.2Q321.1 63.9 321.8 63.9L321.8 63.9Q323.0 63.9 323.7 64.7L323.7 64.7Q324.3 65.3 324.6 66.4L324.6 66.4Q324.9 65.7 325.2 65.2L325.2 65.2Q325.8 64.6 326.5 64.2Q327.3 63.9 328.1 63.9L328.1 63.9Q329.1 63.9 329.9 64.4Q330.7 64.8 331.2 65.6Q331.6 66.4 331.6 67.6L331.6 67.6L331.6 75L328.7 75L328.7 68.2Q328.7 67.3 328.2 66.8Q327.7 66.4 327.0 66.4L327.0 66.4Q326.4 66.4 326.0 66.6Q325.6 66.8 325.4 67.3Q325.2 67.7 325.2 68.3L325.2 68.3L325.2 75L322.3 75L322.3 68.1Q322.3 67.3 321.9 66.8Q321.4 66.4 320.6 66.4L320.6 66.4Q320.1 66.4 319.7 66.6Q319.3 66.8 319.0 67.3Q318.8 67.7 318.8 68.4L318.8 68.4L318.8 75ZM339.0 75.2L339.0 75.2Q337.4 75.2 336.2 74.5Q335.0 73.8 334.3 72.5Q333.7 71.3 333.7 69.6L333.7 69.6Q333.7 67.9 334.3 66.6Q335.0 65.4 336.2 64.7Q337.4 63.9 339.0 63.9L339.0 63.9Q340.7 63.9 341.9 64.7Q343.0 65.4 343.7 66.6Q344.3 67.9 344.3 69.6L344.3 69.6Q344.3 71.3 343.7 72.5Q343.0 73.8 341.9 74.5Q340.7 75.2 339.0 75.2ZM339.0 72.9L339.0 72.9Q339.8 72.9 340.3 72.5Q340.8 72.0 341.1 71.3Q341.4 70.5 341.4 69.6L341.4 69.6Q341.4 68.6 341.1 67.9Q340.8 67.1 340.3 66.7Q339.8 66.3 339.0 66.3L339.0 66.3Q338.2 66.3 337.7 66.7Q337.2 67.1 336.9 67.9Q336.7 68.6 336.7 69.6L336.7 69.6Q336.7 70.5 336.9 71.3Q337.2 72.0 337.7 72.5Q338.2 72.9 339.0 72.9ZM349.8 64.1L351.8 64.1L351.8 66.3L349.8 66.3L349.8 71.8Q349.8 72.3 350.0 72.6Q350.2 72.8 350.8 72.8L350.8 72.8Q350.9 72.8 351.2 72.8Q351.5 72.7 351.7 72.7L351.7 72.7L352.1 74.9Q351.6 75.0 351.1 75.1Q350.7 75.2 350.2 75.2L350.2 75.2Q348.6 75.2 347.7 74.4Q346.8 73.6 346.8 72.1L346.8 72.1L346.8 66.3L345.3 66.3L345.3 64.1L346.8 64.1L346.8 61.5L349.8 61.5L349.8 64.1ZM356.6 75L353.7 75L353.7 64.1L356.6 64.1L356.6 75ZM355.2 62.7L355.2 62.7Q354.5 62.7 354.0 62.2Q353.6 61.8 353.6 61.2L353.6 61.2Q353.6 60.5 354.0 60.1Q354.5 59.6 355.2 59.6L355.2 59.6Q355.8 59.6 356.3 60.1Q356.8 60.5 356.8 61.2L356.8 61.2Q356.8 61.8 356.3 62.2Q355.8 62.7 355.2 62.7ZM364.0 75.2L364.0 75.2Q362.4 75.2 361.2 74.5Q360.0 73.8 359.3 72.5Q358.7 71.3 358.7 69.6L358.7 69.6Q358.7 67.9 359.3 66.6Q360.0 65.4 361.2 64.7Q362.4 63.9 364.0 63.9L364.0 63.9Q365.7 63.9 366.9 64.7Q368.1 65.4 368.7 66.6Q369.4 67.9 369.4 69.6L369.4 69.6Q369.4 71.3 368.7 72.5Q368.1 73.8 366.9 74.5Q365.7 75.2 364.0 75.2ZM364.0 72.9L364.0 72.9Q364.8 72.9 365.3 72.5Q365.8 72.0 366.1 71.3Q366.4 70.5 366.4 69.6L366.4 69.6Q366.4 68.6 366.1 67.9Q365.8 67.1 365.3 66.7Q364.8 66.3 364.0 66.3L364.0 66.3Q363.2 66.3 362.7 66.7Q362.2 67.1 361.9 67.9Q361.7 68.6 361.7 69.6L361.7 69.6Q361.7 70.5 361.9 71.3Q362.2 72.0 362.7 72.5Q363.2 72.9 364.0 72.9ZM374.3 68.7L374.3 68.7L374.3 75L371.4 75L371.4 64.1L374.2 64.1L374.2 66.3Q374.6 65.3 375.3 64.7L375.3 64.7Q376.2 63.9 377.6 63.9L377.6 63.9Q378.7 63.9 379.6 64.4Q380.4 64.9 380.9 65.9Q381.3 66.8 381.3 68.1L381.3 68.1L381.3 75L378.4 75L378.4 68.6Q378.4 67.5 377.9 67.0Q377.4 66.4 376.4 66.4L376.4 66.4Q375.8 66.4 375.3 66.7Q374.9 66.9 374.6 67.4Q374.3 67.9 374.3 68.7Z M392.6 75.2L392.6 75.2Q391.3 75.2 390.3 74.5Q389.3 73.9 388.7 72.6Q388.1 71.4 388.1 69.6L388.1 69.6Q388.1 67.7 388.7 66.4Q389.3 65.2 390.3 64.6Q391.3 63.9 392.6 63.9L392.6 63.9Q393.5 63.9 394.1 64.3Q394.7 64.6 395.1 65.0Q395.5 65.5 395.7 65.9L395.7 65.9L395.8 65.9L395.8 60.4L398.7 60.4L398.7 75L395.8 75L395.8 73.3L395.7 73.3Q395.5 73.7 395.1 74.1Q394.7 74.6 394.1 74.9Q393.5 75.2 392.6 75.2ZM393.5 72.8L393.5 72.8Q394.2 72.8 394.7 72.4Q395.3 72.0 395.5 71.3Q395.8 70.5 395.8 69.6L395.8 69.6Q395.8 68.6 395.6 67.8Q395.3 67.1 394.8 66.7Q394.2 66.3 393.5 66.3L393.5 66.3Q392.7 66.3 392.2 66.7Q391.7 67.1 391.4 67.9Q391.1 68.6 391.1 69.6L391.1 69.6Q391.1 70.5 391.4 71.3Q391.7 72.0 392.2 72.4Q392.7 72.8 393.5 72.8ZM401.1 78.9L401.1 78.9L401.8 76.7L402.1 76.7Q402.7 76.9 403.2 76.8Q403.7 76.8 403.9 76.5Q404.2 76.2 404.3 75.6L404.3 75.6L404.3 75.0L400.2 64.1L403.4 64.1L405.2 69.7Q405.5 70.8 405.7 71.9L405.7 71.9Q405.8 72.3 405.9 72.6L405.9 72.6Q406.0 72.3 406.1 71.9L406.1 71.9Q406.3 70.8 406.7 69.7L406.7 69.7L408.6 64.1L411.7 64.1L407.0 76.3Q406.7 77.2 406.2 77.8Q405.7 78.5 404.9 78.8Q404.1 79.2 403.0 79.2L403.0 79.2Q402.4 79.2 401.9 79.1Q401.4 79.0 401.1 78.9ZM416.2 68.7L416.2 68.7L416.2 75L413.2 75L413.2 64.1L416.0 64.1L416.0 66.3Q416.5 65.3 417.2 64.7L417.2 64.7Q418.0 63.9 419.4 63.9L419.4 63.9Q420.6 63.9 421.4 64.4Q422.3 64.9 422.7 65.9Q423.2 66.8 423.2 68.1L423.2 68.1L423.2 75L420.3 75L420.3 68.6Q420.3 67.5 419.7 67.0Q419.2 66.4 418.3 66.4L418.3 66.4Q417.7 66.4 417.2 66.7Q416.7 66.9 416.4 67.4Q416.2 67.9 416.2 68.7ZM428.7 75.2L428.7 75.2Q427.7 75.2 426.9 74.8Q426.0 74.5 425.6 73.8Q425.1 73.0 425.1 71.9L425.1 71.9Q425.1 71.0 425.4 70.4Q425.8 69.8 426.4 69.4Q426.9 69.1 427.7 68.9Q428.4 68.7 429.2 68.6L429.2 68.6Q430.2 68.5 430.7 68.4Q431.3 68.3 431.6 68.1Q431.9 68.0 431.9 67.6L431.9 67.6L431.9 67.6Q431.9 67.1 431.7 66.8Q431.5 66.5 431.1 66.3Q430.7 66.1 430.2 66.1L430.2 66.1Q429.6 66.1 429.2 66.3Q428.8 66.5 428.5 66.7Q428.2 67.0 428.1 67.4L428.1 67.4L425.4 66.9Q425.7 66.0 426.3 65.3Q427.0 64.6 428.0 64.3Q428.9 63.9 430.2 63.9L430.2 63.9Q431.0 63.9 431.9 64.2Q432.7 64.4 433.4 64.8Q434.0 65.2 434.4 66.0Q434.8 66.7 434.8 67.6L434.8 67.6L434.8 75L432.0 75L432.0 73.5L431.9 73.5Q431.7 74.0 431.2 74.4Q430.8 74.8 430.2 75.0Q429.5 75.2 428.7 75.2ZM429.6 73.2L429.6 73.2Q430.3 73.2 430.8 72.9Q431.3 72.6 431.6 72.1Q431.9 71.7 431.9 71.1L431.9 71.1L431.9 69.9Q431.8 70.0 431.5 70.1Q431.2 70.2 430.9 70.2Q430.6 70.3 430.3 70.3Q430.0 70.4 429.7 70.4L429.7 70.4Q429.2 70.5 428.8 70.7Q428.4 70.8 428.1 71.1Q427.9 71.4 427.9 71.9L427.9 71.9Q427.9 72.3 428.1 72.6Q428.3 72.9 428.7 73.0Q429.1 73.2 429.6 73.2ZM440.2 75L437.3 75L437.3 64.1L440.0 64.1L440.1 66.2Q440.4 65.6 440.7 65.2L440.7 65.2Q441.2 64.5 441.8 64.2Q442.5 63.9 443.2 63.9L443.2 63.9Q444.4 63.9 445.1 64.7L445.1 64.7Q445.7 65.3 446.1 66.4L446.1 66.4Q446.3 65.7 446.7 65.2L446.7 65.2Q447.2 64.6 448.0 64.2Q448.7 63.9 449.6 63.9L449.6 63.9Q450.6 63.9 451.4 64.4Q452.1 64.8 452.6 65.6Q453.0 66.4 453.0 67.6L453.0 67.6L453.0 75L450.1 75L450.1 68.2Q450.1 67.3 449.6 66.8Q449.1 66.4 448.4 66.4L448.4 66.4Q447.8 66.4 447.4 66.6Q447.0 66.8 446.8 67.3Q446.6 67.7 446.6 68.3L446.6 68.3L446.6 75L443.8 75L443.8 68.1Q443.8 67.3 443.3 66.8Q442.8 66.4 442.1 66.4L442.1 66.4Q441.5 66.4 441.1 66.6Q440.7 66.8 440.5 67.3Q440.2 67.7 440.2 68.4L440.2 68.4L440.2 75ZM458.5 75L455.5 75L455.5 64.1L458.5 64.1L458.5 75ZM457.0 62.7L457.0 62.7Q456.3 62.7 455.9 62.2Q455.4 61.8 455.4 61.2L455.4 61.2Q455.4 60.5 455.9 60.1Q456.3 59.6 457.0 59.6L457.0 59.6Q457.7 59.6 458.1 60.1Q458.6 60.5 458.6 61.2L458.6 61.2Q458.6 61.8 458.1 62.2Q457.7 62.7 457.0 62.7ZM465.8 75.2L465.8 75.2Q464.2 75.2 463.0 74.5Q461.8 73.8 461.2 72.5Q460.5 71.3 460.5 69.6L460.5 69.6Q460.5 67.9 461.2 66.6Q461.8 65.4 463.0 64.7Q464.2 63.9 465.8 63.9L465.8 63.9Q466.8 63.9 467.6 64.2Q468.5 64.5 469.1 64.9Q469.7 65.4 470.1 66.1Q470.5 66.7 470.7 67.6L470.7 67.6L468.0 68.1Q467.9 67.7 467.7 67.3Q467.5 67.0 467.3 66.7Q467.0 66.5 466.6 66.4Q466.3 66.3 465.9 66.3L465.9 66.3Q465.1 66.3 464.6 66.7Q464.0 67.1 463.8 67.8Q463.5 68.6 463.5 69.6L463.5 69.6Q463.5 70.5 463.8 71.3Q464.0 72.1 464.6 72.5Q465.1 72.9 465.9 72.9L465.9 72.9Q466.3 72.9 466.7 72.8Q467.0 72.6 467.3 72.4Q467.5 72.1 467.7 71.8Q467.9 71.4 468.0 71.0L468.0 71.0L470.7 71.5Q470.6 72.4 470.2 73.1Q469.7 73.7 469.1 74.2Q468.5 74.7 467.7 75.0Q466.8 75.2 465.8 75.2ZM477.1 75.2L477.1 75.2Q475.8 75.2 474.7 74.8Q473.7 74.5 473.1 73.7Q472.4 73.0 472.2 72.0L472.2 72.0L475.0 71.5Q475.2 72.3 475.7 72.7Q476.3 73.1 477.2 73.1L477.2 73.1Q478.0 73.1 478.5 72.7Q479.0 72.4 479.0 71.9L479.0 71.9Q479.0 71.5 478.6 71.2Q478.3 71.0 477.6 70.8L477.6 70.8L475.7 70.4Q474.1 70.1 473.3 69.3Q472.5 68.6 472.5 67.3L472.5 67.3Q472.5 66.3 473.1 65.5Q473.7 64.8 474.7 64.4Q475.7 63.9 477.1 63.9L477.1 63.9Q478.4 63.9 479.4 64.3Q480.3 64.7 480.9 65.3Q481.5 66.0 481.7 66.9L481.7 66.9L479.1 67.3Q478.9 66.8 478.4 66.4Q478.0 66.0 477.2 66.0L477.2 66.0Q476.4 66.0 475.9 66.3Q475.5 66.7 475.5 67.2L475.5 67.2Q475.5 67.6 475.8 67.9Q476.1 68.1 476.9 68.3L476.9 68.3L478.8 68.7Q480.4 69.0 481.2 69.7Q482.0 70.5 482.0 71.6L482.0 71.6Q482.0 72.7 481.3 73.5Q480.7 74.3 479.6 74.8Q478.5 75.2 477.1 75.2Z M491.6 75L488.7 75L488.7 64.1L491.6 64.1L491.6 75ZM490.1 62.7L490.1 62.7Q489.5 62.7 489.0 62.2Q488.5 61.8 488.5 61.2L488.5 61.2Q488.5 60.5 489.0 60.1Q489.5 59.6 490.1 59.6L490.1 59.6Q490.8 59.6 491.3 60.1Q491.7 60.5 491.7 61.2L491.7 61.2Q491.7 61.8 491.3 62.2Q490.8 62.7 490.1 62.7ZM497.0 68.7L497.0 68.7L497.0 75L494.1 75L494.1 64.1L496.9 64.1L496.9 66.3Q497.3 65.3 498.0 64.7L498.0 64.7Q498.9 63.9 500.3 63.9L500.3 63.9Q501.4 63.9 502.3 64.4Q503.1 64.9 503.6 65.9Q504.0 66.8 504.0 68.1L504.0 68.1L504.0 75L501.1 75L501.1 68.6Q501.1 67.5 500.6 67.0Q500.1 66.4 499.1 66.4L499.1 66.4Q498.5 66.4 498.0 66.7Q497.6 66.9 497.3 67.4Q497.0 67.9 497.0 68.7Z M516.1 79.3L516.1 79.3Q514.8 79.3 513.8 79.0Q512.7 78.6 512.1 78.0Q511.5 77.4 511.2 76.6L511.2 76.6L513.7 75.9Q513.9 76.2 514.2 76.5Q514.5 76.8 514.9 77.0Q515.4 77.2 516.1 77.2L516.1 77.2Q517.2 77.2 517.9 76.7Q518.5 76.2 518.5 75.1L518.5 75.1L518.5 73.1L518.3 73.1Q518.1 73.5 517.7 73.9Q517.4 74.3 516.8 74.6Q516.2 74.8 515.3 74.8L515.3 74.8Q514.0 74.8 513.0 74.3Q512.0 73.7 511.4 72.5Q510.8 71.3 510.8 69.5L510.8 69.5Q510.8 67.7 511.4 66.4Q512.0 65.2 513.1 64.6Q514.1 63.9 515.3 63.9L515.3 63.9Q516.2 63.9 516.8 64.3Q517.4 64.6 517.8 65.0Q518.2 65.5 518.4 65.9L518.4 65.9L518.5 65.9L518.5 64.1L521.4 64.1L521.4 74.9Q521.4 76.4 520.7 77.4Q520.1 78.3 518.9 78.8Q517.7 79.3 516.1 79.3ZM516.2 72.6L516.2 72.6Q516.9 72.6 517.5 72.2Q518.0 71.9 518.3 71.2Q518.5 70.5 518.5 69.5L518.5 69.5Q518.5 68.5 518.3 67.8Q518.0 67.1 517.5 66.7Q516.9 66.3 516.2 66.3L516.2 66.3Q515.4 66.3 514.9 66.7Q514.4 67.1 514.1 67.8Q513.8 68.6 513.8 69.5L513.8 69.5Q513.8 70.5 514.1 71.2Q514.4 71.9 514.9 72.2Q515.4 72.6 516.2 72.6ZM528.8 75.2L528.8 75.2Q527.2 75.2 526.0 74.5Q524.8 73.8 524.1 72.6Q523.5 71.3 523.5 69.6L523.5 69.6Q523.5 67.9 524.1 66.6Q524.7 65.4 525.9 64.7Q527.1 63.9 528.7 63.9L528.7 63.9Q529.8 63.9 530.7 64.3Q531.6 64.6 532.3 65.3Q533.0 66.0 533.4 67.0Q533.8 68.1 533.8 69.5L533.8 69.5L533.8 70.3L526.4 70.3Q526.4 71.1 526.7 71.7L526.7 71.7Q527.0 72.4 527.6 72.7Q528.1 73.0 528.9 73.0L528.9 73.0Q529.4 73.0 529.8 72.9Q530.3 72.7 530.6 72.4Q530.8 72.1 531.0 71.7L531.0 71.7L533.7 72.2Q533.4 73.1 532.7 73.8Q532.1 74.5 531.1 74.8Q530.1 75.2 528.8 75.2ZM526.4 68.5L526.4 68.5L531.0 68.5Q530.9 67.9 530.8 67.5L530.8 67.5Q530.5 66.8 530.0 66.5Q529.5 66.2 528.7 66.2L528.7 66.2Q528.0 66.2 527.4 66.5Q526.9 66.9 526.6 67.5L526.6 67.5Q526.4 67.9 526.4 68.5ZM538.8 68.7L538.8 68.7L538.8 75L535.8 75L535.8 64.1L538.6 64.1L538.6 66.3Q539.1 65.3 539.8 64.7L539.8 64.7Q540.6 63.9 542.0 63.9L542.0 63.9Q543.2 63.9 544.0 64.4Q544.9 64.9 545.3 65.9Q545.8 66.8 545.8 68.1L545.8 68.1L545.8 75L542.9 75L542.9 68.6Q542.9 67.5 542.3 67.0Q541.8 66.4 540.9 66.4L540.9 66.4Q540.3 66.4 539.8 66.7Q539.3 66.9 539.0 67.4Q538.8 67.9 538.8 68.7ZM553.2 75.2L553.2 75.2Q551.5 75.2 550.3 74.5Q549.1 73.8 548.5 72.6Q547.8 71.3 547.8 69.6L547.8 69.6Q547.8 67.9 548.5 66.6Q549.1 65.4 550.3 64.7Q551.5 63.9 553.1 63.9L553.1 63.9Q554.1 63.9 555.1 64.3Q556.0 64.6 556.7 65.3Q557.4 66.0 557.8 67.0Q558.2 68.1 558.2 69.5L558.2 69.5L558.2 70.3L550.7 70.3Q550.8 71.1 551.0 71.7L551.0 71.7Q551.4 72.4 551.9 72.7Q552.5 73.0 553.3 73.0L553.3 73.0Q553.8 73.0 554.2 72.9Q554.6 72.7 554.9 72.4Q555.2 72.1 555.4 71.7L555.4 71.7L558.0 72.2Q557.8 73.1 557.1 73.8Q556.5 74.5 555.5 74.8Q554.5 75.2 553.2 75.2ZM550.7 68.5L550.7 68.5L555.4 68.5Q555.3 67.9 555.1 67.5L555.1 67.5Q554.9 66.8 554.4 66.5Q553.8 66.2 553.1 66.2L553.1 66.2Q552.3 66.2 551.8 66.5Q551.3 66.9 551.0 67.5L551.0 67.5Q550.8 67.9 550.7 68.5ZM563.1 75L560.2 75L560.2 64.1L563.0 64.1L563.0 66.0L563.1 66.0Q563.4 65.0 564.2 64.5Q564.9 63.9 565.8 63.9L565.8 63.9Q566.0 63.9 566.3 64.0Q566.5 64.0 566.7 64.0L566.7 64.0L566.7 66.7Q566.5 66.6 566.2 66.5Q565.8 66.5 565.5 66.5L565.5 66.5Q564.8 66.5 564.3 66.8Q563.7 67.1 563.4 67.6Q563.1 68.1 563.1 68.8L563.1 68.8L563.1 75ZM571.4 75.2L571.4 75.2Q570.4 75.2 569.5 74.8Q568.7 74.5 568.2 73.8Q567.8 73.0 567.8 71.9L567.8 71.9Q567.8 71.0 568.1 70.4Q568.4 69.8 569.0 69.4Q569.6 69.1 570.3 68.9Q571.1 68.7 571.9 68.6L571.9 68.6Q572.8 68.5 573.4 68.4Q574.0 68.3 574.3 68.1Q574.5 68.0 574.5 67.6L574.5 67.6L574.5 67.6Q574.5 67.1 574.3 66.8Q574.1 66.5 573.7 66.3Q573.4 66.1 572.8 66.1L572.8 66.1Q572.2 66.1 571.8 66.3Q571.4 66.5 571.1 66.7Q570.9 67.0 570.8 67.4L570.8 67.4L568.1 66.9Q568.3 66.0 569.0 65.3Q569.7 64.6 570.6 64.3Q571.6 63.9 572.8 63.9L572.8 63.9Q573.7 63.9 574.5 64.2Q575.4 64.4 576.0 64.8Q576.7 65.2 577.1 66.0Q577.5 66.7 577.5 67.6L577.5 67.6L577.5 75L574.7 75L574.7 73.5L574.6 73.5Q574.3 74.0 573.9 74.4Q573.4 74.8 572.8 75.0Q572.2 75.2 571.4 75.2ZM572.2 73.2L572.2 73.2Q572.9 73.2 573.4 72.9Q574.0 72.6 574.2 72.1Q574.5 71.7 574.5 71.1L574.5 71.1L574.5 69.9Q574.4 70.0 574.2 70.1Q573.9 70.2 573.6 70.2Q573.2 70.3 572.9 70.3Q572.6 70.4 572.4 70.4L572.4 70.4Q571.8 70.5 571.4 70.7Q571.0 70.8 570.8 71.1Q570.6 71.4 570.6 71.9L570.6 71.9Q570.6 72.3 570.8 72.6Q571.0 72.9 571.4 73.0Q571.7 73.2 572.2 73.2ZM583.3 64.1L585.4 64.1L585.4 66.3L583.3 66.3L583.3 71.8Q583.3 72.3 583.6 72.6Q583.8 72.8 584.3 72.8L584.3 72.8Q584.5 72.8 584.8 72.8Q585.1 72.7 585.3 72.7L585.3 72.7L585.7 74.9Q585.2 75.0 584.7 75.1Q584.2 75.2 583.8 75.2L583.8 75.2Q582.1 75.2 581.3 74.4Q580.4 73.6 580.4 72.1L580.4 72.1L580.4 66.3L578.9 66.3L578.9 64.1L580.4 64.1L580.4 61.5L583.3 61.5L583.3 64.1ZM590.2 75L587.3 75L587.3 64.1L590.2 64.1L590.2 75ZM588.7 62.7L588.7 62.7Q588.1 62.7 587.6 62.2Q587.1 61.8 587.1 61.2L587.1 61.2Q587.1 60.5 587.6 60.1Q588.1 59.6 588.7 59.6L588.7 59.6Q589.4 59.6 589.9 60.1Q590.4 60.5 590.4 61.2L590.4 61.2Q590.4 61.8 589.9 62.2Q589.4 62.7 588.7 62.7ZM599.1 75L595.8 75L591.7 64.1L594.9 64.1L596.7 69.7Q597.0 70.8 597.3 71.9L597.3 71.9Q597.4 72.3 597.5 72.7L597.5 72.7Q597.6 72.3 597.7 71.9L597.7 71.9Q597.9 70.8 598.2 69.7L598.2 69.7L600.1 64.1L603.1 64.1L599.1 75ZM609.6 75.2L609.6 75.2Q607.9 75.2 606.7 74.5Q605.5 73.8 604.9 72.6Q604.2 71.3 604.2 69.6L604.2 69.6Q604.2 67.9 604.9 66.6Q605.5 65.4 606.7 64.7Q607.9 63.9 609.5 63.9L609.5 63.9Q610.5 63.9 611.5 64.3Q612.4 64.6 613.1 65.3Q613.8 66.0 614.2 67.0Q614.6 68.1 614.6 69.5L614.6 69.5L614.6 70.3L607.1 70.3Q607.2 71.1 607.5 71.7L607.5 71.7Q607.8 72.4 608.3 72.7Q608.9 73.0 609.7 73.0L609.7 73.0Q610.2 73.0 610.6 72.9Q611.0 72.7 611.3 72.4Q611.6 72.1 611.8 71.7L611.8 71.7L614.4 72.2Q614.2 73.1 613.5 73.8Q612.9 74.5 611.9 74.8Q610.9 75.2 609.6 75.2ZM607.1 68.5L607.1 68.5L611.8 68.5Q611.7 67.9 611.5 67.5L611.5 67.5Q611.3 66.8 610.8 66.5Q610.3 66.2 609.5 66.2L609.5 66.2Q608.7 66.2 608.2 66.5Q607.7 66.9 607.4 67.5L607.4 67.5Q607.2 67.9 607.1 68.5Z M624.3 75L621.3 75L621.3 64.1L624.1 64.1L624.2 66.2Q624.4 65.6 624.7 65.2L624.7 65.2Q625.2 64.5 625.9 64.2Q626.6 63.9 627.3 63.9L627.3 63.9Q628.5 63.9 629.2 64.7L629.2 64.7Q629.8 65.3 630.1 66.4L630.1 66.4Q630.3 65.7 630.7 65.2L630.7 65.2Q631.3 64.6 632.0 64.2Q632.8 63.9 633.6 63.9L633.6 63.9Q634.6 63.9 635.4 64.4Q636.2 64.8 636.6 65.6Q637.1 66.4 637.1 67.6L637.1 67.6L637.1 75L634.2 75L634.2 68.2Q634.2 67.3 633.7 66.8Q633.2 66.4 632.4 66.4L632.4 66.4Q631.9 66.4 631.5 66.6Q631.1 66.8 630.8 67.3Q630.6 67.7 630.6 68.3L630.6 68.3L630.6 75L627.8 75L627.8 68.1Q627.8 67.3 627.3 66.8Q626.8 66.4 626.1 66.4L626.1 66.4Q625.6 66.4 625.2 66.6Q624.7 66.8 624.5 67.3Q624.3 67.7 624.3 68.4L624.3 68.4L624.3 75ZM644.5 75.2L644.5 75.2Q642.8 75.2 641.6 74.5Q640.4 73.8 639.8 72.5Q639.1 71.3 639.1 69.6L639.1 69.6Q639.1 67.9 639.8 66.6Q640.4 65.4 641.6 64.7Q642.8 63.9 644.5 63.9L644.5 63.9Q646.1 63.9 647.3 64.7Q648.5 65.4 649.2 66.6Q649.8 67.9 649.8 69.6L649.8 69.6Q649.8 71.3 649.2 72.5Q648.5 73.8 647.3 74.5Q646.1 75.2 644.5 75.2ZM644.5 72.9L644.5 72.9Q645.3 72.9 645.8 72.5Q646.3 72.0 646.6 71.3Q646.8 70.5 646.8 69.6L646.8 69.6Q646.8 68.6 646.6 67.9Q646.3 67.1 645.8 66.7Q645.3 66.3 644.5 66.3L644.5 66.3Q643.7 66.3 643.2 66.7Q642.6 67.1 642.4 67.9Q642.1 68.6 642.1 69.6L642.1 69.6Q642.1 70.5 642.4 71.3Q642.6 72.0 643.2 72.5Q643.7 72.9 644.5 72.9ZM655.8 75.2L655.8 75.2Q654.6 75.2 653.6 74.5Q652.6 73.9 652.0 72.6Q651.4 71.4 651.4 69.6L651.4 69.6Q651.4 67.7 652.0 66.4Q652.6 65.2 653.6 64.6Q654.6 63.9 655.8 63.9L655.8 63.9Q656.8 63.9 657.4 64.3Q658.0 64.6 658.4 65.0Q658.8 65.5 658.9 65.9L658.9 65.9L659.0 65.9L659.0 60.4L662.0 60.4L662.0 75L659.1 75L659.1 73.3L658.9 73.3Q658.7 73.7 658.4 74.1Q658.0 74.6 657.4 74.9Q656.7 75.2 655.8 75.2ZM656.7 72.8L656.7 72.8Q657.5 72.8 658.0 72.4Q658.5 72.0 658.8 71.3Q659.1 70.5 659.1 69.6L659.1 69.6Q659.1 68.6 658.8 67.8Q658.6 67.1 658.0 66.7Q657.5 66.3 656.7 66.3L656.7 66.3Q656.0 66.3 655.5 66.7Q654.9 67.1 654.7 67.9Q654.4 68.6 654.4 69.6L654.4 69.6Q654.4 70.5 654.7 71.3Q654.9 72.0 655.5 72.4Q656.0 72.8 656.7 72.8ZM669.4 75.2L669.4 75.2Q667.7 75.2 666.5 74.5Q665.3 73.8 664.7 72.6Q664.0 71.3 664.0 69.6L664.0 69.6Q664.0 67.9 664.6 66.6Q665.3 65.4 666.5 64.7Q667.7 63.9 669.2 63.9L669.2 63.9Q670.3 63.9 671.3 64.3Q672.2 64.6 672.9 65.3Q673.6 66.0 674.0 67.0Q674.4 68.1 674.4 69.5L674.4 69.5L674.4 70.3L666.9 70.3Q666.9 71.1 667.2 71.7L667.2 71.7Q667.5 72.4 668.1 72.7Q668.7 73.0 669.4 73.0L669.4 73.0Q670.0 73.0 670.4 72.9Q670.8 72.7 671.1 72.4Q671.4 72.1 671.6 71.7L671.6 71.7L674.2 72.2Q673.9 73.1 673.3 73.8Q672.6 74.5 671.7 74.8Q670.7 75.2 669.4 75.2ZM666.9 68.5L666.9 68.5L671.6 68.5Q671.5 67.9 671.3 67.5L671.3 67.5Q671.1 66.8 670.5 66.5Q670.0 66.2 669.3 66.2L669.3 66.2Q668.5 66.2 668.0 66.5Q667.5 66.9 667.2 67.5L667.2 67.5Q667.0 67.9 666.9 68.5ZM676.4 60.4L679.3 60.4L679.3 75L676.4 75L676.4 60.4ZM686.1 75.2L686.1 75.2Q684.8 75.2 683.8 74.8Q682.8 74.5 682.1 73.7Q681.5 73.0 681.3 72.0L681.3 72.0L684.0 71.5Q684.2 72.3 684.8 72.7Q685.3 73.1 686.2 73.1L686.2 73.1Q687.1 73.1 687.5 72.7Q688.0 72.4 688.0 71.9L688.0 71.9Q688.0 71.5 687.7 71.2Q687.3 71.0 686.6 70.8L686.6 70.8L684.7 70.4Q683.2 70.1 682.4 69.3Q681.6 68.6 681.6 67.3L681.6 67.3Q681.6 66.3 682.2 65.5Q682.7 64.8 683.8 64.4Q684.8 63.9 686.2 63.9L686.2 63.9Q687.5 63.9 688.4 64.3Q689.4 64.7 690.0 65.3Q690.5 66.0 690.7 66.9L690.7 66.9L688.1 67.3Q688.0 66.8 687.5 66.4Q687.0 66.0 686.2 66.0L686.2 66.0Q685.5 66.0 685.0 66.3Q684.5 66.7 684.5 67.2L684.5 67.2Q684.5 67.6 684.8 67.9Q685.2 68.1 685.9 68.3L685.9 68.3L687.9 68.7Q689.5 69.0 690.2 69.7Q691.0 70.5 691.0 71.6L691.0 71.6Q691.0 72.7 690.4 73.5Q689.8 74.3 688.7 74.8Q687.6 75.2 686.1 75.2Z "/></g><mask id="satori_om-id-0-1-1"><rect x="120" y="88" width="572" height="17" fill="#fff" mask="url(#satori_om-id-0)"/></mask><g mask="url(#satori_om-id-0)" clip-path="url(#satori_cp-id-0)"><path fill="#94a3b8" d="M121.7 102L120.4 102L124.1 91.8L125.6 91.8L129.3 102L127.9 102L126.9 99.2L122.7 99.2L121.7 102ZM123.1 98.0L126.5 98.0L125.8 96.0Q125.6 95.4 125.3 94.6L125.3 94.6Q125.1 93.9 124.8 92.9L124.8 92.9Q124.5 93.9 124.3 94.6L124.3 94.6Q124.0 95.4 123.8 96.0L123.8 96.0L123.1 98.0ZM130.7 91.8L132.0 91.8L132.0 102L130.7 102L130.7 91.8ZM137.1 102L135.8 102L133.5 94.4L134.8 94.4L135.8 97.7Q136.0 98.4 136.2 99.2L136.2 99.2Q136.3 99.9 136.5 100.7L136.5 100.7Q136.7 99.9 136.8 99.3L136.8 99.3Q137.0 98.4 137.2 97.7L137.2 97.7L138.1 94.4L139.4 94.4L140.4 97.7Q140.5 98.4 140.8 99.3L140.8 99.3Q140.9 99.9 141.1 100.7L141.1 100.7Q141.2 99.9 141.4 99.3L141.4 99.3Q141.6 98.4 141.8 97.7L141.8 97.7L142.7 94.4L144.0 94.4L141.7 102L140.5 102L139.5 98.5Q139.3 98.0 139.2 97.5Q139.1 96.9 138.9 96.3L138.9 96.3Q138.9 96.1 138.8 95.8L138.8 95.8Q138.7 96.0 138.6 96.3L138.6 96.3Q138.5 96.9 138.4 97.5Q138.2 98.0 138.1 98.5L138.1 98.5L137.1 102ZM147.7 102.2L147.7 102.2Q147.0 102.2 146.4 101.9Q145.8 101.6 145.5 101.1Q145.1 100.6 145.1 99.8L145.1 99.8Q145.1 99.2 145.4 98.8Q145.6 98.3 146.1 98.1Q146.5 97.9 147.0 97.8Q147.6 97.6 148.1 97.6L148.1 97.6Q148.8 97.5 149.2 97.4Q149.6 97.4 149.8 97.3Q150.1 97.2 150.1 96.9L150.1 96.9L150.1 96.8Q150.1 96.4 149.9 96.0Q149.7 95.7 149.3 95.5Q149.0 95.3 148.5 95.3L148.5 95.3Q147.9 95.3 147.5 95.5Q147.1 95.7 146.9 95.9Q146.6 96.2 146.5 96.5L146.5 96.5L145.3 96.1Q145.6 95.4 146.1 95.0Q146.6 94.6 147.2 94.4Q147.8 94.3 148.4 94.3L148.4 94.3Q148.8 94.3 149.3 94.4Q149.8 94.4 150.2 94.7Q150.7 95.0 151.0 95.5Q151.3 96.1 151.3 97.0L151.3 97.0L151.3 102L150.1 102L150.1 101.0L150.0 101.0Q149.9 101.2 149.6 101.5Q149.3 101.8 148.8 102.0Q148.4 102.2 147.7 102.2ZM147.9 101.1L147.9 101.1Q148.6 101.1 149.1 100.8Q149.6 100.6 149.8 100.1Q150.1 99.7 150.1 99.2L150.1 99.2L150.1 98.2Q150.0 98.3 149.7 98.3Q149.5 98.4 149.2 98.5Q148.8 98.5 148.5 98.6Q148.2 98.6 148.0 98.6L148.0 98.6Q147.6 98.7 147.2 98.8Q146.8 98.9 146.6 99.2Q146.4 99.5 146.4 99.9L146.4 99.9Q146.4 100.3 146.6 100.6Q146.8 100.8 147.1 101.0Q147.5 101.1 147.9 101.1ZM153.3 104.8L153.3 104.8L153.6 103.7L153.8 103.7Q154.1 103.8 154.5 103.8Q154.8 103.7 155.0 103.5Q155.3 103.2 155.4 102.7L155.4 102.7L155.7 102.0L152.7 94.4L154.1 94.4L155.7 98.9Q156.0 99.6 156.1 100.3L156.1 100.3Q156.2 100.6 156.3 100.9L156.3 100.9Q156.4 100.6 156.5 100.3L156.5 100.3Q156.6 99.6 156.9 98.9L156.9 98.9L158.5 94.4L159.9 94.4L156.5 103.1Q156.3 103.8 156.0 104.1Q155.6 104.5 155.2 104.7Q154.8 104.9 154.2 104.9L154.2 104.9Q153.9 104.9 153.7 104.9Q153.4 104.8 153.3 104.8ZM163.9 102.2L163.9 102.2Q163.1 102.2 162.5 101.9Q161.9 101.7 161.5 101.3Q161.1 100.8 161.0 100.1L161.0 100.1L162.1 99.9Q162.3 100.5 162.8 100.8Q163.2 101.1 163.9 101.1L163.9 101.1Q164.7 101.1 165.2 100.7Q165.7 100.4 165.7 99.9L165.7 99.9Q165.7 99.5 165.4 99.3Q165.1 99.0 164.5 98.9L164.5 98.9L163.3 98.6Q162.2 98.3 161.7 97.8Q161.2 97.3 161.2 96.5L161.2 96.5Q161.2 95.8 161.6 95.3Q161.9 94.8 162.6 94.5Q163.2 94.3 164.0 94.3L164.0 94.3Q164.8 94.3 165.4 94.5Q165.9 94.7 166.3 95.1Q166.6 95.6 166.8 96.1L166.8 96.1L165.7 96.4Q165.5 96.0 165.1 95.6Q164.8 95.3 164.0 95.3L164.0 95.3Q163.4 95.3 162.9 95.6Q162.5 95.9 162.5 96.4L162.5 96.4Q162.5 96.8 162.8 97.1Q163.1 97.4 163.7 97.5L163.7 97.5L164.9 97.8Q165.9 98.0 166.4 98.5Q166.9 99.1 166.9 99.8L166.9 99.8Q166.9 100.5 166.5 101.0Q166.2 101.6 165.5 101.9Q164.8 102.2 163.9 102.2Z M175.8 102.2L175.8 102.2Q174.7 102.2 173.9 101.7Q173.1 101.2 172.7 100.3Q172.3 99.4 172.3 98.2L172.3 98.2Q172.3 97.0 172.7 96.1Q173.1 95.2 173.9 94.8Q174.7 94.3 175.8 94.3L175.8 94.3Q176.8 94.3 177.6 94.8Q178.4 95.2 178.8 96.1Q179.2 97.0 179.2 98.2L179.2 98.2Q179.2 99.4 178.8 100.3Q178.4 101.2 177.6 101.7Q176.8 102.2 175.8 102.2ZM175.8 101.1L175.8 101.1Q176.5 101.1 177.0 100.7Q177.5 100.3 177.8 99.6Q178.0 99.0 178.0 98.2L178.0 98.2Q178.0 97.5 177.8 96.8Q177.5 96.2 177.0 95.8Q176.5 95.4 175.8 95.4L175.8 95.4Q175.0 95.4 174.5 95.8Q174.0 96.2 173.8 96.8Q173.5 97.5 173.5 98.2L173.5 98.2Q173.5 99.0 173.8 99.6Q174.0 100.3 174.5 100.7Q175.0 101.1 175.8 101.1ZM182.3 104.9L181.0 104.9L181.0 94.4L182.2 94.4L182.2 95.6L182.4 95.6Q182.5 95.4 182.7 95.1Q183.0 94.8 183.4 94.5Q183.8 94.3 184.6 94.3L184.6 94.3Q185.5 94.3 186.3 94.7Q187.0 95.2 187.4 96.1Q187.8 97.0 187.8 98.2L187.8 98.2Q187.8 99.4 187.4 100.3Q187.0 101.2 186.3 101.7Q185.5 102.2 184.6 102.2L184.6 102.2Q183.9 102.2 183.4 101.9Q183.0 101.7 182.7 101.3Q182.5 101.0 182.4 100.8L182.4 100.8L182.3 100.8L182.3 104.9ZM184.4 101.1L184.4 101.1Q185.1 101.1 185.6 100.7Q186.1 100.3 186.3 99.6Q186.6 99.0 186.6 98.2L186.6 98.2Q186.6 97.4 186.3 96.8Q186.1 96.1 185.6 95.7Q185.1 95.4 184.4 95.4L184.4 95.4Q183.7 95.4 183.2 95.7Q182.7 96.1 182.5 96.7Q182.3 97.3 182.3 98.2L182.3 98.2Q182.3 99.0 182.5 99.7Q182.7 100.3 183.2 100.7Q183.7 101.1 184.4 101.1ZM192.8 102.2L192.8 102.2Q191.7 102.2 190.9 101.7Q190.1 101.2 189.7 100.3Q189.2 99.4 189.2 98.2Q189.2 97.1 189.7 96.2Q190.1 95.3 190.9 94.8Q191.6 94.3 192.7 94.3L192.7 94.3Q193.3 94.3 193.9 94.5Q194.5 94.7 195.0 95.1Q195.4 95.6 195.7 96.3Q196.0 97.0 196.0 98.1L196.0 98.1L196.0 98.6L190.5 98.6Q190.5 99.3 190.8 99.9L190.8 99.9Q191.1 100.5 191.6 100.8Q192.1 101.1 192.8 101.1L192.8 101.1Q193.3 101.1 193.7 100.9Q194.0 100.8 194.3 100.5Q194.6 100.3 194.7 99.9L194.7 99.9L195.9 100.2Q195.7 100.8 195.3 101.2Q194.9 101.7 194.2 101.9Q193.6 102.2 192.8 102.2ZM190.5 97.6L190.5 97.6L194.8 97.6Q194.7 97.0 194.5 96.6L194.5 96.6Q194.3 96.0 193.8 95.7Q193.4 95.4 192.7 95.4Q192.0 95.4 191.5 95.7Q191.0 96.0 190.7 96.6L190.7 96.6Q190.5 97.0 190.5 97.6ZM199.0 97.4L199.0 97.4L199.0 102L197.8 102L197.8 94.4L199.0 94.4L199.0 95.8Q199.3 95.1 199.8 94.7L199.8 94.7Q200.4 94.3 201.3 94.3L201.3 94.3Q202.1 94.3 202.7 94.6Q203.2 94.9 203.6 95.5Q203.9 96.2 203.9 97.1L203.9 97.1L203.9 102L202.7 102L202.7 97.2Q202.7 96.4 202.2 95.9Q201.7 95.4 200.9 95.4L200.9 95.4Q200.4 95.4 199.9 95.6Q199.5 95.8 199.3 96.3Q199.0 96.8 199.0 97.4Z M211.4 94.4L213.0 94.4L213.0 95.4L211.4 95.4L211.4 100.0Q211.4 100.5 211.6 100.8Q211.8 101.0 212.3 101.0L212.3 101.0Q212.4 101.0 212.6 101.0Q212.8 100.9 212.9 100.9L212.9 100.9L213.2 102.0Q213.0 102.0 212.8 102.1Q212.5 102.1 212.3 102.1L212.3 102.1Q211.3 102.1 210.7 101.6Q210.2 101.0 210.2 100.1L210.2 100.1L210.2 95.4L209.0 95.4L209.0 94.4L210.2 94.4L210.2 92.5L211.4 92.5L211.4 94.4ZM217.7 102.2L217.7 102.2Q216.6 102.2 215.9 101.7Q215.1 101.2 214.6 100.3Q214.2 99.4 214.2 98.2L214.2 98.2Q214.2 97.0 214.6 96.1Q215.1 95.2 215.9 94.8Q216.6 94.3 217.7 94.3L217.7 94.3Q218.7 94.3 219.5 94.8Q220.3 95.2 220.7 96.1Q221.2 97.0 221.2 98.2L221.2 98.2Q221.2 99.4 220.7 100.3Q220.3 101.2 219.5 101.7Q218.7 102.2 217.7 102.2ZM217.7 101.1L217.7 101.1Q218.4 101.1 218.9 100.7Q219.4 100.3 219.7 99.6Q219.9 99.0 219.9 98.2L219.9 98.2Q219.9 97.5 219.7 96.8Q219.4 96.2 218.9 95.8Q218.4 95.4 217.7 95.4L217.7 95.4Q216.9 95.4 216.4 95.8Q215.9 96.2 215.7 96.8Q215.4 97.5 215.4 98.2L215.4 98.2Q215.4 99.0 215.7 99.6Q215.9 100.3 216.4 100.7Q216.9 101.1 217.7 101.1Z M228.1 102L226.9 102L226.9 94.4L228.1 94.4L228.1 95.5L228.2 95.5Q228.4 95.0 228.9 94.6Q229.5 94.2 230.1 94.2L230.1 94.2Q230.3 94.2 230.5 94.3Q230.7 94.3 230.8 94.3L230.8 94.3L230.8 95.5Q230.7 95.5 230.5 95.5Q230.3 95.4 230.0 95.4L230.0 95.4Q229.5 95.4 229.1 95.7Q228.6 95.9 228.4 96.3Q228.1 96.7 228.1 97.2L228.1 97.2L228.1 102ZM235.4 102.2L235.4 102.2Q234.3 102.2 233.5 101.7Q232.7 101.2 232.2 100.3Q231.8 99.4 231.8 98.2Q231.8 97.1 232.2 96.2Q232.6 95.3 233.4 94.8Q234.2 94.3 235.2 94.3L235.2 94.3Q235.8 94.3 236.4 94.5Q237.0 94.7 237.5 95.1Q238.0 95.6 238.3 96.3Q238.6 97.0 238.6 98.1L238.6 98.1L238.6 98.6L233.0 98.6Q233.1 99.3 233.3 99.9L233.3 99.9Q233.6 100.5 234.2 100.8Q234.7 101.1 235.4 101.1L235.4 101.1Q235.8 101.1 236.2 100.9Q236.6 100.8 236.8 100.5Q237.1 100.3 237.3 99.9L237.3 99.9L238.4 100.2Q238.3 100.8 237.8 101.2Q237.4 101.7 236.8 101.9Q236.2 102.2 235.4 102.2ZM233.0 97.6L233.0 97.6L237.3 97.6Q237.3 97.0 237.1 96.6L237.1 96.6Q236.9 96.0 236.4 95.7Q235.9 95.4 235.2 95.4Q234.5 95.4 234.1 95.7Q233.6 96.0 233.3 96.6L233.3 96.6Q233.1 97.0 233.0 97.6ZM242.9 102.2L242.9 102.2Q242.1 102.2 241.5 101.9Q240.9 101.7 240.5 101.3Q240.1 100.8 240.0 100.1L240.0 100.1L241.2 99.9Q241.3 100.5 241.8 100.8Q242.2 101.1 242.9 101.1L242.9 101.1Q243.7 101.1 244.2 100.7Q244.7 100.4 244.7 99.9L244.7 99.9Q244.7 99.5 244.4 99.3Q244.1 99.0 243.5 98.9L243.5 98.9L242.3 98.6Q241.2 98.3 240.7 97.8Q240.2 97.3 240.2 96.5L240.2 96.5Q240.2 95.8 240.6 95.3Q241.0 94.8 241.6 94.5Q242.2 94.3 243.0 94.3L243.0 94.3Q243.8 94.3 244.4 94.5Q244.9 94.7 245.3 95.1Q245.6 95.6 245.8 96.1L245.8 96.1L244.7 96.4Q244.5 96.0 244.2 95.6Q243.8 95.3 243.1 95.3L243.1 95.3Q242.4 95.3 241.9 95.6Q241.5 95.9 241.5 96.4L241.5 96.4Q241.5 96.8 241.8 97.1Q242.1 97.4 242.7 97.5L242.7 97.5L243.9 97.8Q244.9 98.0 245.4 98.5Q245.9 99.1 245.9 99.8L245.9 99.8Q245.9 100.5 245.6 101.0Q245.2 101.6 244.5 101.9Q243.8 102.2 242.9 102.2ZM250.9 102.2L250.9 102.2Q249.8 102.2 249.0 101.7Q248.2 101.2 247.8 100.3Q247.3 99.4 247.3 98.2Q247.3 97.1 247.8 96.2Q248.2 95.3 249.0 94.8Q249.7 94.3 250.8 94.3L250.8 94.3Q251.4 94.3 252.0 94.5Q252.6 94.7 253.1 95.1Q253.5 95.6 253.8 96.3Q254.1 97.0 254.1 98.1L254.1 98.1L254.1 98.6L248.6 98.6Q248.6 99.3 248.9 99.9L248.9 99.9Q249.2 100.5 249.7 100.8Q250.2 101.1 250.9 101.1L250.9 101.1Q251.4 101.1 251.8 100.9Q252.1 100.8 252.4 100.5Q252.7 100.3 252.8 99.9L252.8 99.9L254.0 100.2Q253.8 100.8 253.4 101.2Q253.0 101.7 252.3 101.9Q251.7 102.2 250.9 102.2ZM248.6 97.6L248.6 97.6L252.9 97.6Q252.8 97.0 252.6 96.6L252.6 96.6Q252.4 96.0 251.9 95.7Q251.5 95.4 250.8 95.4Q250.1 95.4 249.6 95.7Q249.1 96.0 248.9 96.6L248.9 96.6Q248.6 97.0 248.6 97.6ZM258.0 102.2L258.0 102.2Q257.3 102.2 256.7 101.9Q256.1 101.6 255.8 101.1Q255.4 100.6 255.4 99.8L255.4 99.8Q255.4 99.2 255.7 98.8Q255.9 98.3 256.4 98.1Q256.8 97.9 257.3 97.8Q257.9 97.6 258.4 97.6L258.4 97.6Q259.1 97.5 259.5 97.4Q259.9 97.4 260.1 97.3Q260.3 97.2 260.3 96.9L260.3 96.9L260.3 96.8Q260.3 96.4 260.2 96.0Q260.0 95.7 259.6 95.5Q259.3 95.3 258.7 95.3L258.7 95.3Q258.2 95.3 257.8 95.5Q257.4 95.7 257.2 95.9Q256.9 96.2 256.8 96.5L256.8 96.5L255.6 96.1Q255.9 95.4 256.4 95.0Q256.9 94.6 257.5 94.4Q258.1 94.3 258.7 94.3L258.7 94.3Q259.1 94.3 259.6 94.4Q260.1 94.4 260.5 94.7Q261.0 95.0 261.3 95.5Q261.6 96.1 261.6 97.0L261.6 97.0L261.6 102L260.4 102L260.4 101.0L260.3 101.0Q260.2 101.2 259.9 101.5Q259.6 101.8 259.1 102.0Q258.7 102.2 258.0 102.2ZM258.2 101.1L258.2 101.1Q258.9 101.1 259.4 100.8Q259.9 100.6 260.1 100.1Q260.3 99.7 260.3 99.2L260.3 99.2L260.3 98.2Q260.3 98.3 260.0 98.3Q259.8 98.4 259.4 98.5Q259.1 98.5 258.8 98.6Q258.5 98.6 258.3 98.6L258.3 98.6Q257.9 98.7 257.5 98.8Q257.1 98.9 256.9 99.2Q256.7 99.5 256.7 99.9L256.7 99.9Q256.7 100.3 256.9 100.6Q257.1 100.8 257.4 101.0Q257.8 101.1 258.2 101.1ZM265.0 102L263.7 102L263.7 94.4L264.9 94.4L264.9 95.5L265.0 95.5Q265.2 95.0 265.8 94.6Q266.3 94.2 267.0 94.2L267.0 94.2Q267.1 94.2 267.3 94.3Q267.5 94.3 267.6 94.3L267.6 94.3L267.6 95.5Q267.6 95.5 267.3 95.5Q267.1 95.4 266.9 95.4L266.9 95.4Q266.3 95.4 265.9 95.7Q265.5 95.9 265.2 96.3Q265.0 96.7 265.0 97.2L265.0 97.2L265.0 102ZM272.1 102.2L272.1 102.2Q271.1 102.2 270.3 101.7Q269.5 101.2 269.1 100.3Q268.6 99.4 268.6 98.2L268.6 98.2Q268.6 97.0 269.1 96.1Q269.5 95.2 270.3 94.8Q271.1 94.3 272.1 94.3L272.1 94.3Q272.7 94.3 273.2 94.4Q273.7 94.5 274.1 94.8Q274.5 95.1 274.8 95.5Q275.1 95.9 275.2 96.4L275.2 96.4L274.0 96.7Q274.0 96.4 273.8 96.2Q273.6 95.9 273.4 95.7Q273.1 95.6 272.8 95.5Q272.5 95.4 272.1 95.4L272.1 95.4Q271.4 95.4 270.9 95.8Q270.4 96.2 270.1 96.8Q269.9 97.5 269.9 98.2L269.9 98.2Q269.9 99.0 270.1 99.6Q270.4 100.3 270.9 100.7Q271.4 101.1 272.1 101.1L272.1 101.1Q272.5 101.1 272.8 101.0Q273.1 100.9 273.4 100.7Q273.6 100.5 273.8 100.2Q274.0 100.0 274.1 99.7L274.1 99.7L275.2 100.0Q275.1 100.5 274.8 100.9Q274.5 101.3 274.1 101.6Q273.7 101.9 273.2 102.0Q272.7 102.2 272.1 102.2ZM278.2 97.4L278.2 97.4L278.2 102L277.0 102L277.0 91.8L278.2 91.8L278.2 95.7Q278.6 95.0 279.0 94.7L279.0 94.7Q279.7 94.3 280.5 94.3L280.5 94.3Q281.3 94.3 281.9 94.6Q282.5 94.9 282.8 95.5Q283.1 96.2 283.1 97.1L283.1 97.1L283.1 102L281.9 102L281.9 97.2Q281.9 96.4 281.4 95.9Q281.0 95.4 280.2 95.4L280.2 95.4Q279.6 95.4 279.2 95.6Q278.7 95.8 278.5 96.3Q278.2 96.8 278.2 97.4Z M292.3 102.2L292.3 102.2Q291.3 102.2 290.5 101.7Q289.7 101.2 289.3 100.3Q288.9 99.4 288.9 98.2L288.9 98.2Q288.9 97.0 289.3 96.1Q289.7 95.2 290.5 94.8Q291.3 94.3 292.3 94.3L292.3 94.3Q292.9 94.3 293.4 94.4Q293.9 94.5 294.3 94.8Q294.7 95.1 295.0 95.5Q295.3 95.9 295.4 96.4L295.4 96.4L294.2 96.7Q294.2 96.4 294.0 96.2Q293.8 95.9 293.6 95.7Q293.3 95.6 293.0 95.5Q292.7 95.4 292.3 95.4L292.3 95.4Q291.6 95.4 291.1 95.8Q290.6 96.2 290.3 96.8Q290.1 97.5 290.1 98.2L290.1 98.2Q290.1 99.0 290.3 99.6Q290.6 100.3 291.1 100.7Q291.6 101.1 292.3 101.1L292.3 101.1Q292.7 101.1 293.0 101.0Q293.4 100.9 293.6 100.7Q293.9 100.5 294.0 100.2Q294.2 100.0 294.3 99.7L294.3 99.7L295.5 100.0Q295.3 100.5 295.0 100.9Q294.7 101.3 294.3 101.6Q293.9 101.9 293.4 102.0Q292.9 102.2 292.3 102.2ZM300.3 102.2L300.3 102.2Q299.3 102.2 298.5 101.7Q297.7 101.2 297.3 100.3Q296.9 99.4 296.9 98.2L296.9 98.2Q296.9 97.0 297.3 96.1Q297.7 95.2 298.5 94.8Q299.3 94.3 300.3 94.3L300.3 94.3Q301.4 94.3 302.2 94.8Q303.0 95.2 303.4 96.1Q303.8 97.0 303.8 98.2L303.8 98.2Q303.8 99.4 303.4 100.3Q303.0 101.2 302.2 101.7Q301.4 102.2 300.3 102.2ZM300.3 101.1L300.3 101.1Q301.1 101.1 301.6 100.7Q302.1 100.3 302.3 99.6Q302.6 99.0 302.6 98.2L302.6 98.2Q302.6 97.5 302.3 96.8Q302.1 96.2 301.6 95.8Q301.1 95.4 300.3 95.4L300.3 95.4Q299.6 95.4 299.1 95.8Q298.6 96.2 298.3 96.8Q298.1 97.5 298.1 98.2L298.1 98.2Q298.1 99.0 298.3 99.6Q298.6 100.3 299.1 100.7Q299.6 101.1 300.3 101.1ZM305.6 91.8L306.8 91.8L306.8 102L305.6 102L305.6 91.8ZM309.0 91.8L310.2 91.8L310.2 102L309.0 102L309.0 91.8ZM314.5 102.2L314.5 102.2Q313.8 102.2 313.2 101.9Q312.6 101.6 312.3 101.1Q311.9 100.6 311.9 99.8L311.9 99.8Q311.9 99.2 312.2 98.8Q312.5 98.3 312.9 98.1Q313.3 97.9 313.8 97.8Q314.4 97.6 314.9 97.6L314.9 97.6Q315.6 97.5 316.0 97.4Q316.5 97.4 316.7 97.3Q316.9 97.2 316.9 96.9L316.9 96.9L316.9 96.8Q316.9 96.4 316.7 96.0Q316.5 95.7 316.2 95.5Q315.8 95.3 315.3 95.3L315.3 95.3Q314.7 95.3 314.3 95.5Q313.9 95.7 313.7 95.9Q313.5 96.2 313.3 96.5L313.3 96.5L312.2 96.1Q312.4 95.4 312.9 95.0Q313.4 94.6 314.0 94.4Q314.6 94.3 315.2 94.3L315.2 94.3Q315.6 94.3 316.1 94.4Q316.6 94.4 317.0 94.7Q317.5 95.0 317.8 95.5Q318.1 96.1 318.1 97.0L318.1 97.0L318.1 102L316.9 102L316.9 101.0L316.8 101.0Q316.7 101.2 316.4 101.5Q316.1 101.8 315.6 102.0Q315.2 102.2 314.5 102.2ZM314.7 101.1L314.7 101.1Q315.4 101.1 315.9 100.8Q316.4 100.6 316.6 100.1Q316.9 99.7 316.9 99.2L316.9 99.2L316.9 98.2Q316.8 98.3 316.5 98.3Q316.3 98.4 316.0 98.5Q315.6 98.5 315.3 98.6Q315.0 98.6 314.9 98.6L314.9 98.6Q314.4 98.7 314.0 98.8Q313.6 98.9 313.4 99.2Q313.2 99.5 313.2 99.9L313.2 99.9Q313.2 100.3 313.4 100.6Q313.6 100.8 313.9 101.0Q314.3 101.1 314.7 101.1ZM323.8 102.2L323.8 102.2Q323.1 102.2 322.6 101.9Q322.2 101.7 322.0 101.3Q321.7 101.0 321.6 100.8L321.6 100.8L321.4 100.8L321.4 102L320.3 102L320.3 91.8L321.5 91.8L321.5 95.6L321.6 95.6Q321.7 95.4 321.9 95.1Q322.2 94.8 322.6 94.5Q323.1 94.3 323.8 94.3L323.8 94.3Q324.8 94.3 325.5 94.7Q326.2 95.2 326.6 96.1Q327.0 97.0 327.0 98.2L327.0 98.2Q327.0 99.4 326.6 100.3Q326.2 101.2 325.5 101.7Q324.8 102.2 323.8 102.2ZM323.6 101.1L323.6 101.1Q324.3 101.1 324.8 100.7Q325.3 100.3 325.5 99.6Q325.8 99.0 325.8 98.2L325.8 98.2Q325.8 97.4 325.5 96.8Q325.3 96.1 324.8 95.7Q324.3 95.4 323.6 95.4L323.6 95.4Q322.9 95.4 322.4 95.7Q322.0 96.1 321.7 96.7Q321.5 97.3 321.5 98.2L321.5 98.2Q321.5 99.0 321.7 99.7Q322.0 100.3 322.4 100.7Q322.9 101.1 323.6 101.1ZM331.9 102.2L331.9 102.2Q330.9 102.2 330.1 101.7Q329.3 101.2 328.9 100.3Q328.5 99.4 328.5 98.2L328.5 98.2Q328.5 97.0 328.9 96.1Q329.3 95.2 330.1 94.8Q330.9 94.3 331.9 94.3L331.9 94.3Q333.0 94.3 333.8 94.8Q334.6 95.2 335.0 96.1Q335.4 97.0 335.4 98.2L335.4 98.2Q335.4 99.4 335.0 100.3Q334.6 101.2 333.8 101.7Q333.0 102.2 331.9 102.2ZM331.9 101.1L331.9 101.1Q332.7 101.1 333.2 100.7Q333.7 100.3 334.0 99.6Q334.2 99.0 334.2 98.2L334.2 98.2Q334.2 97.5 334.0 96.8Q333.7 96.2 333.2 95.8Q332.7 95.4 331.9 95.4L331.9 95.4Q331.2 95.4 330.7 95.8Q330.2 96.2 330.0 96.8Q329.7 97.5 329.7 98.2L329.7 98.2Q329.7 99.0 330.0 99.6Q330.2 100.3 330.7 100.7Q331.2 101.1 331.9 101.1ZM338.5 102L337.2 102L337.2 94.4L338.4 94.4L338.4 95.5L338.5 95.5Q338.7 95.0 339.3 94.6Q339.8 94.2 340.5 94.2L340.5 94.2Q340.6 94.2 340.8 94.3Q341.0 94.3 341.1 94.3L341.1 94.3L341.1 95.5Q341.0 95.5 340.8 95.5Q340.6 95.4 340.4 95.4L340.4 95.4Q339.8 95.4 339.4 95.7Q338.9 95.9 338.7 96.3Q338.5 96.7 338.5 97.2L338.5 97.2L338.5 102ZM344.6 102.2L344.6 102.2Q343.9 102.2 343.3 101.9Q342.7 101.6 342.4 101.1Q342.0 100.6 342.0 99.8L342.0 99.8Q342.0 99.2 342.3 98.8Q342.6 98.3 343.0 98.1Q343.4 97.9 343.9 97.8Q344.5 97.6 345.0 97.6L345.0 97.6Q345.7 97.5 346.1 97.4Q346.5 97.4 346.8 97.3Q347.0 97.2 347.0 96.9L347.0 96.9L347.0 96.8Q347.0 96.4 346.8 96.0Q346.6 95.7 346.3 95.5Q345.9 95.3 345.4 95.3L345.4 95.3Q344.8 95.3 344.4 95.5Q344.0 95.7 343.8 95.9Q343.6 96.2 343.4 96.5L343.4 96.5L342.3 96.1Q342.5 95.4 343.0 95.0Q343.5 94.6 344.1 94.4Q344.7 94.3 345.3 94.3L345.3 94.3Q345.7 94.3 346.2 94.4Q346.7 94.4 347.1 94.7Q347.6 95.0 347.9 95.5Q348.2 96.1 348.2 97.0L348.2 97.0L348.2 102L347.0 102L347.0 101.0L346.9 101.0Q346.8 101.2 346.5 101.5Q346.2 101.8 345.7 102.0Q345.3 102.2 344.6 102.2ZM344.8 101.1L344.8 101.1Q345.5 101.1 346.0 100.8Q346.5 100.6 346.7 100.1Q347.0 99.7 347.0 99.2L347.0 99.2L347.0 98.2Q346.9 98.3 346.6 98.3Q346.4 98.4 346.1 98.5Q345.7 98.5 345.4 98.6Q345.1 98.6 345.0 98.6L345.0 98.6Q344.5 98.7 344.1 98.8Q343.7 98.9 343.5 99.2Q343.3 99.5 343.3 99.9L343.3 99.9Q343.3 100.3 343.5 100.6Q343.7 100.8 344.0 101.0Q344.4 101.1 344.8 101.1ZM351.8 94.4L353.4 94.4L353.4 95.4L351.8 95.4L351.8 100.0Q351.8 100.5 352.0 100.8Q352.2 101.0 352.7 101.0L352.7 101.0Q352.8 101.0 353.0 101.0Q353.2 100.9 353.3 100.9L353.3 100.9L353.6 102.0Q353.4 102.0 353.1 102.1Q352.9 102.1 352.7 102.1L352.7 102.1Q351.7 102.1 351.1 101.6Q350.6 101.0 350.6 100.1L350.6 100.1L350.6 95.4L349.4 95.4L349.4 94.4L350.6 94.4L350.6 92.5L351.8 92.5L351.8 94.4ZM356.2 102L354.9 102L354.9 94.4L356.2 94.4L356.2 102ZM355.6 93.1L355.6 93.1Q355.2 93.1 355.0 92.9Q354.7 92.6 354.7 92.3L354.7 92.3Q354.7 92.0 355.0 91.7Q355.2 91.5 355.6 91.5L355.6 91.5Q355.9 91.5 356.2 91.7Q356.4 92.0 356.4 92.3L356.4 92.3Q356.4 92.6 356.2 92.9Q355.9 93.1 355.6 93.1ZM361.4 102.2L361.4 102.2Q360.4 102.2 359.6 101.7Q358.8 101.2 358.4 100.3Q358.0 99.4 358.0 98.2L358.0 98.2Q358.0 97.0 358.4 96.1Q358.8 95.2 359.6 94.8Q360.4 94.3 361.4 94.3L361.4 94.3Q362.5 94.3 363.3 94.8Q364.1 95.2 364.5 96.1Q364.9 97.0 364.9 98.2L364.9 98.2Q364.9 99.4 364.5 100.3Q364.1 101.2 363.3 101.7Q362.5 102.2 361.4 102.2ZM361.4 101.1L361.4 101.1Q362.2 101.1 362.7 100.7Q363.2 100.3 363.4 99.6Q363.7 99.0 363.7 98.2L363.7 98.2Q363.7 97.5 363.4 96.8Q363.2 96.2 362.7 95.8Q362.2 95.4 361.4 95.4L361.4 95.4Q360.7 95.4 360.2 95.8Q359.7 96.2 359.4 96.8Q359.2 97.5 359.2 98.2L359.2 98.2Q359.2 99.0 359.4 99.6Q359.7 100.3 360.2 100.7Q360.7 101.1 361.4 101.1ZM368.0 97.4L368.0 97.4L368.0 102L366.7 102L366.7 94.4L367.9 94.4L367.9 95.8Q368.2 95.1 368.7 94.7L368.7 94.7Q369.4 94.3 370.3 94.3L370.3 94.3Q371.0 94.3 371.6 94.6Q372.2 94.9 372.5 95.5Q372.8 96.2 372.8 97.1L372.8 97.1L372.8 102L371.6 102L371.6 97.2Q371.6 96.4 371.1 95.9Q370.7 95.4 369.9 95.4L369.9 95.4Q369.3 95.4 368.9 95.6Q368.5 95.8 368.2 96.3Q368.0 96.8 368.0 97.4ZM377.6 102.2L377.6 102.2Q376.8 102.2 376.2 101.9Q375.6 101.7 375.2 101.3Q374.8 100.8 374.7 100.1L374.7 100.1L375.8 99.9Q376.0 100.5 376.4 100.8Q376.9 101.1 377.6 101.1L377.6 101.1Q378.4 101.1 378.9 100.7Q379.3 100.4 379.3 99.9L379.3 99.9Q379.3 99.5 379.1 99.3Q378.8 99.0 378.2 98.9L378.2 98.9L376.9 98.6Q375.9 98.3 375.4 97.8Q374.9 97.3 374.9 96.5L374.9 96.5Q374.9 95.8 375.3 95.3Q375.6 94.8 376.3 94.5Q376.9 94.3 377.7 94.3L377.7 94.3Q378.5 94.3 379.1 94.5Q379.6 94.7 379.9 95.1Q380.3 95.6 380.5 96.1L380.5 96.1L379.3 96.4Q379.2 96.0 378.8 95.6Q378.5 95.3 377.7 95.3L377.7 95.3Q377.0 95.3 376.6 95.6Q376.1 95.9 376.1 96.4L376.1 96.4Q376.1 96.8 376.4 97.1Q376.7 97.4 377.4 97.5L377.4 97.5L378.6 97.8Q379.6 98.0 380.1 98.5Q380.6 99.1 380.6 99.8L380.6 99.8Q380.6 100.5 380.2 101.0Q379.8 101.6 379.2 101.9Q378.5 102.2 377.6 102.2Z M388.5 102.2L388.5 102.2Q387.7 102.2 387.1 101.9Q386.6 101.6 386.2 101.1Q385.9 100.6 385.9 99.8L385.9 99.8Q385.9 99.2 386.1 98.8Q386.4 98.3 386.8 98.1Q387.2 97.9 387.8 97.8Q388.3 97.6 388.8 97.6L388.8 97.6Q389.5 97.5 389.9 97.4Q390.4 97.4 390.6 97.3Q390.8 97.2 390.8 96.9L390.8 96.9L390.8 96.8Q390.8 96.4 390.6 96.0Q390.4 95.7 390.1 95.5Q389.7 95.3 389.2 95.3L389.2 95.3Q388.6 95.3 388.3 95.5Q387.9 95.7 387.6 95.9Q387.4 96.2 387.3 96.5L387.3 96.5L386.1 96.1Q386.4 95.4 386.9 95.0Q387.4 94.6 388.0 94.4Q388.6 94.3 389.2 94.3L389.2 94.3Q389.5 94.3 390.0 94.4Q390.5 94.4 391.0 94.7Q391.4 95.0 391.7 95.5Q392.0 96.1 392.0 97.0L392.0 97.0L392.0 102L390.8 102L390.8 101.0L390.7 101.0Q390.6 101.2 390.3 101.5Q390.0 101.8 389.6 102.0Q389.1 102.2 388.5 102.2ZM388.7 101.1L388.7 101.1Q389.4 101.1 389.8 100.8Q390.3 100.6 390.5 100.1Q390.8 99.7 390.8 99.2L390.8 99.2L390.8 98.2Q390.7 98.3 390.5 98.3Q390.2 98.4 389.9 98.5Q389.6 98.5 389.3 98.6Q389.0 98.6 388.8 98.6L388.8 98.6Q388.3 98.7 387.9 98.8Q387.6 98.9 387.3 99.2Q387.1 99.5 387.1 99.9L387.1 99.9Q387.1 100.3 387.3 100.6Q387.5 100.8 387.9 101.0Q388.2 101.1 388.7 101.1ZM395.4 97.4L395.4 97.4L395.4 102L394.2 102L394.2 94.4L395.4 94.4L395.4 95.8Q395.7 95.1 396.2 94.7L396.2 94.7Q396.8 94.3 397.7 94.3L397.7 94.3Q398.5 94.3 399.1 94.6Q399.6 94.9 400.0 95.5Q400.3 96.2 400.3 97.1L400.3 97.1L400.3 102L399.1 102L399.1 97.2Q399.1 96.4 398.6 95.9Q398.1 95.4 397.3 95.4L397.3 95.4Q396.8 95.4 396.4 95.6Q395.9 95.8 395.7 96.3Q395.4 96.8 395.4 97.4ZM405.3 102.2L405.3 102.2Q404.4 102.2 403.6 101.7Q402.9 101.2 402.5 100.3Q402.1 99.4 402.1 98.2L402.1 98.2Q402.1 97.0 402.5 96.1Q402.9 95.2 403.6 94.7Q404.4 94.3 405.3 94.3L405.3 94.3Q406.1 94.3 406.5 94.5Q406.9 94.8 407.2 95.1Q407.4 95.4 407.5 95.6L407.5 95.6L407.6 95.6L407.6 91.8L408.9 91.8L408.9 102L407.7 102L407.7 100.8L407.5 100.8Q407.4 101.0 407.2 101.3Q406.9 101.7 406.5 101.9Q406.0 102.2 405.3 102.2ZM405.5 101.1L405.5 101.1Q406.2 101.1 406.7 100.7Q407.2 100.3 407.4 99.7Q407.6 99.0 407.6 98.2L407.6 98.2Q407.6 97.3 407.4 96.7Q407.2 96.1 406.7 95.7Q406.2 95.4 405.5 95.4L405.5 95.4Q404.8 95.4 404.3 95.7Q403.8 96.1 403.6 96.8Q403.3 97.4 403.3 98.2L403.3 98.2Q403.3 99.0 403.6 99.6Q403.8 100.3 404.3 100.7Q404.8 101.1 405.5 101.1Z M416.2 102L415.0 102L415.0 94.4L416.2 94.4L416.2 102ZM415.6 93.1L415.6 93.1Q415.2 93.1 415.0 92.9Q414.7 92.6 414.7 92.3L414.7 92.3Q414.7 92.0 415.0 91.7Q415.2 91.5 415.6 91.5L415.6 91.5Q415.9 91.5 416.2 91.7Q416.4 92.0 416.4 92.3L416.4 92.3Q416.4 92.6 416.2 92.9Q415.9 93.1 415.6 93.1ZM419.6 97.4L419.6 97.4L419.6 102L418.4 102L418.4 94.4L419.5 94.4L419.5 95.8Q419.9 95.1 420.4 94.7L420.4 94.7Q421.0 94.3 421.9 94.3L421.9 94.3Q422.7 94.3 423.2 94.6Q423.8 94.9 424.1 95.5Q424.5 96.2 424.5 97.1L424.5 97.1L424.5 102L423.2 102L423.2 97.2Q423.2 96.4 422.8 95.9Q422.3 95.4 421.5 95.4L421.5 95.4Q421.0 95.4 420.5 95.6Q420.1 95.8 419.8 96.3Q419.6 96.8 419.6 97.4ZM428.1 94.4L429.6 94.4L429.6 95.4L428.1 95.4L428.1 100.0Q428.1 100.5 428.3 100.8Q428.5 101.0 429.0 101.0L429.0 101.0Q429.1 101.0 429.3 101.0Q429.4 100.9 429.6 100.9L429.6 100.9L429.8 102.0Q429.7 102.0 429.4 102.1Q429.2 102.1 428.9 102.1L428.9 102.1Q427.9 102.1 427.4 101.6Q426.8 101.0 426.8 100.1L426.8 100.1L426.8 95.4L425.7 95.4L425.7 94.4L426.8 94.4L426.8 92.5L428.1 92.5L428.1 94.4ZM434.4 102.2L434.4 102.2Q433.3 102.2 432.5 101.7Q431.7 101.2 431.3 100.3Q430.8 99.4 430.8 98.2Q430.8 97.1 431.3 96.2Q431.7 95.3 432.5 94.8Q433.2 94.3 434.3 94.3L434.3 94.3Q434.9 94.3 435.5 94.5Q436.1 94.7 436.5 95.1Q437.0 95.6 437.3 96.3Q437.6 97.0 437.6 98.1L437.6 98.1L437.6 98.6L432.1 98.6Q432.1 99.3 432.4 99.9L432.4 99.9Q432.7 100.5 433.2 100.8Q433.7 101.1 434.4 101.1L434.4 101.1Q434.9 101.1 435.2 100.9Q435.6 100.8 435.9 100.5Q436.1 100.3 436.3 99.9L436.3 99.9L437.5 100.2Q437.3 100.8 436.9 101.2Q436.5 101.7 435.8 101.9Q435.2 102.2 434.4 102.2ZM432.1 97.6L432.1 97.6L436.4 97.6Q436.3 97.0 436.1 96.6L436.1 96.6Q435.9 96.0 435.4 95.7Q435.0 95.4 434.3 95.4Q433.6 95.4 433.1 95.7Q432.6 96.0 432.3 96.6L432.3 96.6Q432.1 97.0 432.1 97.6ZM440.6 102L439.4 102L439.4 94.4L440.6 94.4L440.6 95.5L440.6 95.5Q440.9 95.0 441.4 94.6Q441.9 94.2 442.6 94.2L442.6 94.2Q442.8 94.2 442.9 94.3Q443.1 94.3 443.2 94.3L443.2 94.3L443.2 95.5Q443.2 95.5 443.0 95.5Q442.8 95.4 442.5 95.4L442.5 95.4Q442.0 95.4 441.5 95.7Q441.1 95.9 440.8 96.3Q440.6 96.7 440.6 97.2L440.6 97.2L440.6 102ZM447.9 102.2L447.9 102.2Q446.7 102.2 445.9 101.7Q445.1 101.2 444.7 100.3Q444.3 99.4 444.3 98.2Q444.3 97.1 444.7 96.2Q445.1 95.3 445.9 94.8Q446.7 94.3 447.7 94.3L447.7 94.3Q448.3 94.3 448.9 94.5Q449.5 94.7 450.0 95.1Q450.5 95.6 450.8 96.3Q451.0 97.0 451.0 98.1L451.0 98.1L451.0 98.6L445.5 98.6Q445.5 99.3 445.8 99.9L445.8 99.9Q446.1 100.5 446.6 100.8Q447.2 101.1 447.9 101.1L447.9 101.1Q448.3 101.1 448.7 100.9Q449.0 100.8 449.3 100.5Q449.6 100.3 449.7 99.9L449.7 99.9L450.9 100.2Q450.7 100.8 450.3 101.2Q449.9 101.7 449.3 101.9Q448.6 102.2 447.9 102.2ZM445.5 97.6L445.5 97.6L449.8 97.6Q449.7 97.0 449.6 96.6L449.6 96.6Q449.3 96.0 448.9 95.7Q448.4 95.4 447.7 95.4Q447.0 95.4 446.5 95.7Q446.0 96.0 445.8 96.6L445.8 96.6Q445.6 97.0 445.5 97.6ZM455.4 102.2L455.4 102.2Q454.6 102.2 454.0 101.9Q453.4 101.7 453.0 101.3Q452.6 100.8 452.5 100.1L452.5 100.1L453.6 99.9Q453.8 100.5 454.2 100.8Q454.7 101.1 455.4 101.1L455.4 101.1Q456.2 101.1 456.7 100.7Q457.1 100.4 457.1 99.9L457.1 99.9Q457.1 99.5 456.9 99.3Q456.6 99.0 456.0 98.9L456.0 98.9L454.7 98.6Q453.7 98.3 453.2 97.8Q452.7 97.3 452.7 96.5L452.7 96.5Q452.7 95.8 453.1 95.3Q453.4 94.8 454.1 94.5Q454.7 94.3 455.5 94.3L455.5 94.3Q456.3 94.3 456.9 94.5Q457.4 94.7 457.8 95.1Q458.1 95.6 458.3 96.1L458.3 96.1L457.2 96.4Q457.0 96.0 456.6 95.6Q456.3 95.3 455.5 95.3L455.5 95.3Q454.8 95.3 454.4 95.6Q453.9 95.9 453.9 96.4L453.9 96.4Q453.9 96.8 454.2 97.1Q454.6 97.4 455.2 97.5L455.2 97.5L456.4 97.8Q457.4 98.0 457.9 98.5Q458.4 99.1 458.4 99.8L458.4 99.8Q458.4 100.5 458.0 101.0Q457.7 101.6 457.0 101.9Q456.3 102.2 455.4 102.2ZM461.6 94.4L463.2 94.4L463.2 95.4L461.6 95.4L461.6 100.0Q461.6 100.5 461.8 100.8Q462.0 101.0 462.5 101.0L462.5 101.0Q462.6 101.0 462.8 101.0Q463.0 100.9 463.2 100.9L463.2 100.9L463.4 102.0Q463.2 102.0 463.0 102.1Q462.7 102.1 462.5 102.1L462.5 102.1Q461.5 102.1 460.9 101.6Q460.4 101.0 460.4 100.1L460.4 100.1L460.4 95.4L459.2 95.4L459.2 94.4L460.4 94.4L460.4 92.5L461.6 92.5L461.6 94.4ZM466.0 102L464.8 102L464.8 94.4L466.0 94.4L466.0 102ZM465.4 93.1L465.4 93.1Q465.0 93.1 464.8 92.9Q464.5 92.6 464.5 92.3L464.5 92.3Q464.5 92.0 464.8 91.7Q465.0 91.5 465.4 91.5L465.4 91.5Q465.7 91.5 466.0 91.7Q466.3 92.0 466.3 92.3L466.3 92.3Q466.3 92.6 466.0 92.9Q465.7 93.1 465.4 93.1ZM469.4 97.4L469.4 97.4L469.4 102L468.2 102L468.2 94.4L469.3 94.4L469.4 95.8Q469.7 95.1 470.2 94.7L470.2 94.7Q470.8 94.3 471.7 94.3L471.7 94.3Q472.5 94.3 473.0 94.6Q473.6 94.9 473.9 95.5Q474.3 96.2 474.3 97.1L474.3 97.1L474.3 102L473.0 102L473.0 97.2Q473.0 96.4 472.6 95.9Q472.1 95.4 471.3 95.4L471.3 95.4Q470.8 95.4 470.3 95.6Q469.9 95.8 469.6 96.3Q469.4 96.8 469.4 97.4ZM479.5 105.0L479.5 105.0Q478.7 105.0 478.1 104.8Q477.4 104.6 477.0 104.2Q476.6 103.9 476.4 103.5L476.4 103.5L477.4 102.8Q477.5 103.0 477.8 103.3Q478.0 103.6 478.4 103.8Q478.9 103.9 479.5 103.9L479.5 103.9Q480.4 103.9 481.0 103.5Q481.6 103.1 481.6 102.1L481.6 102.1L481.6 100.6L481.5 100.6Q481.4 100.8 481.1 101.1Q480.9 101.4 480.5 101.6Q480.0 101.9 479.3 101.9L479.3 101.9Q478.4 101.9 477.6 101.4Q476.9 101.0 476.5 100.2Q476.1 99.3 476.1 98.1L476.1 98.1Q476.1 97.0 476.5 96.1Q476.9 95.2 477.6 94.7Q478.4 94.3 479.3 94.3L479.3 94.3Q480.1 94.3 480.5 94.5Q480.9 94.7 481.2 95.1Q481.4 95.4 481.5 95.6L481.5 95.6L481.7 95.6L481.7 94.4L482.9 94.4L482.9 102.2Q482.9 103.2 482.4 103.8Q482.0 104.4 481.2 104.7Q480.5 105.0 479.5 105.0ZM479.5 100.8L479.5 100.8Q480.2 100.8 480.7 100.5Q481.1 100.1 481.4 99.5Q481.6 99.0 481.6 98.1L481.6 98.1Q481.6 97.3 481.4 96.7Q481.2 96.1 480.7 95.7Q480.2 95.4 479.5 95.4L479.5 95.4Q478.8 95.4 478.3 95.7Q477.8 96.1 477.6 96.7Q477.3 97.4 477.3 98.1L477.3 98.1Q477.3 98.9 477.6 99.5Q477.8 100.1 478.3 100.4Q478.8 100.8 479.5 100.8Z M490.2 104.9L489.0 104.9L489.0 94.4L490.1 94.4L490.1 95.6L490.3 95.6Q490.4 95.4 490.6 95.1Q490.9 94.8 491.3 94.5Q491.8 94.3 492.5 94.3L492.5 94.3Q493.5 94.3 494.2 94.7Q494.9 95.2 495.3 96.1Q495.7 97.0 495.7 98.2L495.7 98.2Q495.7 99.4 495.3 100.3Q494.9 101.2 494.2 101.7Q493.5 102.2 492.5 102.2L492.5 102.2Q491.8 102.2 491.3 101.9Q490.9 101.7 490.7 101.3Q490.4 101.0 490.3 100.8L490.3 100.8L490.2 100.8L490.2 104.9ZM492.3 101.1L492.3 101.1Q493.0 101.1 493.5 100.7Q494.0 100.3 494.2 99.6Q494.5 99.0 494.5 98.2L494.5 98.2Q494.5 97.4 494.2 96.8Q494.0 96.1 493.5 95.7Q493.0 95.4 492.3 95.4L492.3 95.4Q491.6 95.4 491.1 95.7Q490.7 96.1 490.4 96.7Q490.2 97.3 490.2 98.2L490.2 98.2Q490.2 99.0 490.4 99.7Q490.7 100.3 491.1 100.7Q491.6 101.1 492.3 101.1ZM498.8 102L497.5 102L497.5 94.4L498.7 94.4L498.7 95.5L498.8 95.5Q499.0 95.0 499.6 94.6Q500.1 94.2 500.8 94.2L500.8 94.2Q500.9 94.2 501.1 94.3Q501.3 94.3 501.4 94.3L501.4 94.3L501.4 95.5Q501.3 95.5 501.1 95.5Q500.9 95.4 500.7 95.4L500.7 95.4Q500.1 95.4 499.7 95.7Q499.3 95.9 499.0 96.3Q498.8 96.7 498.8 97.2L498.8 97.2L498.8 102ZM505.9 102.2L505.9 102.2Q504.9 102.2 504.1 101.7Q503.3 101.2 502.9 100.3Q502.4 99.4 502.4 98.2L502.4 98.2Q502.4 97.0 502.9 96.1Q503.3 95.2 504.1 94.8Q504.9 94.3 505.9 94.3L505.9 94.3Q507.0 94.3 507.7 94.8Q508.5 95.2 509.0 96.1Q509.4 97.0 509.4 98.2L509.4 98.2Q509.4 99.4 509.0 100.3Q508.5 101.2 507.7 101.7Q507.0 102.2 505.9 102.2ZM505.9 101.1L505.9 101.1Q506.7 101.1 507.2 100.7Q507.7 100.3 507.9 99.6Q508.2 99.0 508.2 98.2L508.2 98.2Q508.2 97.5 507.9 96.8Q507.7 96.2 507.2 95.8Q506.7 95.4 505.9 95.4L505.9 95.4Q505.1 95.4 504.7 95.8Q504.2 96.2 503.9 96.8Q503.7 97.5 503.7 98.2L503.7 98.2Q503.7 99.0 503.9 99.6Q504.2 100.3 504.7 100.7Q505.1 101.1 505.9 101.1ZM514.7 102.2L514.7 102.2Q514.0 102.2 513.6 101.9Q513.1 101.7 512.9 101.3Q512.6 101.0 512.5 100.8L512.5 100.8L512.4 100.8L512.4 102L511.2 102L511.2 91.8L512.4 91.8L512.4 95.6L512.5 95.6Q512.6 95.4 512.9 95.1Q513.1 94.8 513.6 94.5Q514.0 94.3 514.7 94.3L514.7 94.3Q515.7 94.3 516.4 94.7Q517.1 95.2 517.6 96.1Q518.0 97.0 518.0 98.2L518.0 98.2Q518.0 99.4 517.6 100.3Q517.2 101.2 516.4 101.7Q515.7 102.2 514.7 102.2ZM514.6 101.1L514.6 101.1Q515.3 101.1 515.8 100.7Q516.2 100.3 516.5 99.6Q516.7 99.0 516.7 98.2L516.7 98.2Q516.7 97.4 516.5 96.8Q516.2 96.1 515.8 95.7Q515.3 95.4 514.6 95.4L514.6 95.4Q513.9 95.4 513.4 95.7Q512.9 96.1 512.7 96.7Q512.4 97.3 512.4 98.2L512.4 98.2Q512.4 99.0 512.7 99.7Q512.9 100.3 513.4 100.7Q513.9 101.1 514.6 101.1ZM519.8 91.8L521.0 91.8L521.0 102L519.8 102L519.8 91.8ZM526.4 102.2L526.4 102.2Q525.3 102.2 524.5 101.7Q523.7 101.2 523.2 100.3Q522.8 99.4 522.8 98.2Q522.8 97.1 523.2 96.2Q523.6 95.3 524.4 94.8Q525.2 94.3 526.2 94.3L526.2 94.3Q526.8 94.3 527.4 94.5Q528.0 94.7 528.5 95.1Q529.0 95.6 529.3 96.3Q529.6 97.0 529.6 98.1L529.6 98.1L529.6 98.6L524.0 98.6Q524.1 99.3 524.3 99.9L524.3 99.9Q524.6 100.5 525.1 100.8Q525.7 101.1 526.4 101.1L526.4 101.1Q526.8 101.1 527.2 100.9Q527.6 100.8 527.8 100.5Q528.1 100.3 528.2 99.9L528.2 99.9L529.4 100.2Q529.3 100.8 528.8 101.2Q528.4 101.7 527.8 101.9Q527.2 102.2 526.4 102.2ZM524.0 97.6L524.0 97.6L528.3 97.6Q528.3 97.0 528.1 96.6L528.1 96.6Q527.8 96.0 527.4 95.7Q526.9 95.4 526.2 95.4Q525.5 95.4 525.0 95.7Q524.6 96.0 524.3 96.6L524.3 96.6Q524.1 97.0 524.0 97.6ZM532.5 102L531.3 102L531.3 94.4L532.5 94.4L532.5 95.8Q532.7 95.3 532.9 95.0L532.9 95.0Q533.3 94.6 533.7 94.4Q534.2 94.2 534.7 94.2L534.7 94.2Q535.5 94.2 536.0 94.7L536.0 94.7Q536.4 95.2 536.6 95.8L536.6 95.8Q536.8 95.4 537.0 95.1L537.0 95.1Q537.4 94.7 537.9 94.4Q538.4 94.2 539.0 94.2L539.0 94.2Q539.7 94.2 540.2 94.5Q540.8 94.8 541.1 95.4Q541.4 96.0 541.4 96.8L541.4 96.8L541.4 102L540.2 102L540.2 96.9Q540.2 96.1 539.7 95.7Q539.3 95.3 538.6 95.3L538.6 95.3Q538.1 95.3 537.8 95.6Q537.4 95.8 537.2 96.1Q537.0 96.5 537.0 97.0L537.0 97.0L537.0 102L535.8 102L535.8 96.8Q535.8 96.1 535.3 95.7Q534.9 95.3 534.3 95.3L534.3 95.3Q533.8 95.3 533.4 95.6Q533.0 95.8 532.8 96.2Q532.5 96.6 532.5 97.2L532.5 97.2L532.5 102ZM546.2 102.2L546.2 102.2Q545.4 102.2 544.8 101.9Q544.2 101.7 543.8 101.3Q543.4 100.8 543.2 100.1L543.2 100.1L544.4 99.9Q544.6 100.5 545.0 100.8Q545.5 101.1 546.2 101.1L546.2 101.1Q547.0 101.1 547.4 100.7Q547.9 100.4 547.9 99.9L547.9 99.9Q547.9 99.5 547.6 99.3Q547.4 99.0 546.8 98.9L546.8 98.9L545.5 98.6Q544.5 98.3 544.0 97.8Q543.5 97.3 543.5 96.5L543.5 96.5Q543.5 95.8 543.8 95.3Q544.2 94.8 544.9 94.5Q545.5 94.3 546.3 94.3L546.3 94.3Q547.1 94.3 547.6 94.5Q548.2 94.7 548.5 95.1Q548.9 95.6 549.1 96.1L549.1 96.1L547.9 96.4Q547.8 96.0 547.4 95.6Q547.0 95.3 546.3 95.3L546.3 95.3Q545.6 95.3 545.2 95.6Q544.7 95.9 544.7 96.4L544.7 96.4Q544.7 96.8 545.0 97.1Q545.3 97.4 546.0 97.5L546.0 97.5L547.2 97.8Q548.2 98.0 548.7 98.5Q549.2 99.1 549.2 99.8L549.2 99.8Q549.2 100.5 548.8 101.0Q548.4 101.6 547.8 101.9Q547.1 102.2 546.2 102.2ZM551.9 102.1L551.9 102.1Q551.5 102.1 551.3 101.8Q551.0 101.5 551.0 101.2L551.0 101.2Q551.0 100.8 551.3 100.5Q551.5 100.2 551.9 100.2L551.9 100.2Q552.3 100.2 552.6 100.5Q552.8 100.8 552.8 101.2L552.8 101.2Q552.8 101.5 552.6 101.8Q552.3 102.1 551.9 102.1Z "/></g></svg>